#define noname_width 18
#define noname_height 12
static char noname_bits[] = {
 0x80,0x01,0x00,0x80,0x01,0x00,0xc0,0x01,0x00,0xc0,0x01,0x00,0xe0,0x01,0x00,
 0xa0,0xe1,0x01,0xb0,0x61,0x00,0xf8,0x63,0x00,0x0d,0x63,0x00,0x07,0x27,0x02,
 0x07,0x33,0x03,0x00,0xf8,0x01};
