#define noname_width 13
#define noname_height 8
static char noname_bits[] = {
 0x7e,0x00,0x7a,0x04,0x18,0x06,0x08,0x04,0x6f,0x04,0x3f,0x04,0x00,0x04,0x00,
 0x1e};
