#define noname_width 8
#define noname_height 9
static char noname_bits[] = {
 0xff,0x00,0x00,0x7e,0x7a,0x18,0x08,0x6f,0x3f};
