#define noname_width 98
#define noname_height 14
static char noname_bits[] = {
 0xf0,0x01,0x00,0x00,0x00,0xf8,0x00,0x00,0x00,0x80,0x3f,0x00,0x00,0x18,0x03,
 0x00,0x00,0x00,0x8c,0x01,0x00,0x00,0x00,0x33,0x00,0x00,0x0c,0x03,0x00,0x00,
 0x00,0x86,0x01,0x00,0x00,0x80,0x21,0x00,0x00,0x06,0x03,0x00,0x00,0x00,0x83,
 0x01,0x00,0x00,0x80,0x29,0x00,0x00,0x06,0x03,0x00,0xfe,0x03,0x83,0x01,0x00,
 0x00,0x80,0x05,0x00,0x00,0x07,0x23,0x06,0xff,0x83,0x83,0x89,0x01,0x00,0x80,
 0x87,0x18,0x00,0x03,0x23,0x06,0x00,0x80,0x81,0x89,0x81,0xff,0xc0,0x84,0x18,
 0x00,0x83,0x11,0x03,0x00,0x80,0xc1,0xc4,0x00,0x00,0xc0,0x40,0x0c,0x00,0xfe,
 0x39,0x07,0xff,0x03,0xe3,0xce,0x01,0x00,0xc0,0xe0,0x1c,0x03,0xee,0x19,0x03,
 0x00,0x00,0x77,0xc6,0x00,0x00,0xf0,0x61,0x0c,0x03,0x78,0x39,0x02,0x00,0x00,
 0x1c,0x8e,0x00,0x00,0x00,0xe0,0x08,0x02,0xe0,0x39,0x03,0x00,0x00,0x00,0xce,
 0x00,0x00,0x00,0xe0,0x0c,0x02,0xe0,0x80,0x03,0x00,0x00,0x00,0xe0,0x00,0x00,
 0x00,0x00,0x0e,0x01,0x00,0xc0,0x01,0x00,0x00,0x00,0x70,0x00,0x00,0x00,0x00,
 0x07,0x00};
