#define noname_width 21
#define noname_height 12
static char noname_bits[] = {
 0xef,0x3d,0x00,0xc2,0x18,0x00,0xe2,0x08,0x00,0xe2,0x04,0x00,0xf2,0x06,0x00,
 0xd6,0x02,0x00,0xce,0x03,0x00,0xce,0xa1,0x0d,0xc6,0x71,0x0b,0xc6,0x30,0x09,
 0x42,0x20,0x1d,0x00,0xb0,0x1d};
