#define noname_width 11
#define noname_height 10
static char noname_bits[] = {
 0xf8,0x07,0x30,0x06,0x18,0x02,0x98,0x02,0x58,0x00,0x78,0x00,0x4c,0x02,0x0c,
 0x03,0x0c,0x01,0xff,0x01};
