#define noname_width 11
#define noname_height 10
static char noname_bits[] = {
 0x60,0x00,0x60,0x00,0x70,0x00,0xf0,0x00,0xf8,0x00,0xd8,0x01,0xf8,0x01,0xfc,
 0x01,0x84,0x03,0xcf,0x07};
