#define noname_width 450
#define noname_height 17
static char noname_bits[] = {
 0x00,0x00,0x00,0x00,0x00,0x00,0x00,0x00,0x00,0x00,0x00,0x00,0x00,0x00,0x00,
 0x00,0x00,0x00,0x00,0x00,0x00,0xf8,0xff,0xff,0xff,0x01,0x00,0x00,0x00,0x00,
 0x00,0x00,0x00,0x00,0x00,0x00,0x00,0x00,0x00,0x00,0x00,0x00,0x00,0x00,0x00,
 0x00,0x00,0x00,0x00,0x00,0x00,0x00,0x00,0x00,0x00,0x00,0x00,0x00,0x00,0x00,
 0x00,0x00,0x00,0x00,0x00,0x00,0x00,0x00,0x00,0x00,0x00,0x00,0x00,0x00,0x00,
 0x00,0x00,0x00,0x18,0x00,0x00,0x00,0x00,0x00,0x00,0x00,0x00,0x00,0x00,0x00,
 0x00,0x00,0x00,0x00,0x00,0x00,0x00,0x00,0x00,0x00,0x00,0x00,0x00,0x00,0x00,
 0x00,0x00,0x00,0x00,0x00,0x00,0x00,0x00,0x00,0x00,0x00,0x00,0x00,0x00,0x00,
 0x00,0x00,0x00,0x00,0x00,0x00,0x00,0x00,0x00,0x00,0x00,0x00,0x00,0x00,0x00,
 0x0c,0x00,0x00,0x00,0x00,0x00,0x00,0x00,0x00,0x00,0x00,0x00,0x00,0x00,0x00,
 0x00,0x00,0x00,0x00,0x00,0x00,0x00,0x00,0x00,0x00,0x00,0x00,0x00,0x00,0x00,
 0x00,0x00,0x00,0x20,0x40,0x00,0x00,0x00,0x00,0x00,0xde,0x7b,0x00,0x00,0x00,
 0x00,0x00,0x00,0x78,0xef,0x01,0x00,0x00,0x00,0x00,0x00,0x00,0xec,0xbd,0x07,
 0x00,0x00,0x00,0x00,0x00,0x00,0x00,0x00,0x00,0x00,0x00,0x00,0x00,0x00,0x00,
 0x00,0x00,0x00,0x00,0x00,0x00,0x00,0x00,0x00,0x00,0x00,0x00,0x00,0x00,0x00,
 0x10,0x99,0x00,0x00,0x00,0x00,0x00,0x84,0x31,0x00,0x00,0x00,0x00,0x00,0x00,
 0x10,0xc6,0x00,0x00,0x00,0x00,0x00,0x00,0x00,0x46,0x18,0x03,0x00,0x00,0x00,
 0x00,0x00,0x00,0x00,0x00,0x00,0x00,0x00,0x00,0x00,0x00,0x00,0x00,0x00,0x00,
 0x00,0x00,0x00,0x00,0x00,0x00,0x00,0x00,0x00,0x00,0x00,0x00,0x18,0x8f,0x01,
 0x00,0x00,0x00,0x00,0xc4,0x11,0x00,0x00,0x00,0x00,0x00,0x00,0x10,0x47,0x00,
 0x00,0x80,0x00,0x00,0x00,0x00,0x46,0x1c,0x01,0x00,0x00,0x00,0x00,0x00,0x00,
 0x00,0x00,0x00,0x00,0x00,0x00,0x00,0x00,0x00,0x00,0x00,0x00,0x00,0x00,0x00,
 0x00,0x00,0x00,0x00,0x00,0x00,0x00,0x00,0x00,0x0c,0x01,0x03,0x00,0x00,0x00,
 0x00,0xc4,0x09,0x00,0x00,0x00,0x00,0x00,0x00,0x10,0x27,0x00,0x00,0x80,0x00,
 0x00,0x00,0x00,0x43,0x9c,0x00,0x00,0x00,0x00,0x00,0x00,0x00,0x00,0x00,0x00,
 0x00,0x00,0x00,0x00,0x00,0x00,0x00,0x00,0x00,0x00,0x00,0x00,0x00,0x00,0x00,
 0x00,0x00,0x00,0x00,0x00,0x00,0x0c,0x01,0x03,0x00,0x00,0x00,0x00,0xe4,0x0d,
 0x00,0x00,0x80,0xff,0xe0,0x07,0x90,0x37,0x00,0x00,0x80,0x00,0x7e,0x00,0x00,
 0x43,0xde,0x00,0x00,0x00,0x00,0x00,0x00,0x00,0x00,0x00,0x00,0x00,0x00,0x00,
 0x00,0x00,0x00,0x00,0x00,0x00,0x00,0x00,0x00,0x00,0x00,0x00,0x00,0x00,0x00,
 0x00,0x00,0x00,0x04,0x0f,0x02,0x00,0x00,0x00,0x00,0xac,0x05,0x00,0x00,0xc0,
 0xff,0xa0,0x47,0xb0,0x16,0xc0,0x38,0x80,0x00,0x7a,0x0e,0x82,0xc1,0x5a,0x80,
 0x71,0x00,0x00,0x00,0x00,0x00,0x00,0x00,0x00,0x00,0x00,0x00,0x00,0x00,0x00,
 0x00,0x00,0x00,0x00,0x00,0x00,0x00,0x00,0x00,0x00,0x00,0x00,0x00,0x00,0x00,
 0x04,0x19,0x02,0x00,0x00,0x00,0x00,0x9c,0x07,0x00,0x00,0x00,0x00,0x80,0x61,
 0x70,0x1e,0xc0,0x10,0xfc,0x0f,0x18,0x9b,0x83,0xc1,0x79,0x80,0x21,0x00,0x00,
 0x00,0x00,0x00,0x00,0x00,0x00,0x00,0x00,0x00,0x00,0x00,0x00,0x00,0x00,0x00,
 0x00,0x00,0x00,0x00,0x00,0x00,0x00,0x00,0x00,0x00,0x00,0x00,0x04,0x18,0x02,
 0x00,0x00,0x00,0x00,0x9c,0x43,0xc3,0xa4,0x00,0x00,0x80,0x40,0x70,0x0e,0xc6,
 0x1c,0x80,0x00,0x08,0x9b,0xc7,0xc0,0x39,0x98,0x39,0x00,0x00,0x00,0x00,0x00,
 0x00,0x00,0x00,0x00,0x00,0x00,0x00,0x00,0x00,0x00,0x00,0x00,0x00,0x00,0x00,
 0x00,0x00,0x00,0x00,0x00,0x00,0x00,0x00,0x00,0x84,0x19,0x02,0x00,0x00,0x00,
 0x00,0x8c,0xe3,0xe2,0xbf,0xc0,0xff,0xf0,0x46,0x30,0x0e,0x4f,0x1e,0x80,0x00,
 0x6f,0x18,0xc6,0xc0,0x38,0xbc,0x3c,0x30,0x00,0x00,0x00,0x00,0x00,0x00,0x00,
 0x00,0x00,0x00,0x00,0x00,0x00,0x00,0x00,0x00,0x00,0x00,0x00,0x00,0x00,0x00,
 0x00,0x00,0x00,0x00,0x00,0x00,0x84,0x19,0x02,0x00,0x00,0x00,0x00,0x8c,0x61,
 0xe2,0xb6,0x00,0x00,0xf0,0x43,0x30,0x06,0x49,0x1a,0x80,0x00,0x3f,0x0c,0x6e,
 0xc0,0x18,0xa4,0x34,0x30,0x00,0x00,0x00,0x00,0x00,0x00,0x00,0x00,0x00,0x00,
 0x00,0x00,0x00,0x00,0x00,0x00,0x00,0x00,0x00,0x00,0x00,0x00,0x00,0x00,0x00,
 0x00,0x00,0x00,0x0c,0x1f,0x03,0x00,0x00,0x00,0x00,0x84,0x40,0x37,0xd5,0x00,
 0x00,0x00,0x40,0x10,0x82,0x6d,0x1b,0x80,0x00,0x00,0x16,0x6c,0x40,0x08,0xf6,
 0x36,0x00,0x00,0x00,0x00,0x00,0x00,0x00,0x00,0x00,0x00,0x00,0x00,0x00,0x00,
 0x00,0x00,0x00,0x00,0x00,0x00,0x00,0x00,0x00,0x00,0x00,0x00,0x00,0x00,0x00,
 0x0c,0x06,0x03,0x00,0x00,0x00,0x00,0x00,0x60,0xe7,0x7c,0x00,0x00,0x00,0xe0,
 0x01,0x00,0x67,0x1e,0x80,0x00,0x00,0x1f,0x3c,0x00,0x00,0xdc,0x3c,0x00,0x00,
 0x00,0x00,0x00,0x00,0x00,0x00,0x00,0x00,0x00,0x00,0x00,0x00,0x00,0x00,0x00,
 0x00,0x00,0x00,0x00,0x00,0x00,0x00,0x00,0x00,0x00,0x00,0x00,0x08,0x00,0x01,
 0x00,0x00,0x00,0x00,0x00,0x00,0x00,0x00,0x00,0x00,0x00,0x00,0x00,0x00,0x00,
 0x00,0x00,0x00,0x00,0x00,0x38,0x00,0x00,0x00,0x00,0x00,0x00,0x00,0x00,0x00,
 0x00,0x00,0x00,0x00,0x00,0x00,0x00,0x00,0x00,0x00,0x00,0x00,0x00,0x00,0x00,
 0x00,0x00,0x00,0x00,0x00,0x00,0x00,0x00,0x00,0x18,0x80,0x01,0x00,0x00,0x00,
 0x00,0x00,0x00,0x00,0x00,0x00,0x00,0x00,0x00,0x00,0x00,0x00,0x00,0x00,0x00,
 0x00,0x00,0x18,0x00,0x00,0x00,0x00,0x00,0x00,0x00,0x00,0x00,0x00,0x00,0x00,
 0x00,0x00,0x00,0x00,0x00,0x00,0x00,0x00,0x00,0x00,0x00,0x00,0x00,0x00,0x00,
 0x00,0x00,0x00,0x00,0x00,0x00,0x30,0xc0,0x00};
