#define noname_width 17
#define noname_height 13
static char noname_bits[] = {
 0x08,0x80,0x01,0x0c,0x80,0x01,0x00,0x00,0x00,0x00,0x00,0x00,0x0e,0xe0,0x00,
 0x0f,0xf0,0x00,0x06,0xc0,0x00,0x06,0xc0,0x00,0x6e,0x40,0x00,0x6e,0x60,0x00,
 0x40,0x60,0x00,0x40,0x78,0x00,0x20,0x38,0x00};
