#define noname_width 75
#define noname_height 15
static char noname_bits[] = {
 0x00,0x00,0x40,0x00,0x00,0x00,0x00,0x00,0x80,0x00,0x1c,0x04,0x20,0x00,0x04,
 0x00,0x00,0x38,0x00,0x01,0x1e,0x06,0x30,0x00,0x1f,0x00,0x00,0x2c,0x00,0x03,
 0x1b,0x03,0x18,0x00,0x0e,0x80,0x00,0x0c,0x00,0x06,0x19,0x03,0x18,0x00,0x1f,
 0x80,0x00,0x1c,0x00,0x06,0xf8,0x03,0x88,0x3f,0x04,0x80,0x00,0xdc,0x1f,0x04,
 0xf8,0x01,0x08,0x63,0x00,0x80,0x00,0xb6,0x31,0x04,0x8c,0x01,0x08,0x63,0x00,
 0xfc,0x0f,0xb3,0x31,0x04,0x8c,0x91,0x08,0x63,0x00,0x80,0x00,0x93,0x31,0x04,
 0x8c,0xf9,0x08,0x63,0x00,0x80,0x00,0x93,0x31,0x04,0x86,0xdf,0x18,0x3f,0x00,
 0x80,0x00,0x8e,0x1f,0x06,0x82,0x53,0x18,0x03,0x00,0x80,0x00,0x80,0x01,0x06,
 0x00,0x70,0x10,0x03,0x00,0x80,0x00,0x80,0x01,0x02,0x00,0x78,0xb0,0x07,0x00,
 0x00,0x00,0xc0,0x03,0x03,0x00,0x38,0x60,0x00,0x00,0x00,0x00,0x00,0x80,0x01};
