#define noname_width 33
#define noname_height 11
static char noname_bits[] = {
 0x00,0x18,0xc0,0x90,0x01,0x00,0x6c,0x60,0xf3,0x00,0x00,0x64,0x20,0x13,0x00,
 0x00,0x46,0x30,0x12,0x00,0x00,0x46,0x30,0xf2,0x00,0x00,0x46,0x30,0x92,0x01,
 0xff,0x47,0x30,0x82,0x01,0x00,0x46,0x30,0x9a,0x01,0x00,0x64,0x26,0x9b,0x01,
 0x00,0x6c,0x66,0xf3,0x01,0x00,0x38,0xc0,0x61,0x00};
