#define noname_width 13
#define noname_height 15
static char noname_bits[] = {
 0x00,0x0e,0x00,0x1b,0x00,0x1b,0x00,0x18,0x00,0x0c,0x00,0x16,0x8e,0x1f,0x4c,
 0x00,0x38,0x00,0x38,0x00,0x18,0x00,0x1c,0x00,0x36,0x00,0xb2,0x00,0x61,0x00};
