#define noname_width 37
#define noname_height 15
static char noname_bits[] = {
 0x08,0x00,0x00,0x00,0x02,0x84,0x00,0x00,0x06,0x04,0xc6,0x00,0x00,0x06,0x0c,
 0x03,0x00,0x00,0x00,0x18,0x03,0x00,0x00,0x00,0x18,0xe1,0x00,0x80,0x03,0x10,
 0xf1,0x00,0xc0,0x03,0x10,0x61,0x00,0x00,0x03,0x10,0x61,0x18,0x00,0x63,0x10,
 0xe1,0x1c,0x03,0x71,0x10,0xe3,0x1c,0x83,0x71,0x18,0x03,0x1e,0x82,0x79,0x18,
 0x02,0x1e,0xe2,0x79,0x08,0x06,0x00,0xe1,0x00,0x0c,0x0c,0x00,0x00,0x00,0x06};
