#define noname_width 39
#define noname_height 15
static char noname_bits[] = {
 0x00,0x00,0x00,0x02,0x00,0x78,0x78,0x0f,0xc2,0x03,0x4c,0x30,0x06,0x63,0x62,
 0xcc,0x18,0x03,0x63,0x66,0xf8,0x18,0x03,0xc1,0x27,0xec,0x18,0x83,0x61,0x7f,
 0xc6,0xf8,0x83,0x30,0x36,0x63,0x8c,0x81,0x18,0x33,0x63,0x8c,0xc1,0x18,0x13,
 0x23,0x8c,0x41,0x18,0x59,0x3e,0xff,0x63,0xf0,0x79,0x0c,0x00,0x60,0x60,0x00,
 0x00,0x00,0x20,0x00,0x00,0x00,0x00,0x30,0x00,0x00,0x00,0x00,0x30,0x00,0x00};
