#define noname_width 49
#define noname_height 12
static char noname_bits[] = {
 0x00,0x00,0x00,0x00,0x06,0x08,0x00,0x00,0x00,0x00,0x00,0x1b,0xf8,0x01,0x00,
 0x00,0x00,0x00,0x19,0x8c,0x00,0x00,0x00,0x00,0x80,0x11,0x44,0x00,0x7e,0x00,
 0xfe,0x83,0x11,0x60,0x00,0x0b,0x00,0xff,0x83,0x11,0x20,0x00,0x08,0x00,0x00,
 0x80,0x11,0x30,0x00,0x0c,0x07,0x00,0x80,0x11,0x30,0x00,0x8c,0x07,0xff,0x03,
 0x99,0x31,0x00,0x8c,0x06,0x00,0x00,0x9b,0x31,0x00,0xc0,0x06,0x00,0x00,0x0e,
 0x30,0x00,0x80,0x07,0x00,0x00,0x00,0x00,0x00};
