#define noname_width 181
#define noname_height 15
static char noname_bits[] = {
 0x00,0x00,0x00,0x00,0x00,0x00,0x00,0x7f,0x00,0x00,0x00,0x00,0xf8,0x03,0x00,
 0x00,0x00,0x00,0x10,0x00,0x08,0x00,0x00,0x00,0x00,0x00,0x00,0x00,0x00,0x00,
 0x59,0x00,0x00,0x00,0x00,0xc8,0x02,0x00,0x00,0x00,0x00,0x18,0x00,0x0c,0x00,
 0x00,0x38,0x00,0x00,0x00,0xfc,0x07,0x06,0x59,0xc0,0xe0,0x3f,0x30,0xc8,0x02,
 0x00,0xe0,0x1f,0x00,0x10,0x00,0x08,0x78,0x04,0x2c,0x00,0x00,0x00,0xfc,0x07,
 0x06,0x0c,0xc0,0xe0,0x3f,0x30,0x60,0x00,0x00,0xe0,0x3f,0x00,0x10,0x00,0x08,
 0x70,0x1f,0x0c,0x00,0x00,0x00,0x30,0x04,0x07,0x0c,0xe0,0x80,0x21,0x38,0x60,
 0x00,0x10,0x80,0x71,0xfc,0x10,0x7e,0x08,0x70,0x0e,0x1c,0x00,0x00,0x00,0xb0,
 0x05,0x0f,0x0c,0xe0,0x81,0x2d,0x78,0x60,0x00,0x10,0x80,0x71,0x00,0x10,0x00,
 0x08,0x70,0x1f,0xdc,0x1f,0xf0,0x1f,0xf0,0x81,0x0f,0x1f,0xf0,0x81,0x0f,0x7c,
 0xf8,0x00,0x10,0x80,0x79,0x00,0x78,0x00,0x3c,0x7f,0x04,0xb6,0x31,0xf8,0x1f,
 0xf0,0x81,0x1d,0x00,0xb0,0x83,0x0f,0xec,0x00,0x00,0x10,0x80,0x3f,0x00,0x00,
 0x00,0x00,0x73,0x00,0xb3,0x31,0x00,0x00,0xb0,0x89,0x1f,0x00,0xf0,0x83,0x4d,
 0xfc,0x00,0x80,0xff,0x81,0x39,0x00,0x00,0x00,0x80,0x73,0x00,0x93,0x31,0x00,
 0x00,0x30,0xcc,0x1f,0x00,0xf8,0x83,0x61,0xfe,0x00,0x00,0x10,0x80,0x31,0x00,
 0x00,0x00,0x80,0x73,0x00,0x93,0x31,0xf8,0x1f,0x30,0x4c,0x38,0x00,0x08,0x87,
 0x61,0xc2,0x01,0x00,0x10,0x80,0x31,0x01,0x00,0x00,0x00,0x73,0x00,0x8e,0x1f,
 0x00,0x00,0xfc,0xf7,0x7c,0x00,0x9e,0xef,0xbf,0xe7,0x03,0x00,0x10,0xe0,0xf7,
 0x01,0x00,0x00,0x00,0xff,0x00,0x80,0x01,0x00,0x00,0x00,0x00,0x00,0x00,0x00,
 0x00,0x00,0x00,0x00,0x00,0x10,0x00,0x00,0x00,0x00,0x00,0x00,0x00,0x00,0x80,
 0x01,0x00,0x00,0x00,0x00,0x00,0x00,0x00,0x00,0x00,0x00,0x00,0x00,0x10,0x00,
 0x00,0x00,0x00,0x00,0x00,0x00,0x00,0xc0,0x03,0x00,0x00,0x00,0x00,0x00,0x00,
 0x00,0x00,0x00,0x00,0x00,0x00,0x00,0x00,0x00,0x00,0x00,0x00,0x00,0x00,0x00};
