#define noname_width 450
#define noname_height 15
static char noname_bits[] = {
 0x00,0x00,0x00,0x00,0x00,0x00,0x00,0x00,0x00,0x00,0x00,0x00,0x00,0x00,0x00,
 0x00,0x00,0x00,0x00,0x00,0x00,0x00,0x00,0x00,0x00,0x00,0x00,0x00,0x00,0x00,
 0x00,0x00,0x00,0x00,0x00,0x00,0x00,0x00,0x00,0x00,0x00,0x00,0x00,0x00,0x00,
 0x00,0x00,0x00,0x00,0x00,0x00,0x00,0x00,0x80,0x00,0x40,0x00,0xc0,0x0f,0x00,
 0x00,0x00,0xf8,0x01,0x00,0x00,0x00,0x02,0x00,0x00,0x03,0x30,0x0c,0x00,0x00,
 0x80,0x01,0x0c,0x06,0x82,0x01,0x8f,0x00,0x00,0x00,0x00,0x00,0x00,0x00,0x00,
 0x00,0x00,0x00,0x00,0x00,0x00,0x00,0x00,0x00,0x00,0x00,0x00,0x00,0x00,0x00,
 0x00,0x00,0x00,0x00,0x00,0x40,0x0c,0x81,0x00,0x80,0x19,0x00,0x00,0x00,0x30,
 0x03,0x00,0x00,0x80,0x03,0x00,0x80,0x0d,0x78,0x36,0x00,0x00,0xc0,0x06,0x36,
 0x9b,0xc3,0x86,0xe9,0x00,0x00,0x00,0x00,0x00,0x00,0x00,0x00,0x00,0x00,0x00,
 0x00,0x00,0x00,0x00,0x00,0x00,0x00,0x00,0x00,0x00,0x00,0x00,0x00,0x00,0x00,
 0x00,0x00,0x60,0x36,0xbf,0x01,0xc0,0x18,0x00,0x00,0x00,0x18,0x03,0x00,0x00,
 0x00,0x02,0x00,0x80,0x0c,0x6c,0x37,0x00,0x10,0x40,0x06,0x32,0x19,0x62,0x86,
 0x8c,0x00,0x00,0x00,0x00,0x00,0x00,0x00,0x00,0x00,0x00,0x00,0x00,0x00,0x00,
 0x00,0x00,0x00,0x00,0x00,0x00,0x00,0x00,0x00,0x00,0x00,0x00,0x00,0x00,0x30,
 0xb7,0x11,0x03,0xc0,0x18,0x00,0x00,0x00,0x18,0x03,0x00,0x00,0x00,0x02,0x00,
 0xc0,0x08,0x04,0x27,0x00,0x10,0x60,0x04,0xa3,0x11,0x62,0x44,0x8c,0x00,0x00,
 0x00,0x00,0x00,0x00,0x00,0x00,0x00,0x00,0x00,0x00,0x00,0x00,0x00,0x00,0x00,
 0x00,0x00,0x00,0x00,0x00,0x00,0x00,0x00,0x00,0x00,0x00,0x30,0xa7,0x08,0x03,
 0xc0,0x1c,0x00,0xf8,0x0f,0x98,0x03,0x00,0x00,0x00,0x02,0x00,0xc0,0x08,0x3e,
 0x30,0x1e,0x10,0x60,0x04,0xa3,0x11,0x62,0x44,0x87,0x00,0x00,0xc0,0x0b,0x00,
 0x00,0x00,0x00,0x00,0x00,0x00,0x00,0x00,0x00,0x00,0x00,0x00,0x00,0x00,0x00,
 0x00,0x00,0x00,0x00,0x00,0x00,0x00,0x00,0x10,0x30,0x0c,0x02,0xc0,0x07,0x1f,
 0xfc,0x0f,0xf8,0x00,0x06,0x00,0x00,0x02,0x00,0xc0,0x08,0x66,0x30,0x1b,0x10,
 0x60,0x04,0xa3,0x11,0x42,0x46,0x84,0x00,0x00,0x60,0x0a,0x00,0x00,0x00,0x00,
 0x00,0x00,0x00,0x00,0x00,0x00,0x00,0x00,0x00,0x00,0x00,0x00,0x00,0x00,0x00,
 0x00,0x00,0x00,0x00,0x00,0x10,0x30,0x04,0x02,0x60,0x04,0x09,0x00,0x00,0x8c,
 0x00,0x04,0x00,0x00,0x02,0xfe,0xc3,0x08,0x46,0x98,0x81,0xff,0x61,0x04,0xa3,
 0x11,0xc2,0x67,0x8c,0x80,0xff,0x30,0x0e,0x00,0x00,0x00,0x00,0x00,0x00,0x00,
 0x00,0x00,0x00,0x00,0x00,0x00,0x00,0x00,0x00,0x00,0x00,0x00,0x00,0x00,0x00,
 0x00,0x00,0x10,0x18,0x06,0x02,0x60,0x04,0x09,0x00,0x00,0x8c,0x00,0x04,0x00,
 0x00,0x02,0x00,0xc0,0x08,0x46,0xac,0x01,0x10,0x60,0x04,0xa3,0x11,0x02,0x26,
 0x86,0x00,0x00,0x30,0x06,0x00,0x00,0x00,0x00,0x00,0x00,0x00,0x00,0x00,0x00,
 0x00,0x00,0x00,0x00,0x00,0x00,0x00,0x00,0x00,0x00,0x00,0x00,0x00,0x00,0x10,
 0x2c,0x06,0x02,0x60,0x26,0x0f,0xfc,0x0f,0xcc,0xe4,0xc4,0x38,0x0f,0x02,0x00,
 0x80,0xcc,0x64,0xa6,0x19,0x10,0x40,0x66,0x32,0x19,0xc2,0x66,0x86,0x00,0x00,
 0x30,0x06,0x03,0x00,0x00,0x00,0x00,0x00,0x00,0x00,0x00,0x00,0x00,0x00,0x00,
 0x00,0x00,0x00,0x00,0x00,0x00,0x00,0x00,0x00,0x00,0x00,0x10,0x26,0x06,0x02,
 0xf8,0x1e,0x0c,0x00,0x00,0xdf,0xfb,0xf4,0x7d,0x9f,0x0f,0x00,0x80,0xcd,0x6c,
 0x3f,0x0f,0x10,0xc0,0x66,0x36,0x9b,0x4f,0xe3,0xe3,0x03,0x00,0xe0,0x0f,0x03,
 0x00,0x00,0x00,0x00,0x00,0x00,0x00,0x00,0x00,0x00,0x00,0x00,0x00,0x00,0x00,
 0x00,0x00,0x00,0x00,0x00,0x00,0x00,0x00,0x30,0x3f,0x06,0x03,0x00,0x9c,0x0c,
 0x00,0x00,0x80,0x9b,0xf4,0x79,0x06,0x00,0x00,0x00,0x07,0x38,0x00,0x00,0x10,
 0x80,0x03,0x1c,0x0e,0x80,0x31,0x00,0x00,0x00,0x00,0x00,0x00,0x00,0x00,0x00,
 0x00,0x00,0x00,0x00,0x00,0x00,0x00,0x00,0x00,0x00,0x00,0x00,0x00,0x00,0x00,
 0x00,0x00,0x00,0x00,0x00,0x30,0x00,0x06,0x03,0x00,0xc0,0x07,0x00,0x00,0x00,
 0x18,0x34,0x7c,0x06,0x00,0x00,0x00,0x00,0x00,0x00,0x00,0x10,0x00,0x00,0x00,
 0x00,0x00,0x10,0x00,0x00,0x00,0x00,0x00,0x00,0x00,0x00,0x00,0x00,0x00,0x00,
 0x00,0x00,0x00,0x00,0x00,0x00,0x00,0x00,0x00,0x00,0x00,0x00,0x00,0x00,0x00,
 0x00,0x00,0x20,0x00,0x00,0x01,0x00,0x00,0x00,0x00,0x00,0x00,0x98,0x34,0xed,
 0x06,0x00,0x00,0x00,0x00,0x00,0x00,0x00,0x00,0x00,0x00,0x00,0x00,0x00,0x10,
 0x00,0x00,0x00,0x00,0x00,0x00,0x00,0x00,0x00,0x00,0x00,0x00,0x00,0x00,0x00,
 0x00,0x00,0x00,0x00,0x00,0x00,0x00,0x00,0x00,0x00,0x00,0x00,0x00,0x00,0x60,
 0x00,0x80,0x01,0x00,0x00,0x00,0x00,0x00,0x00,0xf0,0xee,0xfd,0x0f,0x00,0x00,
 0x00,0x00,0x00,0x00,0x00,0x00,0x00,0x00,0x00,0x00,0x00,0x00,0x00,0x00,0x00,
 0x00,0x00,0x00,0x00,0x00,0x00,0x00,0x00,0x00,0x00,0x00,0x00,0x00,0x00,0x00,
 0x00,0x00,0x00,0x00,0x00,0x00,0x00,0x00,0x00,0x00,0x00,0xc0,0x00,0xc0,0x00};
