#define noname_width 116
#define noname_height 16
static char noname_bits[] = {
 0x00,0x00,0x00,0x00,0x00,0x00,0x00,0x00,0xe0,0x00,0x00,0x00,0x00,0x1c,0x00,
 0x00,0x00,0x00,0x00,0x00,0x00,0x00,0x10,0xb0,0x01,0x00,0x00,0x00,0x36,0x01,
 0xff,0x00,0x00,0x00,0x8c,0x01,0x00,0x08,0xb0,0x01,0x00,0x00,0x00,0x36,0x02,
 0xff,0x01,0x00,0x00,0x88,0x01,0x00,0x0c,0x80,0x01,0x00,0x00,0x00,0x30,0x06,
 0x8c,0x03,0x00,0x00,0x08,0x00,0x00,0x06,0xc0,0x00,0x00,0x00,0x00,0x18,0x0c,
 0x8c,0x03,0x00,0x00,0x08,0x00,0x40,0x06,0x60,0x01,0x00,0x00,0x00,0x2c,0x0c,
 0xcc,0x03,0xfe,0x83,0xcf,0x79,0xfc,0xc2,0xf7,0x01,0x00,0x00,0xf0,0x3f,0x08,
 0xfc,0x01,0xff,0x83,0x88,0xd9,0x24,0xe2,0x07,0x00,0x00,0x00,0xf8,0x01,0x08,
 0xcc,0x01,0x00,0xc0,0x88,0xf1,0x24,0xc2,0x20,0x00,0x00,0x00,0x30,0x00,0x08,
 0x8c,0x01,0x00,0xc0,0x88,0xd9,0x3c,0xc2,0x30,0x00,0x00,0x00,0x30,0x00,0x08,
 0x8c,0x09,0xff,0x83,0x88,0xcd,0x05,0xc2,0x20,0x18,0x66,0x66,0x30,0x34,0x08,
 0xbf,0x0f,0x00,0x80,0xdf,0xfb,0x7d,0xc6,0x20,0x18,0x66,0x66,0x30,0x2e,0x0c,
 0x00,0x00,0x00,0x00,0x00,0x00,0xc6,0x06,0x20,0x10,0x00,0x40,0x00,0x26,0x0c,
 0x00,0x00,0x00,0x00,0x00,0x00,0xc6,0x04,0x20,0x10,0x00,0x40,0x00,0x74,0x04,
 0x00,0x00,0x00,0x00,0x00,0x00,0x7c,0x0c,0xf0,0x08,0x00,0x20,0x00,0x76,0x06,
 0x00,0x00,0x00,0x00,0x00,0x00,0x00,0x18,0x00,0x00,0x00,0x00,0x00,0x00,0x03};
