#define noname_width 13
#define noname_height 9
static char noname_bits[] = {
 0xfc,0x00,0xde,0x00,0xcc,0x00,0xcc,0x0c,0x6c,0x1e,0x3c,0x0e,0x06,0x13,0x06,
 0x0e,0x0f,0x00};
