#define noname_width 21
#define noname_height 9
static char noname_bits[] = {
 0xfc,0x00,0x00,0xde,0x7f,0x00,0xcc,0x59,0x00,0xcc,0x59,0x0e,0x6c,0x0c,0x1f,
 0x3c,0x0c,0x03,0x06,0x0c,0x02,0x06,0x1f,0x03,0x0f,0x00,0x00};
