#define noname_width 34
#define noname_height 11
static char noname_bits[] = {
 0x00,0x18,0x80,0x80,0x00,0x00,0x6c,0xe0,0xc0,0x00,0x00,0x64,0x80,0xc0,0x00,
 0x00,0x46,0x80,0xe0,0x00,0x00,0x46,0x80,0xb0,0x00,0x00,0x46,0x80,0x90,0x00,
 0xff,0x47,0x80,0x98,0x00,0x00,0x46,0x80,0xf8,0x03,0x00,0x64,0x86,0x80,0x00,
 0x00,0x6c,0xe6,0xe3,0x03,0x00,0x38,0x00,0x00,0x00};
