#define noname_width 17
#define noname_height 14
static char noname_bits[] = {
 0xf8,0x03,0x00,0x30,0x03,0x00,0x18,0x02,0x00,0x98,0x02,0x00,0x58,0x00,0x00,
 0x78,0x88,0x01,0x4c,0x88,0x01,0x0c,0xc4,0x00,0x0c,0xce,0x01,0x1f,0xc6,0x00,
 0x00,0x8e,0x00,0x00,0xce,0x00,0x00,0xe0,0x00,0x00,0x70,0x00};
