#define noname_width 450
#define noname_height 36
static char noname_bits[] = {
 0x00,0x00,0x00,0x00,0x00,0x00,0x00,0x00,0x00,0x00,0x00,0x00,0x00,0x40,0x00,
 0x00,0x00,0x00,0x00,0x00,0x00,0x00,0x00,0x00,0x20,0x00,0x00,0x00,0x00,0x00,
 0x00,0x00,0x00,0x00,0x00,0x00,0x00,0x00,0x00,0x00,0x00,0x00,0x00,0x00,0x00,
 0x00,0x00,0x00,0x00,0x00,0x00,0x00,0x00,0x80,0x00,0x40,0x00,0x00,0x00,0x00,
 0x00,0xfc,0x01,0x00,0x00,0x00,0x00,0x00,0xf8,0x03,0x20,0xef,0x3d,0xf8,0x0f,
 0x00,0x10,0xf0,0x1f,0x80,0x00,0x40,0x00,0x00,0x00,0x00,0x00,0x00,0x00,0x00,
 0x00,0x00,0x00,0x00,0x00,0x00,0x00,0x00,0x00,0x00,0x00,0x00,0x00,0x00,0x00,
 0x00,0x00,0x00,0x00,0x00,0x40,0x0c,0x86,0x00,0x00,0x00,0x00,0x00,0xc6,0x01,
 0x00,0x00,0x00,0x00,0x00,0x8c,0x03,0x30,0xc2,0x18,0xd8,0x0c,0x00,0x38,0xb0,
 0x19,0xc0,0x01,0xc0,0x00,0x00,0x00,0x00,0x00,0x00,0x00,0x00,0x00,0x00,0x00,
 0x00,0x00,0x00,0x00,0x00,0x00,0x00,0x00,0x00,0x00,0x00,0x00,0x00,0x00,0x00,
 0x00,0x00,0x60,0x36,0x9b,0x01,0x00,0x00,0x00,0x00,0x83,0x00,0x00,0x00,0x00,
 0x00,0x00,0x06,0x01,0x18,0xe2,0x08,0xcc,0x08,0x00,0x38,0x98,0x11,0xc0,0x01,
 0x80,0x01,0x00,0x00,0x00,0x00,0x00,0x00,0x00,0x00,0x00,0x00,0x00,0x00,0x00,
 0x00,0x00,0x00,0x00,0x00,0x00,0x00,0x00,0x00,0x00,0x00,0x00,0x00,0x00,0x30,
 0xb7,0x1b,0x03,0x00,0x00,0x00,0x80,0x81,0x00,0x00,0x00,0x00,0x00,0x00,0x03,
 0x01,0x18,0xe2,0x04,0xc4,0x08,0x00,0x7c,0x88,0x11,0xe0,0x03,0x80,0x01,0x00,
 0x00,0x00,0x00,0x00,0x00,0x00,0x00,0x00,0x00,0x00,0x00,0x00,0x00,0x00,0x00,
 0x00,0x00,0x00,0x00,0x00,0x00,0x00,0x00,0x00,0x00,0x00,0x30,0xa7,0x13,0x03,
 0x00,0x00,0x00,0x80,0x01,0x00,0x00,0x00,0xff,0x01,0x00,0x03,0x00,0x08,0xf2,
 0x06,0x40,0x00,0x00,0x64,0x80,0x00,0x20,0x03,0x0f,0x01,0x00,0x00,0x00,0x00,
 0x00,0x00,0x00,0x00,0x00,0x00,0x00,0x00,0x00,0x00,0x00,0x00,0x00,0x00,0x00,
 0x00,0x00,0x00,0x00,0x00,0x00,0x00,0x00,0x10,0x30,0x18,0x02,0x00,0x00,0x00,
 0xc0,0x01,0x7f,0x00,0x80,0xff,0x01,0x80,0x03,0xfe,0x08,0xd6,0x02,0x60,0x00,
 0x00,0xe6,0xc0,0x00,0x30,0x87,0x0d,0x01,0x00,0x00,0x00,0x00,0x00,0x00,0x00,
 0x00,0x00,0x00,0x00,0x00,0x00,0x00,0x00,0x00,0x00,0x00,0x00,0x00,0x00,0x00,
 0x00,0x00,0x00,0x00,0x00,0x10,0x30,0x18,0x02,0x00,0x00,0x00,0xc0,0x40,0x59,
 0x00,0x00,0x00,0x00,0x80,0x81,0xb2,0x08,0xce,0x03,0x60,0x00,0x00,0xc2,0xc0,
 0x00,0x10,0xc6,0x0c,0x01,0x00,0x00,0x00,0x00,0x00,0x00,0x00,0x00,0x00,0x00,
 0x00,0x00,0x00,0x00,0x00,0x00,0x00,0x00,0x00,0x00,0x00,0x00,0x00,0x00,0x00,
 0x00,0x00,0x10,0x18,0x0c,0x02,0x00,0x00,0x00,0xc0,0x40,0x59,0x00,0x00,0x00,
 0x00,0x80,0x81,0xb2,0x08,0xce,0x01,0x60,0x70,0x00,0xc3,0xc1,0x00,0x18,0xce,
 0x04,0x01,0x00,0x00,0x00,0x00,0x00,0x00,0x00,0x00,0x00,0x00,0x00,0x00,0x00,
 0x00,0x00,0x00,0x00,0x00,0x00,0x00,0x00,0x00,0x00,0x00,0x00,0x00,0x00,0x10,
 0x2c,0x16,0x02,0x00,0x00,0x00,0x80,0x61,0x0c,0x00,0x80,0xff,0x01,0x00,0xc3,
 0x18,0x08,0xc6,0x61,0x20,0x78,0x0c,0x81,0x41,0x60,0x08,0xcc,0x06,0x01,0x00,
 0x00,0x00,0x00,0x00,0x00,0x00,0x00,0x00,0x00,0x00,0x00,0x00,0x00,0x00,0x00,
 0x00,0x00,0x00,0x00,0x00,0x00,0x00,0x00,0x00,0x00,0x00,0x10,0x26,0x13,0x02,
 0x00,0x00,0x00,0x80,0x3b,0x0c,0x00,0x00,0x00,0x00,0x00,0x77,0x18,0x18,0xc6,
 0x60,0xfc,0x68,0x8c,0xff,0xfb,0x61,0xfc,0x9f,0x87,0x01,0x00,0x00,0x00,0x00,
 0x00,0x00,0x00,0x00,0x00,0x00,0x00,0x00,0x00,0x00,0x00,0x00,0x00,0x00,0x00,
 0x00,0x00,0x00,0x00,0x00,0x00,0x00,0x00,0x30,0xbf,0x1f,0x03,0x00,0x00,0x00,
 0x00,0x0e,0x0c,0x00,0x00,0x00,0x00,0x00,0x1c,0x18,0x18,0x42,0x40,0x00,0x6c,
 0x08,0x00,0x00,0x40,0x00,0x00,0x86,0x01,0x00,0x00,0x00,0x00,0x00,0x00,0x00,
 0x00,0x00,0x00,0x00,0x00,0x00,0x00,0x00,0x00,0x00,0x00,0x00,0x00,0x00,0x00,
 0x00,0x00,0x00,0x00,0x00,0x30,0x00,0x00,0x03,0x00,0x00,0x00,0x00,0x00,0x1f,
 0x00,0x00,0x00,0x00,0x00,0x00,0x3e,0x10,0x00,0x40,0x00,0x78,0x08,0x00,0x00,
 0x40,0x00,0x00,0x82,0x00,0x00,0x00,0x00,0x00,0x00,0x00,0x00,0x00,0x00,0x00,
 0x00,0x00,0x00,0x00,0x00,0x00,0x00,0x00,0x00,0x00,0x00,0x00,0x00,0x00,0x00,
 0x00,0x00,0x20,0x00,0x00,0x01,0x00,0x00,0x00,0x00,0x00,0x00,0x00,0x00,0x00,
 0x00,0x00,0x00,0x00,0x30,0x00,0x20,0x00,0x00,0x04,0x00,0x00,0x20,0x00,0x80,
 0xc7,0x00,0x00,0x00,0x00,0x00,0x00,0x00,0x00,0x00,0x00,0x00,0x00,0x00,0x00,
 0x00,0x00,0x00,0x00,0x00,0x00,0x00,0x00,0x00,0x00,0x00,0x00,0x00,0x00,0x60,
 0x00,0x80,0x01,0x00,0x00,0x00,0x00,0x00,0x00,0x00,0x00,0x00,0x00,0x00,0x00,
 0x00,0x60,0x00,0x00,0x00,0x00,0x00,0x00,0x00,0x00,0x00,0x00,0x60,0x00,0x00,
 0x00,0x00,0x00,0x00,0x00,0x00,0x00,0x00,0x00,0x00,0x00,0x00,0x00,0x00,0x00,
 0x00,0x00,0x00,0x00,0x00,0x00,0x00,0x00,0x00,0x00,0x00,0xc0,0x00,0xc0,0x00,
 0x00,0x00,0x00,0x00,0x00,0x00,0x00,0x00,0x00,0x00,0x00,0x00,0x00,0x00,0x00,
 0x00,0x00,0x00,0x00,0x00,0x00,0x00,0x00,0x00,0x00,0x00,0x00,0x00,0x00,0x00,
 0x00,0x00,0x00,0x00,0x00,0x00,0x00,0x00,0x00,0x00,0x00,0x00,0x00,0x00,0x00,
 0x00,0x00,0x00,0x00,0x00,0x00,0x00,0x00,0x00,0x00,0x00,0x00,0x00,0x00,0x00,
 0x00,0x00,0x00,0x00,0x00,0x00,0x00,0x00,0x00,0x00,0x00,0x00,0x00,0x00,0x00,
 0x00,0x00,0x00,0x00,0x00,0x00,0x00,0x00,0x00,0x00,0x00,0x00,0x00,0x00,0x00,
 0x00,0x00,0x00,0x00,0x00,0x00,0x00,0x00,0x00,0x00,0x00,0x00,0x00,0x00,0x00,
 0x00,0x00,0x00,0x00,0x00,0x00,0x00,0x00,0x00,0x00,0x00,0x00,0x00,0x00,0x00,
 0x00,0x00,0x00,0x00,0x00,0x00,0x00,0x00,0x00,0x00,0x00,0x00,0x00,0x00,0x00,
 0x00,0x00,0x00,0x00,0x00,0x00,0x00,0x00,0x00,0x00,0x00,0x00,0x00,0x00,0x00,
 0x00,0x00,0x00,0x00,0x00,0x00,0x00,0x00,0x00,0x00,0x00,0x00,0x00,0x00,0x00,
 0x00,0x00,0x00,0x00,0x00,0x00,0x00,0x00,0x00,0x00,0x00,0x00,0x00,0x00,0x00,
 0x00,0x00,0x00,0x00,0x00,0x00,0x00,0x00,0x00,0x00,0x00,0x00,0x00,0x00,0x00,
 0x00,0x00,0x00,0x00,0x00,0x00,0x00,0x00,0x00,0x00,0x00,0x00,0x00,0x00,0x00,
 0x00,0x00,0x00,0x00,0x00,0x00,0x00,0x00,0x00,0x00,0x00,0x00,0x00,0x00,0x00,
 0x00,0x00,0x00,0x00,0x00,0x00,0x00,0x00,0x00,0x00,0x00,0x00,0x00,0x00,0x00,
 0x00,0x00,0x00,0x00,0x00,0x00,0x00,0x00,0x00,0x00,0x00,0x00,0x00,0x00,0x00,
 0x00,0x00,0x00,0x00,0x00,0x00,0x00,0x00,0x00,0x00,0x00,0x00,0x00,0x00,0x00,
 0x00,0x00,0x00,0x00,0x00,0x00,0x00,0x00,0x00,0x00,0x00,0x00,0x00,0x00,0x00,
 0x00,0x00,0x00,0x00,0x00,0x00,0x00,0x00,0x00,0x00,0x00,0x00,0x00,0x00,0x00,
 0x00,0x00,0x00,0x00,0x00,0x00,0x00,0x00,0x00,0x00,0x00,0x00,0x00,0x00,0x00,
 0x00,0x00,0x00,0x00,0x00,0x00,0x00,0x00,0x00,0x00,0x00,0x00,0x00,0x00,0x00,
 0x00,0x00,0x00,0x00,0x00,0x00,0x00,0x00,0x00,0x00,0x00,0x00,0x00,0x00,0x00,
 0x00,0x00,0x00,0x00,0x00,0x00,0x00,0x00,0x00,0x00,0x80,0x00,0x00,0x00,0x00,
 0x00,0x00,0x00,0x00,0x00,0x00,0x20,0x00,0x00,0x00,0x00,0x00,0x00,0x00,0x00,
 0x00,0x00,0x00,0x00,0x00,0x00,0x00,0x00,0x00,0x00,0x00,0x00,0x00,0x00,0x00,
 0x00,0x00,0x00,0x00,0x00,0x80,0x00,0x40,0x00,0x00,0x00,0x00,0x00,0xfc,0x01,
 0x00,0x00,0x00,0x00,0x00,0xf8,0x03,0x40,0xde,0x7b,0xf0,0x1f,0x00,0x20,0xe0,
 0x3f,0x00,0x01,0x40,0x00,0x00,0x00,0x00,0x00,0x00,0x00,0x00,0x00,0x00,0x00,
 0x00,0x00,0x00,0x00,0x00,0x00,0x00,0x00,0x00,0x00,0x00,0x00,0x00,0x00,0x00,
 0x00,0x00,0x40,0x0c,0x8e,0x00,0x00,0x00,0x00,0x00,0xc6,0x01,0x00,0x00,0x00,
 0x00,0x00,0x8c,0x03,0x60,0x84,0x31,0xb0,0x19,0x00,0x70,0x60,0x33,0x80,0x03,
 0xc0,0x00,0x00,0x00,0x00,0x00,0x00,0x00,0x00,0x00,0x00,0x00,0x00,0x00,0x00,
 0x00,0x00,0x00,0x00,0x00,0x00,0x00,0x00,0x00,0x00,0x00,0x00,0x00,0x00,0x60,
 0x36,0x9b,0x01,0x00,0x00,0x00,0x00,0x83,0x00,0x00,0x00,0x00,0x00,0x00,0x06,
 0x01,0x30,0xc4,0x11,0x98,0x11,0x00,0x70,0x30,0x23,0x80,0x03,0x80,0x01,0x00,
 0x00,0x00,0x00,0x00,0x00,0x00,0x00,0x00,0x00,0x00,0x00,0x00,0x00,0x00,0x00,
 0x00,0x00,0x00,0x00,0x00,0x00,0x00,0x00,0x00,0x00,0x00,0x30,0x37,0x1b,0x03,
 0x00,0x00,0x00,0x80,0x81,0x00,0x00,0x00,0x00,0x00,0x00,0x03,0x01,0x30,0xc4,
 0x09,0x88,0x11,0x00,0xf8,0x10,0x23,0xc0,0x07,0x80,0x01,0x00,0x00,0x00,0x00,
 0x00,0x00,0x00,0x00,0x00,0x00,0x00,0x00,0x00,0x00,0x00,0x00,0x00,0x00,0x00,
 0x00,0x00,0x00,0x00,0x00,0x00,0x00,0x00,0x30,0x27,0x1b,0x03,0x00,0x00,0x00,
 0x80,0x01,0x00,0x00,0x00,0xff,0x01,0x00,0x03,0x00,0x10,0xe4,0x0d,0x80,0x00,
 0x00,0xc8,0x00,0x01,0x40,0x06,0x1e,0x01,0x00,0x00,0x00,0x00,0x00,0x00,0x00,
 0x00,0x00,0x00,0x00,0x00,0x00,0x00,0x00,0x00,0x00,0x00,0x00,0x00,0x00,0x00,
 0x00,0x00,0x00,0x00,0x00,0x10,0x30,0x0c,0x02,0x00,0x00,0x00,0xc0,0x01,0xfc,
 0x00,0x80,0xff,0x01,0x80,0x03,0xf8,0x11,0xac,0x05,0xc0,0x00,0x00,0xcc,0x81,
 0x01,0x60,0x0e,0x1b,0x01,0x00,0x00,0x00,0x00,0x00,0x00,0x00,0x00,0x00,0x00,
 0x00,0x00,0x00,0x00,0x00,0x00,0x00,0x00,0x00,0x00,0x00,0x00,0x00,0x00,0x00,
 0x00,0x00,0x10,0x30,0x1e,0x02,0x00,0x00,0x00,0xc0,0x40,0x8c,0x00,0x00,0x00,
 0x00,0x80,0x81,0x18,0x11,0x9c,0x07,0xc0,0x00,0x00,0x84,0x81,0x01,0x20,0x8c,
 0x19,0x01,0x00,0x00,0x00,0x00,0x00,0x00,0x00,0x00,0x00,0x00,0x00,0x00,0x00,
 0x00,0x00,0x00,0x00,0x00,0x00,0x00,0x00,0x00,0x00,0x00,0x00,0x00,0x00,0x10,
 0x18,0x18,0x02,0x00,0x00,0x00,0xc0,0x40,0xac,0x00,0x00,0x00,0x00,0x80,0x81,
 0x58,0x11,0x9c,0x03,0xc0,0xe0,0x00,0x86,0x83,0x01,0x30,0x9c,0x09,0x01,0x00,
 0x00,0x00,0x00,0x00,0x00,0x00,0x00,0x00,0x00,0x00,0x00,0x00,0x00,0x00,0x00,
 0x00,0x00,0x00,0x00,0x00,0x00,0x00,0x00,0x00,0x00,0x00,0x10,0xac,0x1b,0x02,
 0x00,0x00,0x00,0x80,0x61,0x3c,0x00,0x80,0xff,0x01,0x00,0xc3,0x78,0x10,0x8c,
 0xc3,0x40,0xf0,0x18,0x02,0x83,0xc0,0x10,0x98,0x0d,0xc1,0x00,0x00,0x00,0x00,
 0x00,0x00,0x00,0x00,0x00,0x00,0x00,0x00,0x00,0x00,0x00,0x00,0x00,0x00,0x00,
 0x00,0x00,0x00,0x00,0x00,0x00,0x00,0x00,0x10,0xa6,0x1b,0x02,0x00,0x00,0x00,
 0x80,0x3b,0xe4,0x00,0x00,0x00,0x00,0x00,0x77,0xc8,0x31,0x8c,0xc1,0xf8,0xd1,
 0x18,0xff,0xf7,0xc3,0xf8,0x3f,0x8f,0xc1,0x00,0x00,0x00,0x00,0x00,0x00,0x00,
 0x00,0x00,0x00,0x00,0x00,0x00,0x00,0x00,0x00,0x00,0x00,0x00,0x00,0x00,0x00,
 0x00,0x00,0x00,0x00,0x00,0x30,0x3f,0x1b,0x03,0x00,0x00,0x00,0x00,0x0e,0x46,
 0x00,0x00,0x00,0x00,0x00,0x1c,0x8c,0x30,0x84,0x80,0x00,0xd8,0x10,0x00,0x00,
 0x80,0x00,0x00,0x8c,0x01,0x00,0x00,0x00,0x00,0x00,0x00,0x00,0x00,0x00,0x00,
 0x00,0x00,0x00,0x00,0x00,0x00,0x00,0x00,0x00,0x00,0x00,0x00,0x00,0x00,0x00,
 0x00,0x00,0x30,0x00,0x0e,0x03,0x00,0x00,0x00,0x00,0x00,0x7f,0x00,0x00,0x00,
 0x00,0x00,0x00,0xfe,0x20,0x00,0x80,0x00,0xf0,0x10,0x00,0x00,0x80,0x00,0x00,
 0x84,0x00,0x00,0x00,0x00,0x00,0x00,0x00,0x00,0x00,0x00,0x00,0x00,0x00,0x00,
 0x00,0x00,0x00,0x00,0x00,0x00,0x00,0x00,0x00,0x00,0x00,0x00,0x00,0x00,0x20,
 0x00,0x00,0x01,0x00,0x00,0x00,0x00,0x00,0x00,0x00,0x00,0x00,0x00,0x00,0x00,
 0x00,0x60,0x00,0x40,0x00,0x00,0x08,0x00,0x00,0x40,0x00,0x00,0xcf,0x00,0x00,
 0x00,0x00,0x00,0x00,0x00,0x00,0x00,0x00,0x00,0x00,0x00,0x00,0x00,0x00,0x00,
 0x00,0x00,0x00,0x00,0x00,0x00,0x00,0x00,0x00,0x00,0x00,0x60,0x00,0x80,0x01,
 0x00,0x00,0x00,0x00,0x00,0x00,0x00,0x00,0x00,0x00,0x00,0x00,0x00,0xc0,0x00,
 0x00,0x00,0x00,0x00,0x00,0x00,0x00,0x00,0x00,0x60,0x00,0x00,0x00,0x00,0x00,
 0x00,0x00,0x00,0x00,0x00,0x00,0x00,0x00,0x00,0x00,0x00,0x00,0x00,0x00,0x00,
 0x00,0x00,0x00,0x00,0x00,0x00,0x00,0x00,0xc0,0x00,0xc0,0x00};
