#define noname_width 10
#define noname_height 10
static char noname_bits[] = {
 0xff,0x01,0xff,0x01,0x0c,0x01,0x6c,0x01,0x7c,0x00,0x7c,0x00,0x6c,0x02,0x0c,
 0x03,0x0c,0x03,0xff,0x01};
