#define noname_width 41
#define noname_height 10
static char noname_bits[] = {
 0x84,0x03,0x00,0x00,0xe1,0x00,0x87,0x02,0x00,0xc0,0xa1,0x00,0xc4,0x06,0x00,
 0x00,0xb1,0x01,0xc4,0x06,0xc2,0x00,0xb1,0x01,0x84,0x03,0x66,0x00,0xe1,0x00,
 0x04,0x00,0x3c,0x00,0x01,0x00,0x04,0x00,0x18,0x00,0x01,0x00,0x04,0x00,0x3c,
 0x00,0x01,0x00,0x04,0x00,0x66,0x00,0x01,0x00,0x1f,0x00,0xc2,0xc0,0x07,0x00};
