#define noname_width 14
#define noname_height 13
static char noname_bits[] = {
 0x00,0x08,0x00,0x3e,0x00,0x1c,0x00,0x3e,0x7f,0x08,0xc6,0x00,0xc6,0x00,0xc6,
 0x00,0xc6,0x00,0x7e,0x00,0x06,0x00,0x06,0x00,0x0f,0x00};
