#define noname_width 27
#define noname_height 15
static char noname_bits[] = {
 0x00,0x40,0x80,0x00,0xf8,0x21,0x00,0x01,0x30,0x33,0x00,0x03,0x18,0x1b,0x00,
 0x06,0x18,0x1b,0x00,0x06,0x98,0x0b,0x6e,0x04,0xf8,0x08,0x6f,0x04,0x8c,0x08,
 0x66,0x04,0x8c,0x08,0x26,0x04,0xcc,0x0c,0x36,0x04,0xdf,0x1b,0x3e,0x06,0x80,
 0x1b,0x32,0x06,0x00,0x10,0x1b,0x02,0x00,0x30,0x0e,0x03,0x00,0x60,0x80,0x01};
