#define noname_width 25
#define noname_height 15
static char noname_bits[] = {
 0x08,0x00,0x20,0x00,0x84,0x00,0x58,0x00,0xc6,0x00,0xd8,0x00,0x03,0x00,0x80,
 0x01,0x03,0x00,0x80,0x01,0xe1,0x00,0x0e,0x01,0xf1,0x00,0x0f,0x01,0x61,0x00,
 0x0c,0x01,0x61,0x00,0x0c,0x01,0xe1,0x0c,0x04,0x01,0xe3,0x0c,0x86,0x01,0x03,
 0x08,0x86,0x01,0x02,0x88,0x87,0x00,0x06,0x84,0xc3,0x00,0x0c,0x00,0x60,0x00};
