#define noname_width 55
#define noname_height 11
static char noname_bits[] = {
 0x00,0x00,0x00,0x00,0x00,0x03,0x64,0x00,0x00,0x00,0x00,0x80,0x0d,0x3c,0x00,
 0x00,0x00,0x00,0x80,0x0c,0x04,0x00,0x00,0x00,0x00,0xc0,0x08,0x04,0xbc,0xc0,
 0x7f,0x00,0xc0,0x08,0x3c,0xa6,0xe0,0x7f,0x00,0xc0,0x08,0x64,0xe3,0x00,0x00,
 0xf0,0xdf,0x08,0x60,0x63,0x00,0x00,0x00,0xc0,0x08,0x66,0x63,0xe0,0x7f,0x00,
 0x80,0xcc,0x66,0xfe,0x00,0x00,0x00,0x80,0xcd,0x7c,0x00,0x00,0x00,0x00,0x00,
 0x07,0x18};
