#define noname_width 16
#define noname_height 17
static char noname_bits[] = {
 0xff,0xff,0x00,0x00,0x10,0x04,0x08,0x08,0x0c,0x18,0x06,0x30,0x06,0x30,0x02,
 0x20,0x02,0x20,0x02,0x20,0x02,0x20,0x02,0x20,0x06,0x30,0x06,0x30,0x04,0x10,
 0x0c,0x18,0x18,0x0c};
