#define noname_width 7
#define noname_height 6
static char noname_bits[] = {
 0x3c,0x36,0x33,0x33,0x53,0x7e};
