#define noname_width 11
#define noname_height 11
static char noname_bits[] = {
 0xf8,0x01,0x30,0x03,0x18,0x03,0x18,0x03,0x98,0x03,0xf8,0x00,0x8c,0x00,0x8c,
 0x00,0xcc,0x04,0xdf,0x03,0x80,0x03};
