#define noname_width 18
#define noname_height 14
static char noname_bits[] = {
 0x80,0x00,0x00,0xc0,0x00,0x00,0xe0,0x00,0x00,0xa0,0x00,0x00,0xb0,0x00,0x00,
 0x90,0x30,0x02,0xf8,0x31,0x02,0x8c,0x19,0x01,0x84,0xb9,0x03,0xcf,0x9b,0x01,
 0x00,0x90,0x03,0x00,0x98,0x03,0x00,0x1c,0x00,0x00,0x0e,0x00};
