#define noname_width 34
#define noname_height 20
static char noname_bits[] = {
 0x00,0x00,0x18,0x06,0x00,0x00,0x00,0x10,0x00,0x00,0x00,0x00,0x77,0xf6,0x00,
 0xff,0xff,0xf7,0xe4,0x01,0x00,0x80,0x97,0x24,0x03,0x10,0x84,0x96,0x24,0x03,
 0x08,0x88,0xff,0xef,0x01,0x0c,0x18,0x00,0x20,0x00,0x06,0x30,0x00,0x70,0x00,
 0x06,0x30,0x00,0x00,0x00,0x02,0x20,0x00,0x00,0x00,0x02,0x20,0x00,0x00,0x00,
 0x02,0x20,0x00,0x00,0x00,0x02,0x20,0x00,0x00,0x00,0x02,0x20,0x00,0x00,0x00,
 0x06,0x30,0x00,0x00,0x00,0x06,0x30,0x00,0x00,0x00,0x04,0x10,0x00,0x00,0x00,
 0x0c,0x18,0x00,0x00,0x00,0x18,0x0c,0x00,0x00,0x00};
