#define noname_width 15
#define noname_height 6
static char noname_bits[] = {
 0x6e,0x3c,0x6f,0x36,0x66,0x33,0x26,0x33,0x76,0x53,0x7e,0x7e};
