#define noname_width 16
#define noname_height 12
static char noname_bits[] = {
 0xef,0x3d,0xc2,0x18,0xe2,0x08,0xe2,0x04,0xf2,0x06,0xd6,0x02,0xce,0x43,0xce,
 0xf1,0xc6,0x61,0xc6,0x20,0x42,0x60,0x00,0x60};
