#define noname_width 16
#define noname_height 10
static char noname_bits[] = {
 0xf8,0x21,0x30,0xfb,0x18,0x73,0x18,0xfb,0x98,0x23,0xf8,0x01,0x0c,0x00,0x0c,
 0x00,0x0c,0x00,0x1f,0x00};
