#define noname_width 10
#define noname_height 10
static char noname_bits[] = {
 0x20,0x00,0x20,0x00,0x20,0x00,0x20,0x00,0xff,0x03,0x20,0x00,0x20,0x00,0x20,
 0x00,0xff,0x03,0xff,0x03};
