#define noname_width 13
#define noname_height 9
static char noname_bits[] = {
 0x2e,0x1e,0x2f,0x1b,0xa6,0x19,0xa6,0x09,0xb6,0x0d,0x1e,0x0f,0x00,0x0c,0x00,
 0x04,0x00,0x0f};
