#define noname_width 7
#define noname_height 9
static char noname_bits[] = {
 0x6e,0x6f,0x66,0x26,0x36,0x3e,0x32,0x1b,0x0e};
