#define noname_width 450
#define noname_height 16
static char noname_bits[] = {
 0x00,0x00,0x00,0x00,0x00,0x00,0x00,0x00,0x01,0x00,0x00,0x00,0xfc,0x01,0x00,
 0x00,0x02,0x00,0x00,0x10,0x00,0xf0,0x07,0x00,0x00,0x08,0x00,0x00,0x00,0x00,
 0x00,0x00,0x00,0x00,0x00,0x00,0x00,0x00,0x00,0x00,0x00,0x00,0x00,0x00,0x00,
 0x00,0x00,0x00,0x00,0x00,0x00,0x00,0x00,0x00,0x00,0x00,0x00,0x00,0x00,0x00,
 0x00,0x00,0x00,0x00,0x80,0x01,0x00,0x00,0x00,0x64,0x01,0x00,0x00,0x03,0x00,
 0x00,0x18,0x00,0x90,0x05,0x00,0x00,0x0c,0x00,0x00,0x00,0x00,0x00,0x00,0x00,
 0x00,0x00,0x00,0x00,0x00,0x00,0x00,0x00,0x00,0x00,0x00,0x00,0x00,0x00,0x00,
 0x00,0x00,0x00,0x00,0x00,0x80,0x00,0x40,0x00,0x00,0x70,0x00,0x00,0x00,0xf8,
 0x0f,0x00,0x01,0x00,0x00,0x18,0x64,0xfd,0x03,0x00,0x02,0x0c,0x00,0x10,0x60,
 0x90,0xe5,0x1f,0x00,0x08,0x78,0x04,0x00,0x00,0x00,0x00,0x00,0x00,0x00,0x00,
 0x00,0x00,0x00,0x00,0x00,0x00,0x00,0x00,0x00,0x00,0x00,0x00,0x00,0x00,0x00,
 0x00,0x00,0x40,0x32,0x8e,0x00,0x00,0x58,0x00,0x00,0x00,0xf8,0x0f,0x00,0x01,
 0x00,0x00,0x18,0x30,0xfc,0x07,0x00,0x02,0x0c,0x00,0x10,0x60,0xc0,0xe0,0x3f,
 0x00,0x08,0x70,0x1f,0x00,0x00,0x00,0x00,0x00,0x00,0x00,0x00,0x00,0x00,0x00,
 0x00,0x00,0x00,0x00,0x00,0x00,0x00,0x00,0x00,0x00,0x00,0x00,0x00,0x00,0x60,
 0x1e,0x9b,0x01,0x00,0x18,0x00,0x00,0x00,0x60,0x88,0x1f,0x01,0x20,0x00,0x1c,
 0x30,0x30,0x8e,0x1f,0x02,0x0e,0xfc,0x10,0x70,0xc0,0x80,0x71,0xfc,0x08,0x70,
 0x0e,0x00,0x00,0x00,0x00,0x00,0x00,0x00,0x00,0x00,0x00,0x00,0x00,0x00,0x00,
 0x00,0x00,0x00,0x00,0x00,0x00,0x00,0x00,0x00,0x00,0x00,0x30,0x02,0x1b,0x03,
 0x00,0x38,0x00,0x00,0x00,0x60,0x0b,0x00,0x01,0x20,0x00,0x3c,0x30,0x30,0x0e,
 0x00,0x02,0x1e,0x00,0x10,0xf0,0xc0,0x80,0x71,0x00,0x08,0x70,0x1f,0x00,0x00,
 0x00,0x00,0x00,0x00,0x00,0x00,0x00,0x00,0x00,0x00,0x00,0x00,0x00,0x00,0x00,
 0x00,0x00,0x00,0x00,0x00,0x00,0x00,0x00,0x30,0x02,0x1b,0x03,0x00,0x38,0x7f,
 0xc0,0x7f,0xe0,0x03,0x80,0x07,0x20,0x00,0x3e,0x7c,0x30,0x0f,0x00,0x0f,0x1f,
 0x00,0x78,0xf8,0xf0,0x81,0x79,0x00,0x3c,0x7f,0x04,0x00,0x00,0x00,0x00,0x00,
 0x00,0x00,0x00,0x00,0x00,0x00,0x00,0x00,0x00,0x00,0x00,0x00,0x00,0x00,0x00,
 0x00,0x00,0x00,0x00,0x00,0x10,0x1e,0x0c,0x02,0x00,0x6c,0xc6,0xe0,0x7f,0xe0,
 0x03,0x00,0x00,0x20,0x00,0x76,0x00,0xf0,0x07,0x00,0x00,0x3b,0x00,0x00,0xd8,
 0x01,0x80,0x3f,0x00,0x00,0x73,0x00,0x00,0x00,0x00,0x00,0x00,0x00,0x00,0x00,
 0x00,0x00,0x00,0x00,0x00,0x00,0x00,0x00,0x00,0x00,0x00,0x00,0x00,0x00,0x00,
 0x00,0x00,0x10,0x32,0x1e,0x02,0x00,0x66,0xc6,0x00,0x00,0x60,0x13,0x00,0x00,
 0xff,0x03,0x7e,0x00,0x30,0x07,0x00,0x00,0x3f,0x00,0x00,0xf8,0x01,0x80,0x39,
 0x00,0x80,0x73,0x00,0x00,0x00,0x00,0x00,0x00,0x00,0x00,0x00,0x00,0x00,0x00,
 0x00,0x00,0x00,0x00,0x00,0x00,0x00,0x00,0x00,0x00,0x00,0x00,0x00,0x00,0x10,
 0x30,0x18,0x02,0x00,0x26,0xc6,0x00,0x00,0x60,0x18,0x00,0x00,0x20,0x00,0x7f,
 0x00,0x30,0x06,0x00,0x80,0x3f,0x00,0x00,0xfc,0x01,0x80,0x31,0x00,0x80,0x73,
 0x00,0x00,0x00,0x00,0x00,0x00,0x00,0x00,0x00,0x00,0x00,0x00,0x00,0x00,0x00,
 0x00,0x00,0x00,0x00,0x00,0x00,0x00,0x00,0x00,0x00,0x00,0x10,0xb3,0x1b,0x02,
 0x00,0x26,0xc6,0xe0,0x7f,0x60,0x18,0x00,0x00,0x20,0x00,0xe1,0x00,0x30,0x26,
 0x00,0x80,0x70,0x00,0x00,0x84,0x03,0x80,0x31,0x01,0x00,0x73,0x00,0x0c,0x00,
 0x00,0x00,0x00,0x00,0x00,0x00,0x00,0x00,0x00,0x00,0x00,0x00,0x00,0x00,0x00,
 0x00,0x00,0x00,0x00,0x00,0x00,0x00,0x00,0x10,0xb3,0x1b,0x02,0x00,0x1c,0x7e,
 0x00,0x00,0xf8,0x0f,0x00,0x00,0x20,0xc0,0xf3,0x01,0xfc,0x3e,0x00,0xe0,0xf9,
 0x00,0x00,0xcf,0x07,0xe0,0xf7,0x01,0x00,0xff,0x00,0x0c,0x00,0x00,0x00,0x00,
 0x00,0x00,0x00,0x00,0x00,0x00,0x00,0x00,0x00,0x00,0x00,0x00,0x00,0x00,0x00,
 0x00,0x00,0x00,0x00,0x00,0x30,0x3e,0x1b,0x03,0x00,0x00,0x06,0x00,0x00,0x00,
 0x00,0x00,0x00,0x20,0x00,0x00,0x00,0x00,0x00,0x00,0x00,0x00,0x00,0x00,0x00,
 0x00,0x00,0x00,0x00,0x00,0x00,0x00,0x00,0x00,0x00,0x00,0x00,0x00,0x00,0x00,
 0x00,0x00,0x00,0x00,0x00,0x00,0x00,0x00,0x00,0x00,0x00,0x00,0x00,0x00,0x00,
 0x00,0x00,0x30,0x0c,0x0e,0x03,0x00,0x00,0x06,0x00,0x00,0x00,0x00,0x00,0x00,
 0x20,0x00,0x00,0x00,0x00,0x00,0x00,0x00,0x00,0x00,0x00,0x00,0x00,0x00,0x00,
 0x00,0x00,0x00,0x00,0x00,0x00,0x00,0x00,0x00,0x00,0x00,0x00,0x00,0x00,0x00,
 0x00,0x00,0x00,0x00,0x00,0x00,0x00,0x00,0x00,0x00,0x00,0x00,0x00,0x00,0x20,
 0x00,0x00,0x01,0x00,0x00,0x0f,0x00,0x00,0x00,0x00,0x00,0x00,0x00,0x00,0x00,
 0x00,0x00,0x00,0x00,0x00,0x00,0x00,0x00,0x00,0x00,0x00,0x00,0x00,0x00,0x00,
 0x00,0x00,0x00,0x00,0x00,0x00,0x00,0x00,0x00,0x00,0x00,0x00,0x00,0x00,0x00,
 0x00,0x00,0x00,0x00,0x00,0x00,0x00,0x00,0x00,0x00,0x00,0x60,0x00,0x80,0x01,
 0x00,0x00,0x00,0x00,0x00,0x00,0x00,0x00,0x00,0x00,0x00,0x00,0x00,0x00,0x00,
 0x00,0x00,0x00,0x00,0x00,0x00,0x00,0x00,0x00,0x00,0x00,0x00,0x00,0x00,0x00,
 0x00,0x00,0x00,0x00,0x00,0x00,0x00,0x00,0x00,0x00,0x00,0x00,0x00,0x00,0x00,
 0x00,0x00,0x00,0x00,0x00,0x00,0x00,0x00,0xc0,0x00,0xc0,0x00};
