#define noname_width 20
#define noname_height 12
static char noname_bits[] = {
 0x00,0xff,0x01,0x00,0x9b,0x01,0x80,0x19,0x01,0x80,0x18,0x01,0x2e,0x08,0x00,
 0x2f,0x0c,0x00,0x26,0x0c,0x00,0x26,0x0c,0x0e,0x36,0x04,0x0f,0x9e,0x1f,0x0d,
 0x00,0x80,0x0d,0x00,0x00,0x0f};
