#define noname_width 152
#define noname_height 19
static char noname_bits[] = {
 0x00,0x00,0x00,0x00,0x80,0x00,0x00,0x00,0x00,0x00,0x00,0x00,0x00,0x00,0x00,
 0x00,0x00,0x00,0x00,0x00,0x00,0x00,0x00,0xc0,0x01,0x00,0x00,0x00,0x00,0x00,
 0x00,0x00,0x00,0x00,0x00,0x00,0x00,0x00,0x00,0x00,0x00,0x00,0x20,0x01,0x00,
 0x00,0x00,0x00,0x00,0x00,0x00,0x00,0x00,0x00,0x00,0x00,0x00,0x00,0x00,0x00,
 0x00,0x00,0x00,0x40,0x00,0x10,0x00,0x00,0x00,0x00,0x00,0x02,0x00,0x00,0x00,
 0x10,0x60,0x02,0x00,0x00,0x1c,0x04,0x20,0x00,0x20,0x00,0x00,0x70,0x10,0x00,
 0x01,0x00,0x00,0x00,0x21,0xe0,0x0f,0x00,0x00,0x1e,0x06,0x30,0x00,0x60,0x00,
 0x00,0x78,0x18,0x80,0x01,0x00,0x00,0xc0,0x67,0x60,0x07,0x00,0x00,0x1b,0x03,
 0x18,0x00,0xc0,0x00,0x00,0x6c,0x0c,0xc0,0x00,0x00,0x00,0x80,0xc3,0xe0,0x0f,
 0x00,0x00,0x19,0x03,0x18,0x00,0xc0,0x00,0x00,0x64,0x0c,0xc0,0x00,0x00,0x00,
 0xc0,0xc7,0x3c,0x02,0xfc,0x07,0xf8,0x03,0x08,0x37,0x80,0x00,0x00,0xe0,0x0f,
 0x40,0xb8,0x01,0xe0,0x0f,0x81,0x36,0x00,0xfe,0x07,0xf8,0x01,0x88,0x37,0x83,
 0x00,0x00,0xe0,0x07,0x40,0xbc,0x19,0xc0,0x18,0x80,0x33,0x06,0x00,0x00,0x8c,
 0x01,0x08,0x33,0x83,0xc0,0x7f,0x30,0x06,0x40,0x98,0x19,0xc0,0x18,0x80,0x33,
 0x06,0x00,0x00,0x8c,0x91,0x08,0x93,0x81,0x00,0x00,0x30,0x86,0x44,0x98,0x0c,
 0xc0,0x18,0x80,0x53,0x03,0xfe,0x07,0x8c,0xf9,0x08,0x9b,0x83,0x00,0x00,0x30,
 0xc6,0x47,0xd8,0x1c,0xc3,0x18,0x80,0x7e,0x07,0x00,0x00,0x86,0xdf,0x18,0x9f,
 0xc1,0x00,0x00,0x18,0xde,0xc6,0xf8,0x0c,0xc3,0x0f,0xc0,0x00,0x03,0x00,0x00,
 0x82,0x53,0x18,0x19,0xc1,0x00,0x00,0x08,0x8e,0xc2,0xc8,0x08,0xc2,0x00,0xc0,
 0x00,0x02,0x00,0x00,0x00,0x70,0x90,0x8d,0x41,0x00,0x00,0x00,0x80,0x83,0x6c,
 0x0c,0xc2,0x00,0x40,0x00,0x03,0x00,0x00,0x00,0x78,0x30,0xc7,0x61,0x00,0x00,
 0x00,0xc0,0x83,0x39,0x0e,0xe1,0x01,0x60,0x80,0x03,0x00,0x00,0x00,0x38,0x60,
 0xe0,0x30,0x00,0x00,0x00,0xc0,0x01,0x03,0x07,0x00,0x00,0x30,0xc0,0x01,0x00,
 0x00,0x00,0x00,0x00,0x00,0x00,0x00,0x00,0x00,0x00,0x00,0x00,0x00,0x00,0x00,
 0x00};
