#define noname_width 10
#define noname_height 3
static char noname_bits[] = {
 0x1e,0x02,0x77,0x03,0xe1,0x01};
