#define noname_width 18
#define noname_height 12
static char noname_bits[] = {
 0xf0,0x07,0x00,0x18,0x07,0x00,0x0c,0x02,0x00,0x06,0x02,0x00,0x06,0x00,0x00,
 0x07,0xf0,0x01,0x03,0x31,0x03,0x03,0x31,0x02,0x86,0x31,0x03,0xee,0x10,0x03,
 0x38,0x98,0x01,0x00,0xfc,0x01};
