#define noname_width 7
#define noname_height 6
static char noname_bits[] = {
 0x6e,0x6f,0x66,0x26,0x76,0x7e};
