#define noname_width 16
#define noname_height 9
static char noname_bits[] = {
 0xfc,0x00,0xde,0x7c,0xcc,0xcc,0xcc,0xcc,0x6c,0x7c,0x3c,0x04,0x06,0x06,0x06,
 0x0f,0x0f,0x00};
