#define noname_width 14
#define noname_height 6
static char noname_bits[] = {
 0x2e,0x1e,0x2f,0x1b,0xa6,0x19,0xa6,0x19,0xb6,0x29,0x1e,0x3f};
