#define noname_width 123
#define noname_height 16
static char noname_bits[] = {
 0x00,0x00,0x00,0x00,0x00,0x00,0x00,0x00,0x00,0x00,0x00,0x07,0x00,0x00,0x1c,
 0x00,0x00,0x00,0x00,0x00,0x00,0x00,0x00,0x20,0x00,0x00,0x80,0x0d,0x00,0x00,
 0xb6,0x00,0xef,0x3d,0x00,0x00,0x00,0x00,0x00,0x10,0x00,0x20,0x80,0x0d,0x3f,
 0x00,0x36,0x01,0xc2,0x18,0x00,0x00,0x00,0x00,0x00,0x18,0x00,0x30,0x00,0x0c,
 0x66,0x00,0x30,0x03,0xe2,0x08,0x00,0x00,0x00,0x00,0x00,0x0c,0x00,0x30,0x00,
 0x06,0x63,0x7e,0x18,0x06,0xe2,0x04,0x00,0x00,0x00,0x00,0x00,0x0c,0x00,0x38,
 0x00,0x0b,0x63,0x00,0x2c,0x06,0xf2,0x06,0x80,0xff,0xe0,0xdd,0xfd,0x04,0x00,
 0x2c,0xbe,0x0f,0x73,0x00,0x3e,0x04,0xd6,0x02,0xc0,0xff,0x30,0x7b,0x98,0x05,
 0x00,0x24,0x3f,0x00,0x1f,0x00,0x00,0x04,0xce,0x03,0x00,0x00,0xf0,0x73,0x98,
 0x05,0xff,0x27,0x06,0x80,0x11,0x00,0x00,0x04,0xce,0xc1,0x00,0x00,0x30,0x70,
 0x98,0x05,0x00,0xfe,0x06,0x80,0x11,0x00,0x00,0x04,0xc6,0xe1,0xc0,0xff,0x30,
 0xda,0x98,0x05,0x00,0x20,0x06,0x80,0x99,0x00,0x00,0x04,0xc6,0xe0,0x00,0x00,
 0xe0,0xdd,0xf9,0x0c,0x00,0xf8,0x06,0xe0,0x7b,0x00,0x00,0x06,0x42,0xf0,0x00,
 0x00,0x00,0x00,0x18,0x0c,0x00,0x00,0x00,0x00,0x70,0x00,0x00,0x06,0x00,0xf0,
 0x00,0x00,0x00,0x00,0x18,0x08,0x00,0x00,0x00,0x00,0x00,0x00,0x00,0x02,0x00,
 0x00,0x00,0x00,0x00,0x00,0x3c,0x18,0x00,0x00,0x00,0x00,0x00,0x00,0x00,0x03,
 0x00,0x00,0x00,0x00,0x00,0x00,0x00,0x30,0x00,0x00,0x00,0x00,0x00,0x00,0x80,
 0x01};
