#define noname_width 217
#define noname_height 17
static char noname_bits[] = {
 0x00,0x00,0x00,0x00,0x00,0x00,0x00,0x00,0x00,0x00,0x00,0x00,0x00,0x00,0x00,
 0x00,0x00,0x00,0x00,0x00,0x00,0x00,0x00,0xf0,0xff,0xff,0xff,0x01,0x00,0x00,
 0x00,0x00,0x00,0x00,0x00,0x00,0x00,0x00,0x00,0x00,0x00,0x00,0x00,0x00,0x00,
 0x00,0x00,0x00,0x00,0x00,0x00,0x30,0x00,0x00,0x00,0x00,0x00,0x00,0x00,0x00,
 0x00,0x00,0x00,0x00,0x00,0x00,0x00,0x00,0x00,0x00,0x00,0x00,0x00,0x00,0x00,
 0x00,0x00,0x00,0x00,0x18,0x00,0x00,0x00,0x00,0xef,0x3d,0x00,0x00,0x00,0x00,
 0xc0,0x00,0x01,0x47,0xc0,0xf0,0xde,0x03,0x00,0x00,0x00,0x0c,0x60,0xc8,0x20,
 0x02,0x00,0xf8,0xbd,0x07,0x00,0x00,0xc2,0x18,0x00,0x00,0x00,0x00,0x60,0x03,
 0xbf,0xcd,0x6f,0x23,0x8c,0x01,0x00,0x00,0x00,0x36,0xb0,0x79,0x30,0x7e,0x00,
 0x4c,0x18,0x03,0x00,0x00,0xe2,0x08,0x00,0x00,0x00,0x00,0x20,0x83,0x91,0x68,
 0x24,0x23,0x8e,0x00,0x00,0x80,0x00,0x32,0x98,0x09,0x30,0x23,0x00,0x4c,0x1c,
 0x01,0x00,0x00,0xe2,0x04,0x00,0x00,0x00,0x00,0x30,0x82,0x88,0x2d,0x32,0x22,
 0x4e,0x00,0x00,0x80,0x00,0x23,0x18,0x09,0x38,0x11,0x00,0x46,0x9c,0x00,0x00,
 0x00,0xf2,0x06,0x00,0x00,0xc0,0x7f,0x30,0x02,0x8c,0x07,0x33,0x22,0x6f,0x00,
 0x00,0x80,0x00,0x23,0x18,0x79,0x2c,0x18,0x00,0x46,0xde,0x00,0x00,0x00,0xd6,
 0x02,0x00,0x00,0xe0,0x7f,0x30,0x02,0x84,0x0f,0x31,0x62,0x2d,0xc0,0x70,0x80,
 0x00,0x23,0x90,0xc9,0x24,0x08,0x04,0xc3,0x5a,0x00,0xe3,0x00,0xce,0x03,0x00,
 0x00,0x00,0x00,0x30,0x02,0x86,0x8e,0x31,0xe2,0x3c,0xc0,0x20,0xfc,0x0f,0x23,
 0xf0,0xc1,0x26,0x0c,0x07,0xc3,0x79,0x00,0x43,0x00,0xce,0xa1,0x61,0xa4,0x00,
 0x00,0x30,0x02,0xc6,0x88,0x31,0xe2,0x1c,0xcc,0x38,0x80,0x00,0x23,0x80,0xcd,
 0xfe,0x0c,0x8f,0xc1,0x39,0x18,0x73,0x00,0xc6,0x71,0xf1,0xbe,0xe0,0x7f,0x20,
 0x33,0xc6,0x88,0x21,0x63,0x1c,0x5e,0x3c,0x80,0x00,0x32,0xb3,0xcd,0x20,0x0c,
 0x8c,0xc1,0x38,0x3c,0x79,0x00,0xc6,0x30,0x71,0xb6,0x00,0x00,0x60,0x33,0x86,
 0x8d,0x61,0x63,0x0c,0x52,0x34,0x80,0x00,0x36,0xd3,0xf8,0xf8,0x0c,0xdc,0xc0,
 0x18,0x24,0x69,0x00,0x42,0xa0,0x9b,0xd4,0x00,0x00,0xc0,0x01,0x06,0x87,0xc1,
 0x21,0x04,0x7b,0x36,0x80,0x00,0x1c,0x60,0x30,0x00,0x0c,0xd8,0x40,0x08,0xb6,
 0x6d,0x00,0x00,0xb0,0x73,0x7c,0x00,0x00,0x00,0x00,0x00,0x00,0x00,0x00,0x00,
 0x6e,0x3c,0x80,0x00,0x00,0x00,0x00,0x00,0x00,0x78,0x00,0x00,0x9c,0x79,0x00,
 0x00,0x00,0x00,0x00,0x00,0x00,0x00,0x00,0x00,0x00,0x00,0x00,0x00,0x00,0x00,
 0x00,0x00,0x00,0x00,0x00,0x00,0x00,0x70,0x00,0x00,0x00,0x00,0x00,0x00,0x00,
 0x00,0x00,0x00,0x00,0x00,0x00,0x00,0x00,0x00,0x00,0x00,0x00,0x00,0x00,0x00,
 0x00,0x00,0x00,0x00,0x00,0x30,0x00,0x00,0x00,0x00,0x00};
