#define noname_width 24
#define noname_height 12
static char noname_bits[] = {
 0x80,0x01,0x00,0x80,0x01,0x00,0xc0,0x01,0x00,0xc0,0x01,0x00,0xe0,0x01,0x00,
 0xa0,0xf9,0x03,0xb0,0xc9,0x02,0xf8,0xcb,0x72,0x0d,0x63,0xf8,0x07,0x67,0x18,
 0x07,0x63,0x10,0x00,0xf8,0x18};
