#define noname_width 450
#define noname_height 15
static char noname_bits[] = {
 0x00,0x00,0x00,0x00,0x00,0x00,0x00,0x00,0x00,0x00,0x00,0x00,0x00,0x00,0x00,
 0x00,0x00,0x00,0x00,0x00,0x00,0x00,0x00,0x00,0x00,0x00,0x00,0x00,0x00,0x00,
 0x00,0x00,0x00,0x00,0x00,0x00,0x00,0x00,0x00,0x00,0x00,0x00,0x00,0x00,0x00,
 0x00,0x00,0x00,0x00,0x00,0x00,0x00,0x00,0x80,0x00,0x40,0x00,0x00,0x00,0x00,
 0x00,0x00,0x00,0xc0,0x0f,0x00,0x00,0x00,0x00,0x00,0xc0,0x0f,0x00,0x00,0x00,
 0x00,0xfc,0x00,0x00,0x00,0x00,0x00,0x00,0x00,0x00,0x00,0x00,0x00,0x00,0x00,
 0x00,0x00,0x00,0x00,0x00,0x00,0x00,0x00,0x00,0x00,0x00,0x00,0x00,0x00,0x00,
 0x00,0x00,0x00,0x00,0x00,0x40,0x0c,0x8e,0x00,0x00,0x00,0x00,0x00,0x00,0x00,
 0x80,0x19,0x00,0x00,0x00,0x00,0x00,0x80,0x19,0x00,0x00,0x00,0x00,0x98,0x01,
 0x00,0x00,0x00,0x00,0x00,0x00,0x00,0x00,0x00,0x00,0x00,0x00,0x00,0x00,0x00,
 0x00,0x00,0x00,0x00,0x00,0x00,0x00,0x00,0x00,0x00,0x00,0x00,0x00,0x00,0x00,
 0x00,0x00,0x60,0x36,0x9b,0x01,0x00,0x00,0x00,0x00,0x00,0x00,0xc0,0x18,0x00,
 0x00,0x00,0x00,0x00,0xc0,0x18,0x00,0x00,0x40,0x00,0x8c,0x01,0x00,0x00,0x00,
 0x00,0x00,0x00,0x00,0x00,0x00,0x00,0x00,0x00,0x00,0x00,0x00,0x00,0x00,0x00,
 0x00,0x00,0x00,0x00,0x00,0x00,0x00,0x00,0x00,0x00,0x00,0x00,0x00,0x00,0x30,
 0x37,0x11,0x03,0x00,0x00,0x00,0x00,0x00,0x00,0xc0,0x18,0x00,0x00,0x00,0x00,
 0x00,0xc0,0x18,0x00,0x00,0x40,0x00,0x8c,0x01,0x00,0x00,0x00,0x00,0x00,0x00,
 0x00,0x00,0x00,0x00,0x00,0x00,0x00,0x00,0x00,0x00,0x00,0x00,0x00,0x00,0x00,
 0x00,0x00,0x00,0x00,0x00,0x00,0x00,0x00,0x00,0x00,0x00,0x30,0x27,0x1b,0x03,
 0x00,0x00,0x00,0x00,0x00,0x00,0xc0,0x1c,0x00,0x00,0x00,0xc0,0x7f,0xc0,0x1c,
 0x00,0x00,0x40,0x00,0xcc,0x01,0x00,0x00,0x00,0x00,0x00,0x00,0x00,0x00,0x00,
 0x00,0x00,0x00,0x00,0x00,0x00,0x00,0x00,0x00,0x00,0x00,0x00,0x00,0x00,0x00,
 0x00,0x00,0x00,0x00,0x00,0x00,0x00,0x00,0x10,0x30,0x0f,0x02,0x00,0x00,0x00,
 0x00,0x00,0x00,0xc0,0x07,0x30,0x00,0x00,0xe0,0x7f,0xc0,0x07,0x6e,0x00,0x40,
 0x00,0x7c,0xe0,0xc6,0x0f,0x00,0x00,0x00,0x00,0x00,0x00,0x00,0x00,0x00,0x00,
 0x00,0x00,0x00,0x00,0x00,0x00,0x00,0x00,0x00,0x00,0x00,0x00,0x00,0x00,0x00,
 0x00,0x00,0x00,0x00,0x00,0x10,0x30,0x1f,0x02,0x00,0x00,0x00,0x00,0x00,0x00,
 0x60,0x04,0x20,0x00,0x00,0x00,0x00,0x60,0x04,0x6c,0x00,0xfe,0x07,0x46,0xc0,
 0xe6,0x0f,0x00,0x00,0x00,0x00,0x00,0x00,0x00,0x00,0x00,0x00,0x00,0x00,0x00,
 0x00,0x00,0x00,0x00,0x00,0x00,0x00,0x00,0x00,0x00,0x00,0x00,0x00,0x00,0x00,
 0x00,0x00,0x10,0x18,0x1d,0x02,0x00,0x00,0x00,0x00,0x00,0x00,0x60,0x04,0x20,
 0x00,0x00,0x00,0x00,0x60,0x04,0x0c,0x00,0x40,0x00,0x46,0xc0,0x60,0x03,0x00,
 0x00,0x00,0x00,0x00,0x00,0x00,0x00,0x00,0x00,0x00,0x00,0x00,0x00,0x00,0x00,
 0x00,0x00,0x00,0x00,0x00,0x00,0x00,0x00,0x00,0x00,0x00,0x00,0x00,0x00,0x10,
 0xac,0x11,0x02,0x00,0x00,0x00,0x00,0x00,0x00,0x60,0x26,0x27,0xc6,0x79,0xe0,
 0x7f,0x60,0xa6,0x6f,0x0f,0x40,0x00,0x66,0xfa,0xf6,0x07,0x03,0x00,0x00,0x00,
 0x00,0x00,0x00,0x00,0x00,0x00,0x00,0x00,0x00,0x00,0x00,0x00,0x00,0x00,0x00,
 0x00,0x00,0x00,0x00,0x00,0x00,0x00,0x00,0x00,0x00,0x00,0x10,0xa6,0x11,0x02,
 0x00,0x00,0x00,0x00,0x00,0x00,0xf8,0xde,0xa7,0xef,0xfb,0x00,0x00,0xf8,0xde,
 0x6f,0x1f,0x40,0x80,0xef,0xfd,0xf6,0x07,0x03,0x00,0x00,0x00,0x00,0x00,0x00,
 0x00,0x00,0x00,0x00,0x00,0x00,0x00,0x00,0x00,0x00,0x00,0x00,0x00,0x00,0x00,
 0x00,0x00,0x00,0x00,0x00,0x00,0x00,0x00,0x30,0x3f,0x1b,0x03,0x00,0x00,0x00,
 0x00,0x00,0x00,0x00,0xdc,0xa4,0xcf,0x33,0x00,0x00,0x00,0xdc,0x4c,0x06,0x40,
 0x00,0xc0,0xcd,0x64,0x03,0x00,0x00,0x00,0x00,0x00,0x00,0x00,0x00,0x00,0x00,
 0x00,0x00,0x00,0x00,0x00,0x00,0x00,0x00,0x00,0x00,0x00,0x00,0x00,0x00,0x00,
 0x00,0x00,0x00,0x00,0x00,0x30,0x00,0x0e,0x03,0x00,0x00,0x00,0x00,0x00,0x00,
 0x00,0xc0,0xa0,0xe1,0x33,0x00,0x00,0x00,0xc0,0x4c,0x06,0x40,0x00,0x00,0xcc,
 0x64,0x03,0x00,0x00,0x00,0x00,0x00,0x00,0x00,0x00,0x00,0x00,0x00,0x00,0x00,
 0x00,0x00,0x00,0x00,0x00,0x00,0x00,0x00,0x00,0x00,0x00,0x00,0x00,0x00,0x00,
 0x00,0x00,0x20,0x00,0x00,0x01,0x00,0x00,0x00,0x00,0x00,0x00,0x00,0xc0,0xa4,
 0x69,0x37,0x00,0x00,0x00,0xc0,0x4c,0x06,0x00,0x00,0x00,0xcc,0x64,0x03,0x00,
 0x00,0x00,0x00,0x00,0x00,0x00,0x00,0x00,0x00,0x00,0x00,0x00,0x00,0x00,0x00,
 0x00,0x00,0x00,0x00,0x00,0x00,0x00,0x00,0x00,0x00,0x00,0x00,0x00,0x00,0x60,
 0x00,0x80,0x01,0x00,0x00,0x00,0x00,0x00,0x00,0x00,0x80,0x77,0xef,0x7f,0x00,
 0x00,0x00,0x80,0xff,0x0f,0x00,0x00,0x00,0xf8,0x7f,0x07,0x00,0x00,0x00,0x00,
 0x00,0x00,0x00,0x00,0x00,0x00,0x00,0x00,0x00,0x00,0x00,0x00,0x00,0x00,0x00,
 0x00,0x00,0x00,0x00,0x00,0x00,0x00,0x00,0x00,0x00,0x00,0xc0,0x00,0xc0,0x00};
