#define noname_width 44
#define noname_height 12
static char noname_bits[] = {
 0xfe,0x03,0x00,0x00,0xff,0x01,0x36,0x03,0x00,0x00,0x9b,0x01,0x33,0x02,0x00,
 0x80,0x19,0x01,0x31,0x02,0x00,0x80,0x18,0x01,0x10,0x00,0x00,0x00,0x08,0x00,
 0x18,0x00,0x00,0x00,0x0c,0x00,0x18,0x00,0xfc,0x07,0x0c,0x00,0x18,0x0c,0x00,
 0x00,0x0c,0x0e,0x08,0x0e,0x00,0x00,0x04,0x0f,0x3f,0x0e,0x00,0x80,0x1f,0x0d,
 0x00,0x0f,0x00,0x00,0x80,0x0d,0x00,0x0f,0x00,0x00,0x00,0x0f};
