#define noname_width 33
#define noname_height 12
static char noname_bits[] = {
 0xef,0x3d,0x00,0x00,0x00,0xc2,0x18,0x00,0x00,0x00,0xe2,0x08,0x00,0x00,0x00,
 0xe2,0x04,0x00,0x00,0x00,0xf2,0x06,0x00,0x00,0x00,0xd6,0x02,0x00,0x00,0x00,
 0xce,0xf3,0x61,0xff,0x01,0xce,0xf1,0xfb,0xff,0x01,0xc6,0x61,0xfb,0xfe,0x00,
 0xc6,0x60,0x1b,0xee,0x00,0x42,0x60,0x9b,0x6c,0x00,0x00,0xf0,0xf7,0x6c,0x00};
