#define noname_width 15
#define noname_height 9
static char noname_bits[] = {
 0xfc,0x00,0xde,0x3c,0xcc,0x0c,0xcc,0x0c,0x6c,0x0c,0x3c,0x44,0x06,0x66,0x06,
 0x3f,0x0f,0x00};
