#define noname_width 40
#define noname_height 11
static char noname_bits[] = {
 0x00,0x18,0x80,0x60,0x60,0x00,0x6c,0xe0,0xb0,0xf1,0x00,0x64,0x80,0x90,0xd9,
 0x00,0x46,0x80,0x18,0x09,0x00,0x46,0x80,0x18,0x7d,0x00,0x46,0x80,0x18,0xcd,
 0xff,0x47,0x80,0x18,0x8d,0x00,0x46,0x80,0x18,0x8d,0x00,0x64,0x86,0x90,0xc9,
 0x00,0x6c,0xe6,0xb3,0xd9,0x00,0x38,0x00,0xe0,0x70};
