#define noname_width 17
#define noname_height 12
static char noname_bits[] = {
 0xef,0x3d,0x00,0xc2,0x18,0x00,0xe2,0x08,0x00,0xe2,0x04,0x00,0xf2,0x06,0x00,
 0xd6,0x02,0x00,0xce,0x03,0x00,0xce,0xc1,0x00,0xc6,0xe1,0x01,0xc6,0xe0,0x00,
 0x42,0x30,0x01,0x00,0xe0,0x00};
