#define noname_width 6
#define noname_height 6
static char noname_bits[] = {
 0x2e,0x2f,0x26,0x26,0x36,0x1e};
