#define noname_width 8
#define noname_height 6
static char noname_bits[] = {
 0xfc,0x36,0x33,0x33,0x33,0x1e};
