#define noname_width 33
#define noname_height 9
static char noname_bits[] = {
 0xfc,0x00,0xc0,0x0f,0x00,0x36,0x04,0x60,0xa3,0x01,0x33,0x06,0x30,0xe3,0x00,
 0x33,0x04,0x30,0x23,0x00,0x33,0x84,0x31,0xe3,0x01,0x1e,0x84,0xe1,0x81,0x01,
 0x00,0x04,0x01,0xb0,0x01,0x00,0x1e,0x01,0xe0,0x01,0x00,0x80,0x00,0x00,0x00};
