#define noname_width 27
#define noname_height 13
static char noname_bits[] = {
 0xf0,0x01,0x00,0x00,0x18,0x03,0x00,0x00,0x0c,0x03,0x00,0x00,0x06,0x03,0x00,
 0x00,0x06,0x03,0x00,0x00,0x07,0x03,0x00,0x03,0x03,0x03,0x00,0x03,0x83,0xf9,
 0xb0,0x07,0xfe,0xf9,0xfd,0x07,0xee,0xb1,0x7d,0x03,0x78,0xb1,0x0d,0x07,0xe0,
 0xb1,0x4d,0x07,0xe0,0xf8,0x7b,0x07};
