#define noname_width 18
#define noname_height 12
static char noname_bits[] = {
 0x80,0x01,0x00,0x80,0x01,0x00,0xc0,0x01,0x00,0xc0,0x01,0x00,0xe0,0x01,0x00,
 0xa0,0xe1,0x03,0xb0,0x21,0x01,0xf8,0x23,0x01,0x0d,0xe3,0x01,0x07,0x87,0x01,
 0x07,0x93,0x01,0x00,0xf8,0x00};
