#define noname_width 450
#define noname_height 15
static char noname_bits[] = {
 0x00,0x00,0x00,0x00,0x00,0x00,0x00,0x00,0x00,0x00,0x00,0x00,0x00,0x00,0x00,
 0x00,0x00,0x00,0x00,0x00,0x00,0x00,0x00,0x00,0x00,0x00,0x00,0x00,0x00,0x00,
 0x00,0x00,0x00,0x00,0x00,0x00,0x00,0x00,0x00,0x00,0x00,0x00,0x00,0x00,0x00,
 0x00,0x00,0x00,0x00,0x00,0x00,0x00,0x00,0x80,0x00,0x40,0x00,0x00,0x00,0x00,
 0x00,0x3e,0x00,0x00,0x00,0x00,0x00,0x3f,0x00,0x00,0x00,0xf0,0x01,0x00,0x00,
 0x00,0x1f,0x00,0x00,0x00,0xf8,0x01,0x00,0x00,0x00,0x00,0x00,0x00,0x00,0x00,
 0x00,0x00,0x00,0x00,0x00,0x00,0x00,0x00,0x00,0x00,0x00,0x00,0x00,0x00,0x00,
 0x00,0x00,0x00,0x00,0x00,0x40,0x1c,0x99,0x00,0x00,0x00,0x00,0x00,0x63,0x00,
 0x00,0x00,0x00,0x00,0x66,0x00,0x00,0x00,0x18,0x03,0x00,0x00,0x80,0x31,0x00,
 0x00,0x00,0x30,0x03,0x00,0x00,0x00,0x00,0x00,0x00,0x00,0x00,0x00,0x00,0x00,
 0x00,0x00,0x00,0x00,0x00,0x00,0x00,0x00,0x00,0x00,0x00,0x00,0x00,0x00,0x00,
 0x00,0x00,0x60,0x36,0x8f,0x01,0x00,0x00,0x00,0x80,0x61,0x00,0x00,0x00,0x00,
 0x00,0x63,0x00,0x00,0x00,0x0c,0x03,0x00,0x00,0xc0,0x30,0x00,0x00,0x00,0x18,
 0x03,0x00,0x00,0x00,0x00,0x00,0x00,0x00,0x00,0x00,0x00,0x00,0x00,0x00,0x00,
 0x00,0x00,0x00,0x00,0x00,0x00,0x00,0x00,0x00,0x00,0x00,0x00,0x00,0x00,0x30,
 0x36,0x01,0x03,0x00,0x00,0x00,0xc0,0x60,0x00,0x00,0x00,0x00,0x00,0x63,0x00,
 0x00,0x00,0x06,0x03,0x00,0x00,0x60,0x30,0x00,0x00,0x00,0x18,0x03,0x00,0x00,
 0x00,0x00,0x00,0x00,0x00,0x00,0x00,0x00,0x00,0x00,0x00,0x00,0x00,0x00,0x00,
 0x00,0x00,0x00,0x00,0x00,0x00,0x00,0x00,0x00,0x00,0x00,0x30,0x36,0x01,0x03,
 0x00,0x00,0x00,0xc0,0x60,0x00,0x00,0x80,0xff,0x00,0x73,0x00,0x00,0x00,0x06,
 0x03,0x00,0x00,0x60,0x30,0x00,0x00,0x00,0x98,0x03,0x00,0x00,0x00,0x00,0x00,
 0x00,0x00,0x00,0x00,0x00,0x00,0x00,0x00,0x00,0x00,0x00,0x00,0x00,0x00,0x00,
 0x00,0x00,0x00,0x00,0x00,0x00,0x00,0x00,0x10,0x18,0x0f,0x02,0x00,0x00,0x00,
 0xe0,0x60,0x00,0xc0,0xc0,0xff,0x00,0x1f,0x3e,0x00,0x00,0x07,0xe3,0x01,0x00,
 0x70,0x30,0x3e,0x00,0x00,0xf8,0xe0,0x01,0x00,0x00,0x00,0x00,0x00,0x00,0x00,
 0x00,0x00,0x00,0x00,0x00,0x00,0x00,0x00,0x00,0x00,0x00,0x00,0x00,0x00,0x00,
 0x00,0x00,0x00,0x00,0x00,0x10,0x3c,0x19,0x02,0x00,0x00,0x00,0x60,0x60,0x00,
 0xc0,0x00,0x00,0x80,0x11,0x12,0xf8,0x0f,0x03,0x63,0x00,0xff,0x31,0x30,0x12,
 0xf8,0x0f,0x8c,0x60,0x00,0x00,0x00,0x00,0x00,0x00,0x00,0x00,0x00,0x00,0x00,
 0x00,0x00,0x00,0x00,0x00,0x00,0x00,0x00,0x00,0x00,0x00,0x00,0x00,0x00,0x00,
 0x00,0x00,0x10,0x30,0x18,0x02,0x00,0x00,0x00,0x60,0x30,0x1f,0xe6,0x01,0x00,
 0x80,0x11,0x12,0x00,0x00,0x83,0x61,0x00,0x00,0x30,0x18,0x12,0x00,0x00,0x8c,
 0x60,0x00,0x00,0x00,0x00,0x00,0x00,0x00,0x00,0x00,0x00,0x00,0x00,0x00,0x00,
 0x00,0x00,0x00,0x00,0x00,0x00,0x00,0x00,0x00,0x00,0x00,0x00,0x00,0x00,0x10,
 0xb7,0x19,0x02,0x00,0x00,0x00,0xc0,0x3f,0xbf,0xef,0xc1,0xff,0x80,0x99,0x1e,
 0x00,0x00,0xfe,0x61,0x00,0x00,0xe0,0x1f,0x1e,0x00,0x00,0xcc,0x64,0xc0,0x00,
 0x00,0x00,0x00,0x00,0x00,0x00,0x00,0x00,0x00,0x00,0x00,0x00,0x00,0x00,0x00,
 0x00,0x00,0x00,0x00,0x00,0x00,0x00,0x00,0x00,0x00,0x00,0x10,0xb7,0x19,0x02,
 0x00,0x00,0x00,0xc0,0x3d,0xb6,0xcf,0x00,0x00,0xe0,0x7b,0x18,0x00,0x00,0xee,
 0x21,0x02,0x00,0xe0,0x1e,0x18,0x00,0x00,0xdf,0x23,0xc2,0x00,0x00,0x00,0x00,
 0x00,0x00,0x00,0x00,0x00,0x00,0x00,0x00,0x00,0x00,0x00,0x00,0x00,0x00,0x00,
 0x00,0x00,0x00,0x00,0x00,0x00,0x00,0x00,0x30,0x36,0x1f,0x03,0x00,0x00,0x00,
 0x00,0x2f,0xb6,0xc1,0x01,0x00,0x00,0x70,0x19,0x00,0x00,0x78,0x31,0x03,0x00,
 0x80,0x17,0x19,0x00,0x00,0x80,0x33,0x03,0x00,0x00,0x00,0x00,0x00,0x00,0x00,
 0x00,0x00,0x00,0x00,0x00,0x00,0x00,0x00,0x00,0x00,0x00,0x00,0x00,0x00,0x00,
 0x00,0x00,0x00,0x00,0x00,0x30,0x1c,0x06,0x03,0x00,0x00,0x00,0x00,0x3c,0xb6,
 0xc9,0x01,0x00,0x00,0x80,0x0f,0x00,0x00,0xe0,0xf9,0x01,0x00,0x00,0x9e,0x0f,
 0x00,0x00,0x00,0xf8,0x01,0x00,0x00,0x00,0x00,0x00,0x00,0x00,0x00,0x00,0x00,
 0x00,0x00,0x00,0x00,0x00,0x00,0x00,0x00,0x00,0x00,0x00,0x00,0x00,0x00,0x00,
 0x00,0x00,0x20,0x00,0x00,0x01,0x00,0x00,0x00,0x00,0x1c,0x7f,0xcf,0x01,0x00,
 0x00,0x00,0x00,0x00,0x00,0xe0,0x00,0x00,0x00,0x00,0x0e,0x00,0x00,0x00,0x00,
 0x00,0x00,0x00,0x00,0x00,0x00,0x00,0x00,0x00,0x00,0x00,0x00,0x00,0x00,0x00,
 0x00,0x00,0x00,0x00,0x00,0x00,0x00,0x00,0x00,0x00,0x00,0x00,0x00,0x00,0x60,
 0x00,0x80,0x01,0x00,0x00,0x00,0x00,0x00,0x00,0x00,0x00,0x00,0x00,0x00,0x00,
 0x00,0x00,0x00,0x00,0x00,0x00,0x00,0x00,0x00,0x00,0x00,0x00,0x00,0x00,0x00,
 0x00,0x00,0x00,0x00,0x00,0x00,0x00,0x00,0x00,0x00,0x00,0x00,0x00,0x00,0x00,
 0x00,0x00,0x00,0x00,0x00,0x00,0x00,0x00,0x00,0x00,0x00,0xc0,0x00,0xc0,0x00};
