#define noname_width 16
#define noname_height 8
static char noname_bits[] = {
 0x3c,0x00,0x36,0x00,0x33,0x00,0x33,0x6d,0xd3,0x5b,0xfe,0x49,0x00,0xe9,0x80,
 0xed};
