#define noname_width 450
#define noname_height 16
static char noname_bits[] = {
 0x00,0x00,0x00,0x00,0x00,0x00,0x00,0x00,0x00,0x00,0x00,0x00,0x00,0x00,0x00,
 0x00,0x00,0x00,0x00,0x00,0x00,0x00,0x00,0x00,0x00,0x00,0x00,0x07,0x00,0x00,
 0x00,0x00,0x00,0x00,0x00,0x00,0x00,0x00,0x00,0x00,0x00,0x00,0x00,0x00,0x00,
 0x00,0x00,0x00,0x00,0x00,0x00,0x00,0x00,0x00,0x00,0x00,0x00,0x00,0x00,0x00,
 0x00,0x00,0x00,0x00,0x00,0x00,0x00,0x00,0x00,0x00,0x00,0x00,0x00,0x00,0x01,
 0x00,0x00,0x00,0x00,0x00,0x00,0x00,0x00,0x80,0x2d,0x00,0x00,0x00,0x00,0x00,
 0x00,0x00,0x00,0x00,0x00,0x00,0x00,0x00,0x00,0x00,0x00,0x00,0x00,0x00,0x00,
 0x00,0x00,0x00,0x00,0x00,0x80,0x00,0x40,0x00,0x00,0x3f,0x00,0x00,0x00,0x00,
 0x00,0x00,0x00,0x00,0x00,0x3f,0x00,0x00,0x00,0x00,0x80,0x00,0x00,0x00,0x38,
 0xfe,0x03,0x00,0x00,0xc0,0xff,0x4d,0x00,0x00,0x00,0x00,0x00,0x00,0x00,0x00,
 0x00,0x00,0x00,0x00,0x00,0x00,0x00,0x00,0x00,0x00,0x00,0x00,0x00,0x00,0x00,
 0x00,0x00,0x40,0x0c,0x8c,0x00,0x00,0x66,0x00,0x00,0x00,0x00,0x00,0x00,0x00,
 0x00,0x00,0x66,0x00,0x00,0x00,0x00,0xc0,0x00,0x00,0x00,0x30,0x36,0x03,0x00,
 0x00,0xc0,0x66,0xcc,0x00,0x00,0x00,0x00,0x00,0x00,0x00,0x00,0x00,0x00,0x00,
 0x00,0x00,0x00,0x00,0x00,0x00,0x00,0x00,0x00,0x00,0x00,0x00,0x00,0x00,0x60,
 0x36,0x9e,0x01,0x00,0x63,0x00,0x00,0x00,0x00,0x00,0x00,0x00,0x00,0x00,0x63,
 0x00,0x00,0x00,0x00,0x60,0x00,0x00,0x02,0x18,0x33,0x02,0x40,0x00,0x60,0x46,
 0x86,0x01,0x00,0x00,0x00,0x00,0x00,0x00,0x00,0x00,0x00,0x00,0x00,0x00,0x00,
 0x00,0x00,0x00,0x00,0x00,0x00,0x00,0x00,0x00,0x00,0x00,0x30,0x37,0x1b,0x03,
 0x00,0x63,0x00,0x00,0x00,0x00,0x00,0x00,0x00,0x00,0x00,0x63,0x00,0x00,0x00,
 0x00,0x60,0x00,0x00,0x02,0x18,0x31,0x02,0x40,0x00,0x20,0x46,0x8b,0x01,0x00,
 0x00,0x00,0x00,0x00,0x00,0x00,0x00,0x00,0x00,0x00,0x00,0x00,0x00,0x00,0x00,
 0x00,0x00,0x00,0x00,0x00,0x00,0x00,0x00,0x30,0x27,0x01,0x03,0x00,0x73,0x00,
 0x00,0x00,0x00,0x00,0x00,0x80,0xff,0x00,0x73,0x00,0x00,0x00,0x00,0x20,0x78,
 0x00,0x02,0x78,0x10,0x00,0x40,0x00,0x1e,0x82,0x0f,0x01,0x00,0x00,0x00,0x00,
 0x00,0x00,0x00,0x00,0x00,0x00,0x00,0x00,0x00,0x00,0x00,0x00,0x00,0x00,0x00,
 0x00,0x00,0x00,0x00,0x00,0x10,0xb0,0x0f,0x02,0x00,0x3f,0x00,0x00,0x00,0x00,
 0x00,0xe0,0xc0,0xff,0x00,0xff,0x7f,0x00,0x1c,0x00,0x20,0x6c,0x00,0x02,0xd8,
 0x18,0x00,0x40,0x00,0x1b,0x03,0x00,0x01,0x00,0x00,0x00,0x00,0x00,0x00,0x00,
 0x00,0x00,0x00,0x00,0x00,0x00,0x00,0x00,0x00,0x00,0x00,0x00,0x00,0x00,0x00,
 0x00,0x00,0x10,0xb0,0x19,0x02,0x80,0x01,0x00,0x00,0x00,0x00,0x06,0xc0,0x00,
 0x00,0x80,0xc1,0x6c,0x00,0x18,0x00,0x20,0x66,0xf0,0x3f,0xcc,0x18,0x00,0xfe,
 0x87,0x01,0x03,0x00,0x01,0x00,0x00,0x00,0x00,0x00,0x00,0x00,0x00,0x00,0x00,
 0x00,0x00,0x00,0x00,0x00,0x00,0x00,0x00,0x00,0x00,0x00,0x00,0x00,0x00,0x10,
 0x98,0x11,0x02,0x80,0x01,0x00,0x00,0x00,0x00,0x06,0xc0,0x00,0x00,0x80,0xc1,
 0x6c,0x00,0x18,0x00,0x20,0x66,0x00,0x02,0x4c,0x18,0x1c,0x40,0x80,0x01,0x03,
 0x00,0x01,0x00,0x00,0x00,0x00,0x00,0x00,0x00,0x00,0x00,0x00,0x00,0x00,0x00,
 0x00,0x00,0x00,0x00,0x00,0x00,0x00,0x00,0x00,0x00,0x00,0x10,0xac,0x11,0x02,
 0x80,0x01,0xc7,0xbc,0xc7,0x70,0x8f,0xf9,0xc0,0xff,0x80,0x41,0xcc,0x8f,0xfb,
 0xd8,0x23,0xa6,0x00,0x02,0x6c,0x08,0x1e,0x40,0x80,0x19,0x01,0x00,0xc1,0x00,
 0x00,0x00,0x00,0x00,0x00,0x00,0x00,0x00,0x00,0x00,0x00,0x00,0x00,0x00,0x00,
 0x00,0x00,0x00,0x00,0x00,0x00,0x00,0x00,0x10,0x26,0x19,0x02,0xe0,0xc3,0xf7,
 0xff,0xff,0x7d,0xef,0xff,0x00,0x00,0xe0,0x03,0xcc,0xef,0xfb,0xfe,0x67,0xfc,
 0x00,0x02,0x38,0x3f,0x1a,0x40,0x00,0xef,0x87,0x83,0xc1,0x00,0x00,0x00,0x00,
 0x00,0x00,0x00,0x00,0x00,0x00,0x00,0x00,0x00,0x00,0x00,0x00,0x00,0x00,0x00,
 0x00,0x00,0x00,0x00,0x00,0x30,0x3f,0x1b,0x03,0x00,0xc0,0x34,0x1b,0xf3,0x4d,
 0xe6,0xcf,0x00,0x00,0x00,0x00,0x8c,0x6d,0x3a,0xbe,0x61,0x00,0x00,0x02,0x00,
 0x00,0x1b,0x40,0x00,0x00,0xc0,0x83,0x01,0x00,0x00,0x00,0x00,0x00,0x00,0x00,
 0x00,0x00,0x00,0x00,0x00,0x00,0x00,0x00,0x00,0x00,0x00,0x00,0x00,0x00,0x00,
 0x00,0x00,0x30,0x00,0x0e,0x03,0x00,0xc0,0x30,0x1b,0x33,0x0c,0x6e,0xcc,0x00,
 0x00,0x00,0x00,0x8c,0x6d,0x78,0x86,0x41,0x00,0x00,0x02,0x00,0x00,0x1e,0x40,
 0x00,0x00,0x40,0x83,0x00,0x00,0x00,0x00,0x00,0x00,0x00,0x00,0x00,0x00,0x00,
 0x00,0x00,0x00,0x00,0x00,0x00,0x00,0x00,0x00,0x00,0x00,0x00,0x00,0x00,0x20,
 0x00,0x00,0x01,0x00,0xc0,0x34,0x1b,0x33,0x4d,0x6e,0xce,0x00,0x00,0x00,0x00,
 0x8c,0x6d,0x7a,0xa6,0xc1,0x00,0x00,0x00,0x00,0x00,0x00,0x00,0x00,0x00,0x60,
 0xc3,0x00,0x00,0x00,0x00,0x00,0x00,0x00,0x00,0x00,0x00,0x00,0x00,0x00,0x00,
 0x00,0x00,0x00,0x00,0x00,0x00,0x00,0x00,0x00,0x00,0x00,0x60,0x00,0x80,0x01,
 0x00,0x80,0xe7,0xbd,0xe7,0x79,0xce,0xfb,0x01,0x00,0x00,0x00,0x9f,0xdf,0xff,
 0xfd,0x83,0x01,0x00,0x00,0x00,0x00,0x00,0x00,0x00,0x00,0xc0,0x63,0x00,0x00,
 0x00,0x00,0x00,0x00,0x00,0x00,0x00,0x00,0x00,0x00,0x00,0x00,0x00,0x00,0x00,
 0x00,0x00,0x00,0x00,0x00,0x00,0x00,0x00,0xc0,0x00,0xc0,0x00};
