#define noname_width 42
#define noname_height 13
static char noname_bits[] = {
 0x38,0x00,0x00,0x00,0x80,0x00,0x2c,0x00,0x00,0x00,0xe0,0x00,0x0c,0x00,0x00,
 0xc0,0x80,0x00,0x1c,0x00,0x00,0x70,0x80,0x00,0x9c,0x1f,0x00,0x1c,0x80,0x00,
 0xf6,0x9b,0x00,0x07,0x80,0x00,0xb3,0x99,0x80,0x01,0x80,0x00,0x93,0x59,0x80,
 0x07,0x80,0x00,0x93,0xed,0x00,0x1e,0x80,0x00,0x8e,0x67,0x00,0x78,0xe0,0x03,
 0xc0,0xe0,0x00,0xe0,0x00,0x00,0xc0,0xe0,0x00,0x00,0x00,0x00,0xe0,0x01,0x00,
 0x00,0x00,0x00};
