#define noname_width 6
#define noname_height 6
static char noname_bits[] = {
 0x3e,0x3f,0x06,0x06,0x06,0x06};
