#define noname_width 6
#define noname_height 10
static char noname_bits[] = {
 0x0e,0x0c,0x06,0x06,0x1e,0x36,0x33,0x13,0x1b,0x0e};
