#define noname_width 30
#define noname_height 20
static char noname_bits[] = {
 0x00,0x00,0x80,0x00,0x00,0x00,0xc1,0x1c,0x00,0x80,0x41,0x36,0x00,0x00,0x61,
 0x36,0x00,0x00,0x61,0x30,0xef,0x3d,0x21,0x18,0xc2,0x18,0x31,0x2c,0xe2,0x88,
 0x37,0x3e,0xe2,0x04,0x10,0x00,0xf2,0x06,0x18,0x00,0xd6,0x02,0x18,0x00,0xce,
 0x03,0x00,0x00,0xce,0x01,0x00,0x00,0xc6,0x01,0x8c,0x03,0xc6,0x00,0x0c,0x01,
 0x42,0xc0,0xcc,0x01,0x00,0xe0,0xe5,0x01,0x00,0x20,0xa5,0x01,0x00,0xb0,0xb7,
 0x01,0x00,0xe0,0xe6,0x01};
