#define noname_width 9
#define noname_height 8
static char noname_bits[] = {
 0x1c,0x00,0x36,0x01,0x1f,0x01,0x83,0x00,0xf3,0x01,0xde,0x00,0xc0,0x01,0xc0,
 0x01};
