#define noname_width 33
#define noname_height 11
static char noname_bits[] = {
 0x00,0x18,0x80,0x60,0x00,0x00,0x6c,0xe0,0xb0,0x01,0x00,0x64,0x80,0xb8,0x01,
 0x00,0x46,0x80,0x38,0x01,0x00,0x46,0x80,0x80,0x01,0x00,0x46,0x80,0x80,0x01,
 0xff,0x47,0x80,0xc0,0x00,0x00,0x46,0x80,0x60,0x01,0x00,0x64,0x86,0x30,0x01,
 0x00,0x6c,0xe6,0xfb,0x01,0x00,0x38,0x00,0x00,0x00};
