#define noname_width 16
#define noname_height 18
static char noname_bits[] = {
 0x80,0x00,0xc0,0x01,0x20,0x01,0x00,0x00,0x1c,0x04,0x1e,0x06,0x1b,0x03,0x19,
 0x03,0xf8,0x03,0xf8,0x01,0x8c,0x01,0x8c,0x91,0x8c,0xf9,0x86,0xdf,0x82,0x53,
 0x00,0x70,0x00,0x78,0x00,0x38};
