#define noname_width 8
#define noname_height 9
static char noname_bits[] = {
 0x7f,0xc6,0xc6,0xc6,0xc6,0x7e,0x06,0x06,0x0f};
