#define noname_width 9
#define noname_height 11
static char noname_bits[] = {
 0xec,0x01,0xbc,0x01,0x9c,0x01,0xcc,0x01,0xfc,0x00,0xfe,0x00,0xc6,0x01,0x86,
 0x01,0xce,0x00,0x7f,0x00,0x1d,0x00};
