#define noname_width 27
#define noname_height 13
static char noname_bits[] = {
 0xf0,0x01,0x00,0x00,0x18,0x03,0x00,0x00,0x0c,0x03,0x00,0x00,0x06,0x03,0x00,
 0x00,0x06,0x03,0x00,0x00,0x07,0x03,0x00,0x00,0x03,0x03,0x00,0x02,0x83,0xd1,
 0xb0,0x07,0xfe,0xb9,0x78,0x03,0xee,0x99,0x38,0x01,0x78,0xd1,0x4d,0x03,0xe0,
 0xd9,0x39,0x03,0xe0,0x00,0x00,0x00};
