#define noname_width 40
#define noname_height 18
static char noname_bits[] = {
 0x80,0x00,0x00,0x00,0x00,0xc0,0x01,0x00,0x00,0x00,0x20,0x01,0x00,0x00,0x00,
 0x00,0x00,0x40,0x00,0x10,0x1c,0x04,0x20,0x00,0x20,0x1e,0x06,0x30,0x00,0x60,
 0x1b,0x03,0x18,0x00,0xc0,0x19,0x03,0x18,0x00,0xc0,0xf8,0x03,0x08,0x37,0x80,
 0xf8,0x01,0x88,0x37,0x83,0x8c,0x01,0x08,0x33,0x83,0x8c,0x91,0x08,0x93,0x81,
 0x8c,0xf9,0x08,0x9b,0x83,0x86,0xdf,0x18,0x9f,0xc1,0x82,0x53,0x18,0x19,0xc1,
 0x00,0x70,0x90,0x8d,0x41,0x00,0x78,0x30,0xc7,0x61,0x00,0x38,0x60,0xe0,0x30};
