#define noname_width 10
#define noname_height 11
static char noname_bits[] = {
 0xf0,0x01,0x18,0x03,0x0c,0x03,0x06,0x03,0x06,0x03,0x07,0x03,0x03,0x03,0x83,
 0x01,0xc6,0x01,0xee,0x00,0x38,0x00};
