#define noname_width 28
#define noname_height 14
static char noname_bits[] = {
 0xef,0x3d,0x00,0x00,0xc2,0x18,0x00,0x00,0xe2,0x08,0x00,0x00,0xe2,0x04,0x00,
 0x00,0xf2,0x06,0x00,0x00,0xd6,0x02,0x0c,0x07,0xce,0x03,0x08,0x06,0xce,0x01,
 0x08,0x06,0xc6,0xc1,0xc8,0x07,0xc6,0xf0,0xeb,0x07,0x42,0x30,0x6b,0x06,0x00,
 0x30,0x6b,0x06,0x00,0x30,0x6b,0x06,0x00,0xe0,0xdd,0x0f};
