#define noname_width 36
#define noname_height 11
static char noname_bits[] = {
 0x00,0x10,0x18,0x01,0x07,0x00,0x1c,0x3c,0xbf,0x0d,0x00,0x10,0xb6,0x91,0x08,
 0x00,0x10,0x82,0x88,0x0d,0x00,0x10,0x1f,0x8c,0x07,0x00,0x10,0x33,0x84,0x0f,
 0xff,0x11,0x23,0x86,0x0e,0x00,0x10,0x23,0xc6,0x08,0x00,0x10,0x32,0xc6,0x08,
 0x00,0x7c,0x36,0x86,0x0d,0x00,0x00,0x1c,0x06,0x07};
