#define noname_width 15
#define noname_height 15
static char noname_bits[] = {
 0x00,0x38,0x00,0x6c,0xfe,0x6f,0x36,0x7b,0x33,0x62,0x31,0x4e,0x10,0x7c,0x18,
 0x00,0x18,0x00,0x18,0x00,0x08,0x0c,0x3f,0x0e,0x00,0x0e,0x00,0x0f,0x00,0x0f};
