#define noname_width 91
#define noname_height 15
static char noname_bits[] = {
 0x00,0x00,0x00,0x80,0x00,0x00,0x00,0x00,0x00,0x00,0x80,0x00,0x00,0x00,0x00,
 0x40,0x00,0x00,0x00,0x00,0x00,0x00,0x00,0x01,0x00,0x00,0x00,0x60,0x00,0x00,
 0x00,0x00,0x00,0x00,0x00,0x03,0x00,0x00,0x00,0x30,0x00,0x00,0x00,0x00,0x00,
 0x00,0x00,0x06,0x00,0x00,0x00,0x30,0x00,0x00,0x00,0x00,0x00,0x00,0x00,0x06,
 0x7f,0xe0,0x3f,0x10,0x7e,0x00,0x00,0x00,0x80,0x1f,0x00,0x04,0xc6,0xf0,0x3f,
 0x10,0x6f,0x02,0x00,0x00,0xc0,0x1b,0x00,0x04,0xc6,0x00,0x00,0x10,0x66,0x03,
 0x00,0x00,0x80,0x19,0x00,0x04,0xc6,0x00,0x00,0x10,0x66,0x02,0x00,0x00,0x80,
 0x59,0x1b,0x04,0xc6,0xf0,0x3f,0x10,0x36,0x82,0x61,0x66,0x86,0xed,0x16,0x04,
 0x7e,0x00,0x00,0x30,0x1e,0x82,0x61,0x66,0x86,0x67,0x12,0x06,0x06,0x00,0x00,
 0x30,0x03,0x02,0x01,0x00,0xc4,0x40,0x3a,0x06,0x06,0x00,0x00,0x20,0x03,0x0f,
 0x01,0x00,0xc4,0x60,0x3b,0x02,0x0f,0x00,0x00,0xe0,0x07,0x80,0x00,0x00,0xe2,
 0x01,0x00,0x03,0x00,0x00,0x00,0xc0,0x00,0x00,0x00,0x00,0x00,0x00,0x80,0x01};
