#define noname_width 466
#define noname_height 18
static char noname_bits[] = {
 0xc0,0x01,0x00,0x00,0x00,0x00,0x00,0x00,0x00,0x00,0x00,0x00,0x00,0x80,0x03,
 0x00,0x00,0x00,0x00,0x70,0x00,0x00,0x00,0x00,0x00,0x00,0x00,0x00,0x00,0x00,
 0x00,0x00,0x00,0x0e,0x00,0x00,0x00,0x00,0x00,0x00,0x00,0x00,0x00,0x00,0x00,
 0x00,0x00,0x00,0x00,0x00,0x00,0x00,0x00,0x00,0x00,0x00,0x00,0x00,0x00,0x60,
 0x03,0x00,0x00,0x00,0x00,0x00,0x00,0x00,0x00,0x00,0x00,0x00,0xc0,0x06,0x00,
 0x00,0x00,0x00,0xd8,0x00,0x00,0x00,0x00,0x00,0x00,0x00,0x00,0x00,0x00,0x00,
 0x00,0x00,0x1b,0x00,0x00,0x00,0x00,0x00,0x00,0x00,0x00,0x00,0x00,0x00,0x00,
 0x00,0x00,0x00,0x00,0x00,0x00,0x00,0x00,0x00,0x80,0x00,0x40,0x00,0x60,0x03,
 0x00,0x00,0x00,0xe0,0xbd,0x07,0x00,0x00,0x00,0x00,0xef,0xfd,0x06,0x00,0x00,
 0x00,0x00,0xd8,0x00,0x00,0x00,0x00,0xe0,0xbd,0x07,0x00,0x00,0x00,0x00,0xbc,
 0xf7,0x1b,0x00,0x00,0x00,0x00,0x00,0x00,0x00,0x00,0x00,0x00,0x00,0x00,0x00,
 0x00,0x00,0x00,0x00,0x00,0x00,0x00,0x00,0x40,0x1c,0x86,0x00,0x00,0x03,0x00,
 0x00,0x00,0x40,0x18,0x03,0x00,0x00,0x00,0x00,0xc2,0x18,0x06,0x00,0x00,0x00,
 0x00,0xc0,0x00,0x00,0x00,0x00,0x40,0x18,0x03,0x00,0x00,0x00,0x00,0x08,0x63,
 0x18,0x00,0x00,0x00,0x00,0x00,0x00,0x00,0x00,0x00,0x00,0x00,0x00,0x00,0x00,
 0x00,0x00,0x00,0x00,0x00,0x00,0x00,0x60,0x36,0x9b,0x01,0x80,0x01,0x00,0x00,
 0x00,0x40,0x1c,0x01,0x00,0x00,0x00,0x00,0xe2,0x08,0x03,0x00,0x00,0x00,0x00,
 0x60,0x00,0x00,0x00,0x00,0x40,0x1c,0x01,0x00,0x00,0x00,0x00,0x88,0x23,0x0c,
 0x00,0x00,0x00,0x00,0x00,0x00,0x00,0x00,0x00,0x00,0x00,0x00,0x00,0x00,0x00,
 0x00,0x00,0x00,0x00,0x00,0x00,0x30,0xa2,0x19,0x03,0xc0,0x02,0x00,0x00,0x00,
 0x40,0x9c,0x00,0x00,0x00,0x00,0x00,0xe2,0x84,0x05,0x00,0x00,0x00,0x00,0xb0,
 0x00,0x00,0x00,0x00,0x40,0x9c,0x00,0x00,0x00,0x00,0x00,0x88,0x13,0x16,0x00,
 0x00,0x00,0x00,0x00,0x00,0x00,0x00,0x00,0x00,0x00,0x00,0x00,0x00,0x00,0x00,
 0x00,0x00,0x00,0x00,0x00,0x30,0xb6,0x11,0x03,0xfc,0x03,0x00,0x80,0xff,0x40,
 0xde,0x00,0x00,0x00,0x00,0x00,0xf2,0xc6,0x07,0x00,0x00,0x00,0x00,0xff,0x00,
 0x00,0x80,0xff,0x40,0xde,0x00,0x00,0x00,0x00,0x00,0xc8,0x1b,0x1f,0x00,0x00,
 0x00,0x00,0x00,0x00,0x00,0x00,0x00,0x00,0x00,0x00,0x00,0x00,0x00,0x00,0x00,
 0x00,0x00,0x00,0x00,0x10,0x9e,0x11,0x02,0x06,0x00,0x00,0xc0,0xff,0xc0,0x5a,
 0xc0,0x30,0x00,0x00,0x00,0xd6,0x02,0x00,0x00,0x00,0x00,0x80,0x01,0x00,0x00,
 0xc0,0xff,0xc0,0x5a,0x00,0x00,0x30,0x00,0x00,0x58,0x0b,0x00,0x00,0x00,0x00,
 0x00,0x00,0x00,0x00,0x00,0x00,0x00,0x00,0x00,0x00,0x00,0x00,0x00,0x00,0x00,
 0x00,0x00,0x00,0x10,0x3e,0x19,0x02,0x0f,0x00,0x00,0x00,0x00,0xc0,0x79,0x80,
 0x00,0x00,0xfc,0x07,0xce,0x03,0x00,0x00,0x00,0x00,0xc0,0x03,0x00,0x00,0x00,
 0x00,0xc0,0x79,0x00,0x00,0x20,0xf0,0x1f,0x38,0x0f,0x00,0x00,0x00,0x00,0x00,
 0x00,0x00,0x00,0x00,0x00,0x00,0x00,0x00,0x00,0x00,0x00,0x00,0x00,0x00,0x00,
 0x00,0x00,0x10,0x3a,0x1f,0x02,0x03,0x0c,0x03,0x00,0x00,0xc0,0x39,0x9c,0xb3,
 0x07,0x00,0x00,0xce,0x01,0x00,0x00,0x00,0x00,0xc0,0x00,0x00,0xc0,0x00,0x00,
 0xc0,0x39,0x9e,0x7b,0x3c,0x00,0x00,0x38,0x07,0x00,0x00,0x00,0x00,0x00,0x00,
 0x00,0x00,0x00,0x00,0x00,0x00,0x00,0x00,0x00,0x00,0x00,0x00,0x00,0x00,0x00,
 0x00,0x10,0x23,0x18,0x02,0x03,0x08,0x00,0xc0,0xff,0xc0,0x38,0x9e,0x27,0x0f,
 0x00,0x00,0xc6,0x41,0x60,0x00,0x00,0x00,0xc0,0x00,0x00,0x80,0xc0,0xff,0xc0,
 0x38,0xdc,0xf6,0x36,0x00,0x00,0x18,0x07,0x01,0x00,0x00,0x00,0x00,0x00,0x00,
 0x00,0x00,0x00,0x00,0x00,0x00,0x00,0x00,0x00,0x00,0x00,0x00,0x00,0x00,0x00,
 0x10,0x23,0x1b,0x02,0xde,0x39,0x7b,0x00,0x00,0xc0,0x18,0x9e,0x24,0x19,0x00,
 0x00,0xc6,0xf0,0x60,0x00,0x00,0x00,0x80,0x7f,0xee,0xf1,0x00,0x00,0xc0,0x18,
 0x84,0x97,0x22,0x00,0x00,0x18,0xc3,0x03,0x00,0x00,0x00,0x00,0x00,0x00,0x00,
 0x00,0x00,0x00,0x00,0x00,0x00,0x00,0x00,0x00,0x00,0x00,0x00,0x00,0x00,0x30,
 0x36,0x0d,0x03,0xe0,0x79,0xf2,0x00,0x00,0x40,0x08,0x9a,0x24,0x19,0x00,0x00,
 0x42,0x60,0x40,0x00,0x00,0x00,0x00,0x70,0xdb,0xdb,0x00,0x00,0x40,0x08,0xc4,
 0x9e,0x26,0x00,0x00,0x08,0x81,0x01,0x00,0x00,0x00,0x00,0x00,0x00,0x00,0x00,
 0x00,0x00,0x00,0x00,0x00,0x00,0x00,0x00,0x00,0x00,0x00,0x00,0x00,0x30,0x1c,
 0x06,0x03,0xe0,0x49,0x92,0x01,0x00,0x00,0x00,0xde,0x7f,0x0f,0x00,0x00,0x00,
 0x20,0x40,0x00,0x00,0x00,0x00,0x10,0x5e,0x8a,0x00,0x00,0x00,0x00,0xce,0xff,
 0x7d,0x00,0x00,0x00,0x80,0x00,0x00,0x00,0x00,0x00,0x00,0x00,0x00,0x00,0x00,
 0x00,0x00,0x00,0x00,0x00,0x00,0x00,0x00,0x00,0x00,0x00,0x00,0x20,0x00,0x00,
 0x01,0xa0,0x49,0x92,0x01,0x00,0x00,0x00,0x00,0x00,0x01,0x00,0x00,0x00,0x60,
 0x20,0x00,0x00,0x00,0x00,0x10,0x7b,0x9a,0x00,0x00,0x00,0x00,0x00,0x00,0x00,
 0x00,0x00,0x00,0x80,0x01,0x00,0x00,0x00,0x00,0x00,0x00,0x00,0x00,0x00,0x00,
 0x00,0x00,0x00,0x00,0x00,0x00,0x00,0x00,0x00,0x00,0x00,0x60,0x00,0x80,0x01,
 0xe0,0xfd,0xf7,0x00,0x00,0x00,0x00,0x00,0x80,0x03,0x00,0x00,0x00,0x60,0x00,
 0x00,0x00,0x00,0x00,0x38,0xff,0xf7,0x01,0x00,0x00,0x00,0x00,0x00,0x00,0x00,
 0x00,0x00,0x80,0x01,0x00,0x00,0x00,0x00,0x00,0x00,0x00,0x00,0x00,0x00,0x00,
 0x00,0x00,0x00,0x00,0x00,0x00,0x00,0x00,0x00,0x00,0xc0,0x00,0xc0,0x00,0x00,
 0x00,0x10,0x00,0x00,0x00,0x00,0x00,0x00,0x00,0x00,0x00,0x00,0x00,0x00,0x00,
 0x00,0x00,0x00,0x00,0x00,0x00,0x00,0x00,0x00,0x00,0x00,0x00,0x00,0x00,0x00,
 0x00,0x00,0x00,0x00,0x00,0x00,0x00,0x00,0x00,0x00,0x00,0x00,0x00,0x00,0x00,
 0x00,0x00,0x00,0x00,0x00,0x00,0x00,0x00,0x00,0x00,0x00,0x00,0x00,0x00,0x00,
 0x38,0x00,0x00,0x00,0x00,0x00,0x00,0x00,0x00,0x00,0x00,0x00,0x00,0x00,0x00,
 0x00,0x00,0x00,0x00,0x00,0x00,0x00,0x00,0x00,0x00,0x00,0x00,0x00,0x00,0x00,
 0x00,0x00,0x00,0x00,0x00,0x00,0x00,0x00,0x00,0x00,0x00,0x00,0x00,0x00,0x00,
 0x00,0x00,0x00,0x00,0x00,0x00,0x00,0x00,0x00,0x00,0x00,0x00};
