#define noname_width 45
#define noname_height 15
static char noname_bits[] = {
 0x00,0x00,0x40,0x00,0x00,0x02,0x1c,0x04,0x20,0x00,0x00,0x04,0x1e,0x06,0x30,
 0x00,0x00,0x0c,0x1b,0x03,0x18,0x00,0x00,0x18,0x19,0x03,0x18,0x00,0x00,0x18,
 0xf8,0x03,0x08,0x37,0x00,0x10,0xf8,0x01,0x88,0x37,0x73,0x10,0x8c,0x01,0x08,
 0x33,0x27,0x10,0x8c,0x91,0x08,0x13,0x27,0x10,0x8c,0xf9,0x08,0x1b,0x3d,0x10,
 0x86,0xdf,0x18,0x1f,0x1d,0x18,0x82,0x53,0x18,0x99,0x18,0x18,0x00,0x70,0x90,
 0xcd,0x19,0x08,0x00,0x78,0x30,0x07,0x00,0x0c,0x00,0x38,0x60,0x00,0x00,0x06};
