#define noname_width 13
#define noname_height 12
static char noname_bits[] = {
 0xfe,0x03,0x36,0x03,0x33,0x02,0x31,0x02,0x10,0x00,0x18,0x00,0x18,0x00,0x18,
 0x1c,0x08,0x1e,0x3f,0x1a,0x00,0x1b,0x00,0x1e};
