#define noname_width 8
#define noname_height 6
static char noname_bits[] = {
 0x7e,0x6f,0x66,0x66,0xb6,0x76};
