#define noname_width 11
#define noname_height 15
static char noname_bits[] = {
 0x80,0x03,0xc0,0x06,0xc0,0x06,0x00,0x06,0x00,0x03,0x80,0x05,0xdc,0x07,0x36,
 0x00,0x1f,0x01,0x03,0x01,0xb3,0x00,0xde,0x01,0xc0,0x00,0xc0,0x01,0xc0,0x01};
