#define noname_width 16
#define noname_height 14
static char noname_bits[] = {
 0xf0,0x01,0x88,0x01,0x8c,0x01,0x8c,0x00,0x3c,0x00,0x78,0xc4,0xc0,0xc4,0xc2,
 0x62,0x42,0xe7,0x67,0x63,0x1d,0x47,0x00,0x67,0x00,0x70,0x00,0x38};
