#define noname_width 6
#define noname_height 6
static char noname_bits[] = {
 0x3c,0x36,0x03,0x03,0x33,0x1e};
