#define noname_width 18
#define noname_height 12
static char noname_bits[] = {
 0xf8,0x01,0x00,0x30,0x03,0x00,0x18,0x03,0x00,0x18,0x03,0x00,0x98,0x03,0x00,
 0xf8,0x01,0x00,0x0c,0x00,0x00,0x0c,0xb4,0x01,0x0c,0x6e,0x01,0x1f,0x26,0x01,
 0x00,0xa4,0x03,0x00,0xb6,0x03};
