#define noname_width 11
#define noname_height 14
static char noname_bits[] = {
 0x00,0x04,0xf0,0x06,0x98,0x06,0xc8,0x03,0xc4,0x03,0x74,0x01,0x44,0x00,0xc6,
 0x00,0x62,0x00,0x66,0x00,0x3e,0x00,0x03,0x00,0x01,0x00,0x01,0x00};
