#define noname_width 36
#define noname_height 13
static char noname_bits[] = {
 0x00,0x00,0x00,0xf0,0x01,0x00,0x00,0x0c,0xfc,0x07,0x00,0x00,0x07,0x36,0x06,
 0x00,0xc0,0x01,0x32,0x06,0x3e,0x70,0x00,0x30,0x03,0x3f,0x18,0x00,0xf0,0x01,
 0x06,0x70,0x00,0xf8,0x00,0x06,0xc0,0x01,0xd8,0x01,0x06,0x00,0x07,0x98,0x0d,
 0x06,0x00,0x0c,0x8c,0x0f,0x00,0x00,0x00,0x04,0x03,0x00,0x00,0x00,0x00,0x00,
 0x00,0xf8,0x0f,0x00,0x00};
