#define noname_width 15
#define noname_height 9
static char noname_bits[] = {
 0x6e,0x00,0x6f,0x73,0x66,0x27,0x26,0x27,0x36,0x3d,0x3e,0x1d,0xb2,0x18,0xdb,
 0x19,0x0e,0x00};
