#define noname_width 450
#define noname_height 16
static char noname_bits[] = {
 0x00,0x00,0x00,0x00,0x00,0x08,0x00,0x00,0x00,0x00,0x00,0xc0,0x1f,0x00,0x00,
 0x20,0x00,0x00,0x00,0x00,0x00,0x00,0x00,0x00,0x00,0x00,0x00,0x00,0x00,0x00,
 0x00,0x00,0x00,0x00,0x00,0x00,0x00,0x00,0x00,0x00,0x00,0x00,0x00,0x00,0x00,
 0x00,0x00,0x00,0x00,0x00,0x00,0x00,0x00,0x00,0x00,0x00,0x00,0x00,0x00,0x00,
 0x00,0x00,0x0c,0x00,0x00,0x00,0x00,0x00,0x40,0x16,0x00,0x00,0x30,0x00,0x00,
 0x00,0x00,0x00,0x00,0x00,0x00,0x00,0x00,0x00,0x00,0x00,0x00,0x00,0x00,0x00,
 0x00,0x00,0x00,0x00,0x00,0x00,0x00,0x00,0x00,0x00,0x00,0x00,0x00,0x00,0x00,
 0x00,0x00,0x00,0x00,0x00,0x80,0x00,0x40,0x00,0x00,0x00,0xc0,0x7f,0x00,0x08,
 0x70,0x00,0x00,0x00,0x80,0x41,0xd6,0x3f,0x00,0x20,0xc0,0x00,0x38,0x00,0x00,
 0x00,0xf0,0x08,0x00,0x00,0x30,0x00,0x00,0x00,0x00,0x00,0x00,0x00,0x00,0x00,
 0x00,0x00,0x00,0x00,0x00,0x00,0x00,0x00,0x00,0x00,0x00,0x00,0x00,0x00,0x00,
 0x00,0x00,0x40,0x32,0x86,0x00,0x00,0x00,0xc0,0x7f,0x00,0x08,0x58,0x00,0x00,
 0x00,0x80,0x01,0xc3,0x7f,0x00,0x20,0xc0,0x00,0x2c,0x00,0x00,0x00,0xe0,0x3e,
 0x00,0x00,0xd8,0x00,0x00,0x00,0x00,0x00,0x00,0x00,0x00,0x00,0x00,0x00,0x00,
 0x00,0x00,0x00,0x00,0x00,0x00,0x00,0x00,0x00,0x00,0x00,0x00,0x00,0x00,0x60,
 0x1e,0x9b,0x01,0x00,0x00,0x00,0x43,0x7e,0x08,0x18,0x00,0x00,0x02,0xc0,0x01,
 0x03,0xe3,0xf8,0x21,0xe0,0x00,0x0c,0x00,0x00,0x00,0xe0,0x1c,0x00,0x00,0xc8,
 0x00,0x00,0x00,0x00,0x00,0x00,0x00,0x00,0x00,0x00,0x00,0x00,0x00,0x00,0x00,
 0x00,0x00,0x00,0x00,0x00,0x00,0x00,0x00,0x00,0x00,0x00,0x30,0x82,0x1b,0x03,
 0x00,0x00,0x00,0x5b,0x00,0x08,0x38,0x00,0x00,0x02,0xc0,0x03,0x03,0xe3,0x00,
 0x20,0xe0,0x01,0x1c,0x00,0x00,0x00,0xe0,0x3e,0x00,0x00,0x8c,0x00,0x00,0x00,
 0x00,0x00,0x00,0x00,0x00,0x00,0x00,0x00,0x00,0x00,0x00,0x00,0x00,0x00,0x00,
 0x00,0x00,0x00,0x00,0x00,0x00,0x00,0x00,0x30,0x82,0x13,0x03,0x00,0x00,0x00,
 0x1f,0x00,0x3c,0x38,0x7f,0x00,0x02,0xe0,0xc3,0x07,0xf3,0x00,0xf0,0xf0,0x01,
 0xdc,0x1f,0x00,0x00,0xfe,0x08,0xf0,0x1f,0x8c,0x00,0x00,0x00,0x00,0x00,0x00,
 0x00,0x00,0x00,0x00,0x00,0x00,0x00,0x00,0x00,0x00,0x00,0x00,0x00,0x00,0x00,
 0x00,0x00,0x00,0x00,0x00,0x10,0x1e,0x18,0x02,0x00,0x00,0x00,0x1f,0x00,0x00,
 0x6c,0xc6,0x00,0x02,0x60,0x07,0x00,0x7f,0x00,0x00,0xb0,0x03,0xb6,0x31,0x00,
 0x00,0xe6,0x00,0xf8,0x1f,0x8c,0x00,0x00,0x00,0x00,0x00,0x00,0x00,0x00,0x00,
 0x00,0x00,0x00,0x00,0x00,0x00,0x00,0x00,0x00,0x00,0x00,0x00,0x00,0x00,0x00,
 0x00,0x00,0x10,0x32,0x18,0x02,0x00,0x00,0x00,0x9b,0x00,0x00,0x66,0xc6,0xf0,
 0x3f,0xe0,0x07,0x00,0x73,0x00,0x00,0xf0,0x03,0xb3,0x31,0xf8,0x0f,0xe7,0x00,
 0x00,0x00,0x8c,0x00,0x00,0x00,0x00,0x00,0x00,0x00,0x00,0x00,0x00,0x00,0x00,
 0x00,0x00,0x00,0x00,0x00,0x00,0x00,0x00,0x00,0x00,0x00,0x00,0x00,0x00,0x10,
 0x30,0x0c,0x02,0x00,0x00,0x00,0xc3,0x00,0x00,0x26,0xc6,0x00,0x02,0xf0,0x07,
 0x00,0x63,0x00,0x00,0xf8,0x03,0x93,0x31,0x00,0x00,0xe7,0x00,0x00,0x00,0x8c,
 0x00,0x00,0x00,0x00,0x00,0x00,0x00,0x00,0x00,0x00,0x00,0x00,0x00,0x00,0x00,
 0x00,0x00,0x00,0x00,0x00,0x00,0x00,0x00,0x00,0x00,0x00,0x10,0x33,0x16,0x02,
 0x00,0x00,0x00,0xc3,0x00,0x00,0x26,0xc6,0x00,0x02,0x10,0x0e,0x00,0x63,0x02,
 0x00,0x08,0x07,0x93,0x31,0x00,0x00,0xe6,0x00,0xf8,0x1f,0xc8,0x00,0x00,0x00,
 0x00,0x00,0x00,0x00,0x00,0x00,0x00,0x00,0x00,0x00,0x00,0x00,0x00,0x00,0x00,
 0x00,0x00,0x00,0x00,0x00,0x00,0x00,0x00,0x10,0x33,0x13,0x02,0x00,0x00,0xc0,
 0x7f,0x00,0x00,0x1c,0x7e,0x00,0x02,0x3c,0x1f,0xc0,0xef,0x03,0x00,0x9e,0x0f,
 0x8e,0x1f,0x00,0x00,0xfe,0x01,0x00,0x00,0xd8,0x00,0x00,0x00,0x00,0x00,0x00,
 0x00,0x00,0x00,0x00,0x00,0x00,0x00,0x00,0x00,0x00,0x00,0x00,0x00,0x00,0x00,
 0x00,0x00,0x00,0x00,0x00,0x30,0xbe,0x1f,0x03,0x00,0x00,0x00,0x00,0x00,0x00,
 0x00,0x06,0x00,0x02,0x00,0x00,0x00,0x00,0x00,0x00,0x00,0x00,0x80,0x01,0x00,
 0x00,0x00,0x00,0x00,0x00,0x70,0x00,0x00,0x00,0x00,0x00,0x00,0x00,0x00,0x00,
 0x00,0x00,0x00,0x00,0x00,0x00,0x00,0x00,0x00,0x00,0x00,0x00,0x00,0x00,0x00,
 0x00,0x00,0x30,0x0c,0x00,0x03,0x00,0x00,0x00,0x00,0x00,0x00,0x00,0x06,0x00,
 0x02,0x00,0x00,0x00,0x00,0x00,0x00,0x00,0x00,0x80,0x01,0x00,0x00,0x00,0x00,
 0x00,0x00,0x00,0x00,0x00,0x00,0x00,0x00,0x00,0x00,0x00,0x00,0x00,0x00,0x00,
 0x00,0x00,0x00,0x00,0x00,0x00,0x00,0x00,0x00,0x00,0x00,0x00,0x00,0x00,0x20,
 0x00,0x00,0x01,0x00,0x00,0x00,0x00,0x00,0x00,0x00,0x0f,0x00,0x00,0x00,0x00,
 0x00,0x00,0x00,0x00,0x00,0x00,0xc0,0x03,0x00,0x00,0x00,0x00,0x00,0x00,0x00,
 0x00,0x00,0x00,0x00,0x00,0x00,0x00,0x00,0x00,0x00,0x00,0x00,0x00,0x00,0x00,
 0x00,0x00,0x00,0x00,0x00,0x00,0x00,0x00,0x00,0x00,0x00,0x60,0x00,0x80,0x01,
 0x00,0x00,0x00,0x00,0x00,0x00,0x00,0x00,0x00,0x00,0x00,0x00,0x00,0x00,0x00,
 0x00,0x00,0x00,0x00,0x00,0x00,0x00,0x00,0x00,0x00,0x00,0x00,0x00,0x00,0x00,
 0x00,0x00,0x00,0x00,0x00,0x00,0x00,0x00,0x00,0x00,0x00,0x00,0x00,0x00,0x00,
 0x00,0x00,0x00,0x00,0x00,0x00,0x00,0x00,0xc0,0x00,0xc0,0x00};
