#define noname_width 10
#define noname_height 10
static char noname_bits[] = {
 0xf8,0x01,0x30,0x03,0x18,0x03,0x18,0x03,0x98,0x03,0xf8,0x01,0x0c,0x00,0x0c,
 0x00,0x0c,0x00,0x1f,0x00};
