#define noname_width 450
#define noname_height 15
static char noname_bits[] = {
 0x00,0x00,0x00,0x00,0x00,0x00,0x00,0x00,0x00,0x00,0x00,0x00,0x00,0x01,0x00,
 0x00,0x00,0x00,0x00,0x00,0x00,0x00,0x00,0x80,0x00,0x00,0x00,0x00,0x00,0x00,
 0x00,0x00,0x00,0x00,0x00,0x00,0x00,0x00,0x00,0x00,0x00,0x00,0x00,0x00,0x00,
 0x00,0x00,0x00,0x00,0x00,0x00,0x00,0x00,0x80,0x00,0x40,0x00,0x00,0x00,0x00,
 0x00,0x00,0xc0,0x1f,0x00,0x00,0x00,0xf0,0x07,0x80,0x78,0xef,0xc1,0x7f,0x00,
 0x80,0xc0,0x7f,0x00,0x04,0x00,0x01,0x00,0x00,0x00,0x00,0x00,0x00,0x00,0x00,
 0x00,0x00,0x00,0x00,0x00,0x00,0x00,0x00,0x00,0x00,0x00,0x00,0x00,0x00,0x00,
 0x00,0x00,0x00,0x00,0x00,0x40,0x08,0x88,0x00,0x00,0x00,0x00,0x00,0x00,0x60,
 0x1c,0x00,0x00,0x00,0x18,0x07,0xc0,0x10,0xc6,0xc0,0x66,0x00,0xc0,0xc1,0x66,
 0x00,0x0e,0x00,0x03,0x00,0x00,0x00,0x00,0x00,0x00,0x00,0x00,0x00,0x00,0x00,
 0x00,0x00,0x00,0x00,0x00,0x00,0x00,0x00,0x00,0x00,0x00,0x00,0x00,0x00,0x00,
 0x00,0x00,0x60,0x0e,0x8c,0x01,0x00,0x00,0x00,0x00,0x00,0x30,0x08,0x00,0x00,
 0x00,0x0c,0x02,0x60,0x10,0x47,0x60,0x46,0x00,0xc0,0x61,0x46,0x00,0x0e,0x00,
 0x06,0x00,0x00,0x00,0x00,0x00,0x00,0x00,0x00,0x00,0x00,0x00,0x00,0x00,0x00,
 0x00,0x00,0x00,0x00,0x00,0x00,0x00,0x00,0x00,0x00,0x00,0x00,0x00,0x00,0x30,
 0x08,0x0c,0x03,0x00,0x00,0x00,0x00,0x00,0x18,0x08,0x00,0x00,0x00,0x06,0x02,
 0x60,0x10,0x27,0x20,0x46,0x00,0xe0,0x23,0x46,0x00,0x1f,0x00,0x06,0x00,0x00,
 0x00,0x00,0x00,0x00,0x00,0x00,0x00,0x00,0x00,0x00,0x00,0x00,0x00,0x00,0x00,
 0x00,0x00,0x00,0x00,0x00,0x00,0x00,0x00,0x00,0x00,0x00,0x30,0x08,0x0e,0x03,
 0x00,0x00,0x00,0x00,0x00,0x18,0x00,0x00,0xf8,0x0f,0x06,0x00,0x20,0x90,0x37,
 0x00,0x02,0x00,0x20,0x03,0x02,0x00,0x19,0x3c,0x04,0x00,0x00,0x00,0x00,0x00,
 0x00,0x00,0x00,0x00,0x00,0x00,0x00,0x00,0x00,0x00,0x00,0x00,0x00,0x00,0x00,
 0x00,0x00,0x00,0x00,0x00,0x00,0x00,0x00,0x10,0x08,0x0b,0x02,0x00,0x00,0x00,
 0x00,0x00,0x1c,0xc0,0x07,0xfc,0x0f,0x07,0xf0,0x21,0xb0,0x16,0x00,0x03,0x00,
 0x30,0x07,0x03,0x80,0x39,0x36,0x04,0x00,0x00,0x00,0x00,0x00,0x00,0x00,0x00,
 0x00,0x00,0x00,0x00,0x00,0x00,0x00,0x00,0x00,0x00,0x00,0x00,0x00,0x00,0x00,
 0x00,0x00,0x00,0x00,0x00,0x10,0x08,0x09,0x02,0x00,0x00,0x00,0x00,0x00,0x0c,
 0xc4,0x0c,0x00,0x00,0x03,0x31,0x23,0x70,0x1e,0x00,0x03,0x00,0x10,0x06,0x03,
 0x80,0x30,0x33,0x04,0x00,0x00,0x00,0x00,0x00,0x00,0x00,0x00,0x00,0x00,0x00,
 0x00,0x00,0x00,0x00,0x00,0x00,0x00,0x00,0x00,0x00,0x00,0x00,0x00,0x00,0x00,
 0x00,0x00,0x10,0x88,0x09,0x02,0x00,0x00,0x00,0x00,0x00,0x0c,0xc4,0x08,0x00,
 0x00,0x03,0x31,0x22,0x70,0x0e,0x00,0x83,0x03,0x18,0x0e,0x03,0xc0,0x70,0x13,
 0x04,0x00,0x00,0x00,0x00,0x00,0x00,0x00,0x00,0x00,0x00,0x00,0x00,0x00,0x00,
 0x00,0x00,0x00,0x00,0x00,0x00,0x00,0x00,0x00,0x00,0x00,0x00,0x00,0x00,0x10,
 0x88,0x3f,0x02,0x00,0x00,0x00,0x00,0x00,0x18,0xc6,0x0c,0xfc,0x0f,0x86,0x31,
 0x23,0x30,0x8e,0x01,0xc1,0x33,0x08,0x0c,0x81,0x41,0x60,0x1b,0x04,0x00,0x00,
 0x00,0x00,0x00,0x00,0x00,0x00,0x00,0x00,0x00,0x00,0x00,0x00,0x00,0x00,0x00,
 0x00,0x00,0x00,0x00,0x00,0x00,0x00,0x00,0x00,0x00,0x00,0x10,0x08,0x08,0x02,
 0x00,0x00,0x00,0x00,0x00,0xb8,0x43,0x0c,0x00,0x00,0xee,0x10,0x63,0x30,0x86,
 0xe1,0x47,0x33,0xfc,0xff,0x87,0xe1,0xff,0x1e,0x06,0x00,0x00,0x00,0x00,0x00,
 0x00,0x00,0x00,0x00,0x00,0x00,0x00,0x00,0x00,0x00,0x00,0x00,0x00,0x00,0x00,
 0x00,0x00,0x00,0x00,0x00,0x00,0x00,0x00,0x30,0x3e,0x3e,0x03,0x00,0x00,0x00,
 0x00,0x00,0xe0,0x60,0x06,0x00,0x00,0x38,0x98,0x61,0x10,0x02,0x01,0x60,0x23,
 0x00,0x00,0x00,0x01,0x00,0x18,0x06,0x00,0x00,0x00,0x00,0x00,0x00,0x00,0x00,
 0x00,0x00,0x00,0x00,0x00,0x00,0x00,0x00,0x00,0x00,0x00,0x00,0x00,0x00,0x00,
 0x00,0x00,0x00,0x00,0x00,0x30,0x00,0x00,0x03,0x00,0x00,0x00,0x00,0x00,0x00,
 0xf0,0x07,0x00,0x00,0x00,0xfc,0x41,0x00,0x00,0x01,0xc0,0x23,0x00,0x00,0x00,
 0x01,0x00,0x08,0x02,0x00,0x00,0x00,0x00,0x00,0x00,0x00,0x00,0x00,0x00,0x00,
 0x00,0x00,0x00,0x00,0x00,0x00,0x00,0x00,0x00,0x00,0x00,0x00,0x00,0x00,0x00,
 0x00,0x00,0x20,0x00,0x00,0x01,0x00,0x00,0x00,0x00,0x00,0x00,0x00,0x00,0x00,
 0x00,0x00,0x00,0xc0,0x00,0x80,0x00,0x00,0x10,0x00,0x00,0x80,0x00,0x00,0x1e,
 0x03,0x00,0x00,0x00,0x00,0x00,0x00,0x00,0x00,0x00,0x00,0x00,0x00,0x00,0x00,
 0x00,0x00,0x00,0x00,0x00,0x00,0x00,0x00,0x00,0x00,0x00,0x00,0x00,0x00,0x60,
 0x00,0x80,0x01,0x00,0x00,0x00,0x00,0x00,0x00,0x00,0x00,0x00,0x00,0x00,0x00,
 0x80,0x01,0x00,0x00,0x00,0x00,0x00,0x00,0x00,0x00,0x00,0x80,0x01,0x00,0x00,
 0x00,0x00,0x00,0x00,0x00,0x00,0x00,0x00,0x00,0x00,0x00,0x00,0x00,0x00,0x00,
 0x00,0x00,0x00,0x00,0x00,0x00,0x00,0x00,0x00,0x00,0x00,0xc0,0x00,0xc0,0x00};
