#define noname_width 74
#define noname_height 13
static char noname_bits[] = {
 0x00,0x00,0x00,0x00,0x40,0x00,0x00,0xc0,0x01,0x00,0x00,0x00,0x00,0x00,0xf0,
 0x01,0x00,0x60,0x01,0x00,0x00,0x00,0x00,0x00,0xe0,0x00,0x04,0x60,0x00,0x00,
 0x00,0x00,0x00,0x00,0xf0,0x01,0x04,0xe0,0x00,0x00,0x7f,0xe0,0x3f,0xf8,0x43,
 0x00,0x04,0xe0,0xfc,0x01,0xc6,0xf0,0x3f,0x30,0x06,0x00,0x04,0xb0,0x19,0x03,
 0xc6,0x00,0x00,0x30,0x06,0xe0,0x7f,0x98,0x19,0x03,0xc6,0x00,0x00,0x30,0x06,
 0x00,0x04,0x98,0x18,0x03,0xc6,0xf0,0x3f,0x30,0x06,0x00,0x04,0x98,0x18,0x03,
 0x7e,0x00,0x00,0xf0,0x03,0x00,0x04,0x70,0xf8,0x01,0x06,0x00,0x00,0x30,0x00,
 0x00,0x04,0x00,0x18,0x00,0x06,0x00,0x00,0x30,0x00,0x00,0x04,0x00,0x18,0x00,
 0x0f,0x00,0x00,0x78,0x00,0x00,0x00,0x00,0x3c,0x00};
