#define noname_width 33
#define noname_height 13
static char noname_bits[] = {
 0x00,0x00,0x00,0xa1,0x01,0x00,0x00,0x80,0xe1,0x00,0x00,0x08,0x06,0x21,0x00,
 0x00,0x0e,0x1b,0xe1,0x01,0x00,0x08,0x19,0x81,0x01,0x61,0x88,0x11,0xb1,0x01,
 0x33,0x88,0x91,0xe7,0x01,0x1e,0x88,0x11,0x00,0x00,0x0c,0x88,0x11,0x00,0x00,
 0x1e,0x88,0x11,0x00,0x00,0x33,0x08,0x19,0x00,0x00,0x61,0x3e,0x1b,0x00,0x00,
 0x00,0x00,0x0e,0x00,0x00};
