#define noname_width 43
#define noname_height 15
static char noname_bits[] = {
 0x00,0x10,0x00,0x10,0x80,0x00,0xe0,0x08,0x7f,0x10,0x1e,0x01,0xf0,0x0c,0x73,
 0x18,0x0c,0x03,0x30,0x86,0x31,0x18,0x06,0x06,0x30,0x86,0x18,0x08,0x06,0x06,
 0x7c,0x02,0x0c,0x0c,0x06,0x04,0x18,0x02,0x06,0x04,0x06,0x04,0x18,0x02,0x33,
 0x04,0x43,0x04,0x18,0x82,0x11,0x06,0x63,0x04,0x18,0xc2,0x19,0x02,0x23,0x04,
 0x08,0xe6,0x1f,0xc3,0x3f,0x06,0x0c,0x06,0x00,0x03,0x00,0x06,0x0f,0x04,0x00,
 0x01,0x00,0x02,0x07,0x0c,0x80,0x01,0x00,0x03,0x00,0x18,0x80,0x01,0x80,0x01};
