#define noname_width 38
#define noname_height 9
static char noname_bits[] = {
 0x6e,0xf0,0x1f,0xdc,0x00,0x6f,0xf8,0x1f,0xde,0x00,0x66,0x00,0x00,0xcc,0x00,
 0x26,0x00,0x00,0x4c,0x1a,0x36,0xf8,0x1f,0x6c,0x17,0x3e,0x00,0x00,0x7c,0x13,
 0x32,0x00,0x00,0x64,0x3a,0x1b,0x00,0x00,0x36,0x3b,0x0e,0x00,0x00,0x1c,0x00};
