#define noname_width 17
#define noname_height 12
static char noname_bits[] = {
 0xf8,0x01,0x00,0x30,0x03,0x00,0x18,0x03,0x00,0x18,0x03,0x00,0x98,0x03,0x00,
 0xf8,0xf0,0x01,0x8c,0x90,0x00,0x8c,0x90,0x00,0xcc,0xf4,0x00,0xdf,0xc3,0x00,
 0x80,0xcb,0x00,0x00,0x7c,0x00};
