#define noname_width 31
#define noname_height 14
static char noname_bits[] = {
 0xef,0x3d,0x00,0x00,0xc2,0x18,0x00,0x00,0xe2,0x08,0x00,0x00,0xe2,0x04,0x00,
 0x00,0xf2,0x06,0x00,0x00,0xd6,0x02,0xc3,0x00,0xce,0x03,0x02,0x00,0xce,0xe1,
 0xce,0x1e,0xc6,0xf1,0x9e,0x3c,0xc6,0xf0,0x92,0x64,0x42,0xd0,0x92,0x64,0x00,
 0xf0,0xff,0x3d,0x00,0x00,0x00,0x04,0x00,0x00,0x00,0x0e};
