#define noname_width 13
#define noname_height 8
static char noname_bits[] = {
 0x7e,0x00,0x7a,0x0e,0x18,0x1b,0x08,0x1b,0x6f,0x18,0x3f,0x0c,0x00,0x16,0x00,
 0x1f};
