#define noname_width 7
#define noname_height 6
static char noname_bits[] = {
 0x7e,0x0b,0x08,0x0c,0x0c,0x0c};
