#define noname_width 50
#define noname_height 11
static char noname_bits[] = {
 0x00,0x00,0x00,0x20,0x80,0x23,0x03,0x00,0x00,0x00,0x38,0xc0,0xe6,0x01,0x00,
 0x00,0x00,0x20,0x40,0x24,0x00,0x00,0x00,0x00,0x20,0xc0,0x26,0x00,0x7e,0xe0,
 0x3f,0x20,0xc0,0xe3,0x01,0x7a,0xf0,0x3f,0x20,0xc0,0x27,0x03,0x18,0x00,0x00,
 0x20,0x40,0x07,0x03,0x08,0x00,0x00,0x20,0x60,0x34,0x03,0x6f,0xf0,0x3f,0x20,
 0x6c,0x34,0x03,0x3f,0x00,0x00,0xf8,0xcc,0xe6,0x03,0x00,0x00,0x00,0x00,0x80,
 0xc3,0x00};
