#define noname_width 34
#define noname_height 12
static char noname_bits[] = {
 0xef,0x3d,0x00,0x00,0x00,0xc2,0x18,0x00,0x00,0x00,0xe2,0x08,0x00,0x00,0x00,
 0xe2,0x04,0x00,0x00,0x00,0xf2,0x06,0x00,0x00,0x00,0xd6,0x02,0x00,0x80,0x01,
 0xce,0x03,0x00,0x00,0x01,0xce,0xf1,0xce,0xe3,0x01,0xc6,0xe1,0x9b,0xb7,0x01,
 0xc6,0x20,0x9e,0x14,0x01,0x42,0x20,0xbb,0x34,0x01,0x00,0x70,0xff,0xef,0x03};
