#define noname_width 14
#define noname_height 9
static char noname_bits[] = {
 0x6e,0x3c,0x6f,0x36,0x66,0x33,0x26,0x13,0x76,0x1b,0x7e,0x1e,0x00,0x18,0x00,
 0x08,0x00,0x1e};
