#define noname_width 17
#define noname_height 14
static char noname_bits[] = {
 0x80,0x01,0x00,0x80,0x01,0x00,0xc0,0x01,0x00,0xc0,0x01,0x00,0xe0,0x01,0x00,
 0xa0,0x01,0x00,0xb0,0x01,0x00,0xf8,0x13,0x01,0x0d,0xbb,0x01,0x07,0xa7,0x00,
 0x07,0x63,0x00,0x00,0x60,0x00,0x00,0xd0,0x00,0x00,0xd8,0x01};
