#define noname_width 14
#define noname_height 9
static char noname_bits[] = {
 0x78,0x00,0x6c,0x00,0x66,0x00,0x66,0x29,0xb6,0x2f,0x9e,0x2d,0x03,0x35,0x03,
 0x1f,0x03,0x00};
