#define noname_width 117
#define noname_height 16
static char noname_bits[] = {
 0x00,0x00,0x00,0x00,0x00,0x00,0x00,0x00,0x38,0x00,0x00,0x00,0x00,0x07,0x00,
 0x00,0x00,0x00,0x00,0x00,0x00,0x00,0x04,0x6c,0x00,0x00,0x00,0x80,0x0d,0x02,
 0xff,0x01,0x00,0x00,0x66,0x00,0x00,0x02,0x6c,0x00,0x00,0x00,0x80,0x0d,0x04,
 0xff,0x01,0x00,0x00,0x64,0x00,0x00,0x03,0x60,0x00,0x00,0x00,0x00,0x0c,0x0c,
 0x0c,0x01,0x00,0x00,0x04,0x00,0x80,0x01,0x30,0x00,0x00,0x00,0x00,0x06,0x18,
 0x6c,0x01,0x00,0x00,0x04,0x00,0x90,0x01,0x58,0x00,0x00,0x00,0x00,0x0b,0x18,
 0x7c,0x80,0xff,0xc0,0x77,0x1e,0xbf,0xc0,0x7d,0x00,0x00,0x00,0xb8,0x0f,0x10,
 0x7c,0xc0,0xff,0x40,0x64,0x36,0x89,0x60,0x03,0x00,0x00,0x00,0x6c,0x00,0x10,
 0x6c,0x02,0x00,0x60,0x64,0x3c,0x89,0xf0,0x11,0x00,0x00,0x00,0x3e,0x00,0x10,
 0x0c,0x03,0x00,0x60,0x64,0x36,0x8f,0x30,0x18,0x00,0x00,0x00,0x06,0x00,0x10,
 0x0c,0xc3,0xff,0x40,0x64,0x73,0x81,0x30,0x13,0x06,0x33,0x33,0x66,0x6d,0x10,
 0xff,0x01,0x00,0xc0,0xff,0x7e,0x9f,0xe1,0x11,0x06,0x33,0x33,0xbc,0x5b,0x18,
 0x00,0x00,0x00,0x00,0x00,0x80,0xb1,0x01,0x10,0x04,0x00,0x20,0x80,0x49,0x18,
 0x00,0x00,0x00,0x00,0x00,0x80,0x31,0x01,0x10,0x04,0x00,0x20,0x00,0xe9,0x08,
 0x00,0x00,0x00,0x00,0x00,0x00,0x1f,0x03,0x78,0x02,0x00,0x10,0x80,0xed,0x0c,
 0x00,0x00,0x00,0x00,0x00,0x00,0x00,0x06,0x00,0x00,0x00,0x00,0x00,0x00,0x06};
