#define noname_width 456
#define noname_height 17
static char noname_bits[] = {
 0x00,0x00,0x00,0x00,0x40,0x00,0x00,0x00,0x00,0x00,0x00,0x00,0x00,0x00,0x00,
 0x00,0x00,0x00,0x00,0x00,0x00,0x00,0x00,0x00,0x00,0x00,0x00,0x00,0x00,0x00,
 0x00,0x00,0x00,0x00,0x00,0x00,0x00,0x00,0x00,0x00,0x00,0x00,0x00,0x00,0x00,
 0x00,0x00,0x00,0x00,0x00,0x00,0x00,0x00,0x00,0x00,0x00,0x00,0x00,0x00,0x00,
 0x00,0xe0,0x00,0x00,0x00,0x00,0x00,0x00,0x00,0x00,0x00,0x00,0x00,0x00,0x00,
 0x00,0x00,0x00,0x00,0x00,0x00,0x00,0x00,0x00,0x00,0x00,0x00,0x00,0x00,0x00,
 0x00,0x00,0x00,0x00,0x00,0x00,0x00,0x00,0x00,0x00,0x00,0x00,0x00,0x00,0x00,
 0x00,0x00,0x00,0x00,0x00,0x00,0x00,0x00,0x00,0x00,0x00,0x00,0x00,0x90,0x00,
 0x40,0x00,0x10,0x00,0x00,0x00,0x00,0x00,0x01,0x00,0x00,0x20,0x00,0x00,0x00,
 0x00,0x00,0x00,0x00,0x00,0x00,0x00,0x00,0x00,0x00,0x00,0x00,0x00,0x00,0x00,
 0x00,0x00,0x00,0x00,0x00,0x00,0x00,0x00,0x00,0x00,0x00,0x00,0x00,0x00,0x00,
 0x00,0x00,0x00,0x20,0x00,0x10,0x60,0x00,0x00,0x00,0x0e,0x02,0x20,0x00,0x20,
 0x00,0x00,0x70,0x10,0x80,0x00,0x00,0x00,0x40,0x00,0x00,0x00,0x00,0x00,0x03,
 0x00,0x00,0x01,0x00,0x00,0x00,0x00,0x00,0x00,0x00,0x00,0x00,0x00,0x00,0x00,
 0x00,0x00,0x00,0x00,0x00,0x00,0x00,0x00,0x00,0x00,0x00,0x00,0x00,0x00,0x00,
 0x90,0x8c,0x21,0x60,0x00,0x00,0x00,0x0f,0x03,0x30,0x00,0x60,0x00,0x00,0x78,
 0x18,0xc0,0x00,0x00,0x00,0xc0,0x00,0x00,0x00,0x00,0x00,0x03,0x00,0xc0,0x01,
 0x00,0x00,0x00,0x00,0x00,0x00,0x00,0x00,0x00,0x00,0x00,0x00,0x00,0x00,0x00,
 0x00,0x00,0x00,0x00,0x00,0x00,0x00,0x00,0x00,0x00,0x00,0x00,0x98,0xc7,0x66,
 0x60,0x00,0x00,0x80,0x8d,0x01,0x18,0x00,0xc0,0x00,0x00,0x6c,0x0c,0x60,0x00,
 0x00,0x00,0x80,0x01,0x00,0x00,0x00,0x00,0x00,0x00,0x00,0x01,0x00,0x00,0x00,
 0x00,0x00,0x00,0x00,0x00,0x00,0x00,0x00,0x00,0x00,0x00,0x00,0x00,0x00,0x00,
 0x00,0x00,0x00,0x00,0x00,0x00,0x00,0x00,0x00,0x8c,0x40,0xc6,0x60,0x00,0x00,
 0x80,0x8c,0x01,0x18,0x00,0xc0,0x00,0x00,0x64,0x0c,0x60,0x00,0x00,0x00,0x80,
 0x01,0x00,0x00,0x00,0x00,0x00,0x00,0x00,0x01,0x00,0x00,0x00,0x00,0x00,0x00,
 0x00,0x00,0x00,0x00,0x00,0x00,0x00,0x00,0x00,0x00,0x00,0x00,0x00,0x00,0x00,
 0x00,0x00,0x00,0x00,0x00,0x00,0x8c,0x60,0xc4,0x3c,0x00,0xfc,0x07,0xfc,0x01,
 0x08,0x37,0x80,0x00,0x00,0xe0,0x0f,0x20,0xdc,0x00,0xf0,0x07,0x01,0x00,0x00,
 0x00,0xc0,0x01,0xff,0x01,0x01,0x00,0x00,0xc0,0x0f,0x00,0x00,0x00,0x00,0x00,
 0x00,0x00,0x00,0x00,0x00,0x00,0x00,0x00,0x00,0x00,0x00,0x00,0x00,0x00,0x00,
 0x00,0x00,0x00,0x84,0x67,0x84,0x36,0x06,0xfe,0x07,0xfc,0x00,0x88,0x37,0x83,
 0x00,0x00,0xe0,0x07,0x20,0xde,0x0c,0x60,0x0c,0x01,0x00,0x00,0x00,0xe0,0x81,
 0xff,0x01,0x01,0x00,0x00,0xe0,0x0d,0x00,0x00,0x00,0x00,0x00,0x00,0x00,0x00,
 0x00,0x00,0x00,0x00,0x00,0x00,0x00,0x00,0x00,0x00,0x00,0x00,0x00,0x00,0x00,
 0x84,0x6c,0x84,0x33,0x06,0x00,0x00,0xc6,0x00,0x08,0x33,0x83,0xe0,0x3f,0x30,
 0x06,0x20,0xcc,0x0c,0x60,0x0c,0x01,0x00,0x00,0x00,0x80,0x01,0x00,0x00,0x01,
 0x00,0x00,0xc0,0x0c,0x00,0x00,0x00,0x00,0x00,0x00,0x00,0x00,0x00,0x00,0x00,
 0x00,0x00,0x00,0x00,0x00,0x00,0x00,0x00,0x00,0x00,0x00,0x00,0x04,0x6c,0x84,
 0x33,0x03,0x00,0x00,0xc6,0x90,0x08,0x93,0x81,0x00,0x00,0x30,0x46,0x22,0x4c,
 0x06,0x60,0x0c,0x01,0x00,0x00,0x00,0x80,0x01,0x00,0x00,0x01,0x00,0x00,0xc0,
 0x0c,0x00,0x00,0x00,0x00,0x00,0x00,0x00,0x00,0x00,0x00,0x00,0x00,0x00,0x00,
 0x00,0x00,0x00,0x00,0x00,0x00,0x00,0x00,0x00,0xc4,0x6c,0x84,0x53,0x07,0xfe,
 0x07,0xc6,0xf8,0x08,0x9b,0x83,0x00,0x00,0x30,0xe6,0x23,0x6c,0x8e,0x61,0x0c,
 0x31,0x00,0x00,0x00,0x80,0x80,0xff,0x01,0x61,0x30,0x33,0xc3,0x16,0x06,0x00,
 0x00,0x00,0x00,0x00,0x00,0x00,0x00,0x00,0x00,0x00,0x00,0x00,0x00,0x00,0x00,
 0x00,0x00,0x00,0x00,0x00,0x00,0xc4,0x4c,0x86,0x7e,0x03,0x00,0x00,0xc3,0xdb,
 0x18,0x9f,0xc1,0x00,0x00,0x18,0x7e,0x63,0x7c,0x86,0xe1,0x87,0x31,0x00,0x00,
 0x00,0xc0,0x00,0x00,0xc0,0x67,0x30,0x33,0xc3,0x0e,0x06,0x00,0x00,0x00,0x00,
 0x00,0x00,0x00,0x00,0x00,0x00,0x00,0x00,0x00,0x00,0x00,0x00,0x00,0x00,0x00,
 0x00,0x00,0x00,0x8c,0xcf,0xc6,0x00,0x02,0x00,0x00,0xc1,0x51,0x18,0x19,0xc1,
 0x00,0x00,0x08,0x4e,0x61,0x64,0x04,0x61,0x80,0x21,0x00,0x00,0x00,0xc0,0x00,
 0x00,0x00,0x40,0x00,0x00,0x02,0x00,0x00,0x00,0x00,0x00,0x00,0x00,0x00,0x00,
 0x00,0x00,0x00,0x00,0x00,0x00,0x00,0x00,0x00,0x00,0x00,0x00,0x00,0x00,0x00,
 0x0c,0x83,0xc3,0x00,0x03,0x00,0x00,0x00,0x70,0x90,0x8d,0x41,0x00,0x00,0x00,
 0xc0,0x41,0x36,0x06,0x61,0x80,0x20,0x00,0x00,0x00,0xf0,0x00,0x00,0x00,0x40,
 0x00,0x00,0x02,0x00,0x00,0x00,0x00,0x00,0x00,0x00,0x00,0x00,0x00,0x00,0x00,
 0x00,0x00,0x00,0x00,0x00,0x00,0x00,0x00,0x00,0x00,0x00,0x00,0x08,0x00,0x40,
 0x80,0x03,0x00,0x00,0x00,0x78,0x30,0xc7,0x61,0x00,0x00,0x00,0xe0,0xc1,0x1c,
 0x87,0xf0,0xc0,0x10,0x00,0x00,0x00,0x70,0x00,0x00,0x00,0x20,0x00,0x00,0x01,
 0x00,0x00,0x00,0x00,0x00,0x00,0x00,0x00,0x00,0x00,0x00,0x00,0x00,0x00,0x00,
 0x00,0x00,0x00,0x00,0x00,0x00,0x00,0x00,0x00,0x18,0x00,0x60,0xc0,0x01,0x00,
 0x00,0x00,0x38,0x60,0xe0,0x30,0x00,0x00,0x00,0xe0,0x80,0x81,0x03,0x00,0x60,
 0x00,0x00,0x00,0x00,0x00,0x00,0x00,0x00,0x00,0x00,0x00,0x00,0x00,0x00,0x00,
 0x00,0x00,0x00,0x00,0x00,0x00,0x00,0x00,0x00,0x00,0x00,0x00,0x00,0x00,0x00,
 0x00,0x00,0x00,0x00,0x00,0x00,0x30,0x00,0x30};
