#define noname_width 16
#define noname_height 12
static char noname_bits[] = {
 0x80,0x01,0x80,0x01,0xc0,0x01,0xc0,0x01,0xe0,0x01,0xa0,0x01,0xb0,0x01,0xf8,
 0x63,0x0d,0xf3,0x07,0x17,0x07,0x9b,0x00,0x70};
