#define noname_width 14
#define noname_height 10
static char noname_bits[] = {
 0xfc,0x00,0xde,0x00,0xcc,0x00,0xcc,0x22,0x6c,0x37,0x3c,0x14,0x06,0x0c,0x06,
 0x0c,0x0f,0x1a,0x00,0x3b};
