#define noname_width 16
#define noname_height 13
static char noname_bits[] = {
 0xf0,0x01,0x18,0x03,0x0c,0x03,0x06,0x03,0x06,0x03,0x07,0x63,0x03,0xd3,0x83,
 0x99,0xfe,0x99,0xee,0x99,0x78,0xd9,0xe0,0xf1,0xe0,0x00};
