#define noname_width 67
#define noname_height 15
static char noname_bits[] = {
 0x00,0x00,0x03,0x00,0x00,0x00,0x00,0x00,0x00,0x00,0x00,0x03,0x00,0x00,0x00,
 0x00,0x00,0x00,0xfe,0x33,0xc7,0x00,0x00,0x60,0x00,0x03,0x01,0x36,0x7b,0xe7,
 0x00,0x00,0xb0,0x81,0xcd,0x01,0x33,0x4a,0xe5,0x00,0x04,0x90,0x81,0x0c,0x01,
 0x31,0xee,0xf5,0x00,0x04,0x18,0xc1,0x08,0x01,0x10,0x38,0xf7,0x00,0x04,0x18,
 0xc1,0x08,0x01,0x18,0x00,0x00,0x00,0x04,0x18,0xc1,0x08,0x01,0x18,0x00,0x00,
 0xe0,0x7f,0x18,0xc1,0x08,0x01,0x18,0x00,0x00,0x00,0x04,0x18,0xc1,0x08,0x01,
 0x08,0x0c,0x00,0x00,0x04,0x90,0x99,0x0c,0x01,0x3f,0x0e,0x00,0x00,0x04,0xb0,
 0x99,0xcd,0x07,0x00,0x0e,0x00,0x00,0x04,0xe0,0x00,0x07,0x00,0x00,0x0f,0x00,
 0x00,0x04,0x00,0x00,0x00,0x00,0x00,0x0f,0x00,0x00,0x00,0x00,0x00,0x00,0x00};
