#define noname_width 9
#define noname_height 11
static char noname_bits[] = {
 0xf0,0x01,0x88,0x01,0x8c,0x01,0x8c,0x00,0x3c,0x00,0x78,0x00,0xc0,0x00,0xc2,
 0x00,0x42,0x00,0x67,0x00,0x1d,0x00};
