#define noname_width 12
#define noname_height 12
static char noname_bits[] = {
 0xfe,0x03,0x36,0x03,0x33,0x02,0x31,0x02,0x10,0x00,0x18,0x00,0x18,0x00,0x18,
 0x0c,0x08,0x0e,0x3f,0x0e,0x00,0x0f,0x00,0x0f};
