#define noname_width 11
#define noname_height 11
static char noname_bits[] = {
 0xf8,0x00,0xfe,0x03,0x1b,0x03,0x19,0x03,0x98,0x01,0xf8,0x00,0x7c,0x00,0xec,
 0x00,0xcc,0x06,0xc6,0x07,0x82,0x01};
