#define noname_width 477
#define noname_height 17
static char noname_bits[] = {
 0x00,0x00,0x00,0x00,0x00,0x00,0x00,0x00,0xf0,0x07,0x00,0x00,0x00,0x00,0x00,
 0x00,0x00,0x00,0x00,0x00,0x00,0x00,0x00,0x00,0x00,0x00,0x00,0x00,0x00,0x00,
 0x00,0x00,0x00,0x00,0x00,0x00,0x00,0x00,0x00,0x00,0x00,0x00,0x00,0x00,0x00,
 0x00,0x00,0x00,0x00,0x00,0x00,0x00,0x00,0x00,0x00,0x00,0x00,0x00,0x00,0x00,
 0x00,0x00,0x00,0x00,0x00,0x00,0x00,0x00,0x90,0x05,0x00,0x00,0x02,0x00,0x00,
 0x00,0x00,0x00,0x00,0x00,0x00,0x00,0x00,0x00,0xf0,0x07,0x00,0x00,0x10,0x00,
 0x00,0x00,0x00,0x00,0x00,0x00,0x00,0x00,0x00,0x00,0x00,0x00,0x00,0x00,0x00,
 0x00,0x00,0x00,0x00,0x00,0x00,0x00,0x00,0x00,0x00,0x00,0x00,0x00,0x00,0x00,
 0x00,0x10,0x00,0x10,0x00,0x00,0x00,0x00,0x90,0x05,0x00,0x00,0x03,0x00,0x00,
 0x00,0x00,0x00,0x00,0x00,0x00,0x00,0x00,0x00,0x90,0x05,0x00,0x00,0x18,0x00,
 0x00,0x00,0x00,0x00,0x00,0x00,0x00,0x00,0x00,0x00,0x00,0x00,0x00,0x00,0x00,
 0x00,0x00,0x00,0x00,0x00,0x00,0x00,0x00,0x00,0x00,0x00,0x00,0x04,0x00,0x02,
 0x78,0x08,0x07,0x20,0x00,0x00,0x80,0x03,0xc0,0xf0,0x1f,0x00,0x02,0x0e,0x00,
 0x00,0x00,0x18,0x00,0x07,0x00,0x00,0x00,0x1e,0x91,0xe5,0x1f,0x00,0x10,0x60,
 0x00,0x0e,0x00,0x00,0x00,0x3c,0x02,0x00,0x00,0x00,0x00,0x00,0x00,0x00,0x00,
 0x00,0x00,0x00,0x00,0x00,0x00,0x00,0x00,0x00,0x00,0x00,0x00,0x92,0x21,0x04,
 0x30,0x8c,0x05,0x60,0x00,0x00,0xc0,0x02,0xc0,0xf0,0x1f,0x00,0x02,0x0b,0x00,
 0x00,0x00,0x18,0x80,0x05,0x00,0x00,0x00,0xdc,0xc7,0xe0,0x3f,0x00,0x10,0x60,
 0x00,0x0b,0x00,0x00,0x00,0xb8,0x0f,0x00,0x00,0x00,0x00,0x00,0x00,0x00,0x00,
 0x00,0x00,0x00,0x00,0x00,0x00,0x00,0x00,0x00,0x00,0x00,0x00,0xf3,0x38,0x0c,
 0x30,0x86,0x01,0xc0,0x00,0x00,0xc0,0x00,0xc0,0xc0,0x10,0x3f,0x02,0x03,0x00,
 0x20,0x00,0x1c,0x80,0x01,0x00,0x00,0x00,0x9c,0xc3,0x80,0x71,0xfc,0x10,0x70,
 0x00,0x03,0x00,0x00,0x00,0x38,0x07,0x00,0x00,0x00,0x00,0x00,0x00,0x00,0x00,
 0x00,0x00,0x00,0x00,0x00,0x00,0x00,0x00,0x00,0x00,0x00,0x80,0x11,0x20,0x18,
 0x30,0x86,0x03,0xc0,0x00,0x00,0xc0,0x01,0xf0,0xc1,0x16,0x00,0x02,0x07,0x00,
 0x20,0x00,0x3c,0x80,0x03,0x00,0x00,0x00,0xdc,0xc7,0x80,0x71,0x00,0x10,0xf0,
 0x00,0x07,0x00,0x00,0x00,0xb8,0x0f,0x00,0x00,0x00,0x00,0x00,0x00,0x00,0x00,
 0x00,0x00,0x00,0x00,0x00,0x00,0x00,0x00,0x00,0x00,0x00,0x80,0x11,0x20,0x18,
 0x10,0x82,0xf3,0x87,0x80,0xff,0xc0,0xf9,0x03,0xc0,0x07,0x00,0x0f,0xf7,0x07,
 0x20,0x00,0x3e,0x80,0xfb,0x03,0x00,0xc0,0x1f,0xf1,0x81,0x79,0x00,0x78,0xf8,
 0x00,0xe7,0x0f,0x00,0x80,0x3f,0x02,0x00,0x00,0x00,0x00,0x00,0x00,0x00,0x00,
 0x00,0x00,0x00,0x00,0x00,0x00,0x00,0x00,0x00,0x00,0x00,0x80,0xf0,0x20,0x10,
 0x18,0xc2,0x66,0x8c,0xc0,0xff,0x60,0x33,0x06,0xc0,0x07,0x00,0x80,0x6d,0x0c,
 0x20,0x00,0x76,0xc0,0x36,0x06,0x00,0xc0,0x1c,0x00,0x80,0x3f,0x00,0x00,0xd8,
 0x81,0xcd,0x18,0x00,0x80,0x39,0x00,0x00,0x00,0x00,0x00,0x00,0x00,0x00,0x00,
 0x00,0x00,0x00,0x00,0x00,0x00,0x00,0x00,0x00,0x00,0x00,0x80,0x90,0x21,0x10,
 0x18,0x62,0x66,0x8c,0x00,0x00,0x30,0x33,0x06,0xc0,0x26,0x00,0xc0,0x6c,0x0c,
 0xff,0x03,0x7e,0x60,0x36,0x06,0xff,0xe1,0x1c,0x00,0x80,0x39,0x00,0x00,0xf8,
 0xc1,0xcc,0x18,0xfc,0xc7,0x39,0x00,0x00,0x00,0x00,0x00,0x00,0x00,0x00,0x00,
 0x00,0x00,0x00,0x00,0x00,0x00,0x00,0x00,0x00,0x00,0x00,0x80,0x80,0x21,0x10,
 0x19,0x62,0x62,0x8c,0x00,0x00,0x30,0x31,0x06,0xc0,0x30,0x00,0xc0,0x64,0x0c,
 0x20,0x00,0x7f,0x60,0x32,0x06,0x00,0xe0,0x1c,0x00,0x80,0x31,0x00,0x00,0xfc,
 0xc1,0xc4,0x18,0x00,0xc0,0x39,0x00,0x00,0x00,0x00,0x00,0x00,0x00,0x00,0x00,
 0x00,0x00,0x00,0x00,0x00,0x00,0x00,0x00,0x00,0x00,0x00,0x80,0x98,0x21,0x10,
 0x0b,0x62,0x62,0x8c,0xc0,0xff,0x30,0x31,0x06,0xc0,0x30,0x00,0xc0,0x64,0x0c,
 0x20,0x00,0xe1,0x60,0x32,0x06,0x00,0xc0,0x1c,0x00,0x80,0x31,0x01,0x00,0x84,
 0xc3,0xc4,0x18,0x00,0x80,0x39,0x00,0x00,0x00,0x00,0x00,0x00,0x00,0x00,0x00,
 0x00,0x00,0x00,0x00,0x00,0x00,0x00,0x00,0x00,0x00,0x00,0x80,0x98,0x21,0x10,
 0x0d,0xc6,0xe1,0xc7,0x00,0x00,0xe0,0xf0,0x03,0xf0,0x1f,0x00,0x80,0xe3,0x07,
 0x20,0xc0,0xf3,0xc1,0xf1,0x03,0x00,0xc0,0x3f,0x00,0xe0,0xf7,0x01,0x00,0xcf,
 0x87,0xc3,0x0f,0x00,0x80,0x7f,0x00,0x00,0x00,0x00,0x00,0x00,0x00,0x00,0x00,
 0x00,0x00,0x00,0x00,0x00,0x00,0x00,0x00,0x00,0x00,0x00,0x80,0xf1,0xf9,0x18,
 0x07,0x06,0x60,0xc0,0x00,0x00,0x00,0x30,0x00,0x00,0x00,0x00,0x00,0x60,0x00,
 0x20,0x00,0x00,0x00,0x30,0x00,0x00,0x00,0x00,0x00,0x00,0x00,0x00,0x00,0x00,
 0x00,0xc0,0x00,0x00,0x00,0x00,0x00,0x00,0x00,0x00,0x00,0x00,0x00,0x00,0x00,
 0x00,0x00,0x00,0x00,0x00,0x00,0x00,0x00,0x00,0x00,0x00,0x80,0x61,0x00,0x18,
 0x00,0x04,0x60,0x40,0x00,0x00,0x00,0x30,0x00,0x00,0x00,0x00,0x00,0x60,0x00,
 0x20,0x00,0x00,0x00,0x30,0x00,0x00,0x00,0x00,0x00,0x00,0x00,0x00,0x00,0x00,
 0x00,0xc0,0x00,0x00,0x00,0x00,0x00,0x00,0x00,0x00,0x00,0x00,0x00,0x00,0x00,
 0x00,0x00,0x00,0x00,0x00,0x00,0x00,0x00,0x00,0x00,0x00,0x00,0x01,0x00,0x08,
 0x00,0x0c,0xf0,0x60,0x00,0x00,0x00,0x78,0x00,0x00,0x00,0x00,0x00,0xf0,0x00,
 0x00,0x00,0x00,0x00,0x78,0x00,0x00,0x00,0x00,0x00,0x00,0x00,0x00,0x00,0x00,
 0x00,0xe0,0x01,0x00,0x00,0x00,0x00,0x00,0x00,0x00,0x00,0x00,0x00,0x00,0x00,
 0x00,0x00,0x00,0x00,0x00,0x00,0x00,0x00,0x00,0x00,0x00,0x00,0x03,0x00,0x0c,
 0x00,0x18,0x00,0x30,0x00,0x00,0x00,0x00,0x00,0x00,0x00,0x00,0x00,0x00,0x00,
 0x00,0x00,0x00,0x00,0x00,0x00,0x00,0x00,0x00,0x00,0x00,0x00,0x00,0x00,0x00,
 0x00,0x00,0x00,0x00,0x00,0x00,0x00,0x00,0x00,0x00,0x00,0x00,0x00,0x00,0x00,
 0x00,0x00,0x00,0x00,0x00,0x00,0x00,0x00,0x00,0x00,0x00,0x00,0x06,0x00,0x06};
