#define noname_width 28
#define noname_height 15
static char noname_bits[] = {
 0x08,0x00,0x04,0x00,0x04,0x00,0x08,0x02,0x06,0x00,0x98,0x0f,0x03,0x00,0x30,
 0x07,0x03,0x00,0xb0,0x0f,0x01,0x00,0x20,0x02,0x01,0x00,0x20,0x00,0x01,0x00,
 0x20,0x00,0x01,0x00,0x20,0x00,0x01,0x00,0x20,0x00,0x03,0x00,0x30,0x00,0x03,
 0x00,0x30,0x00,0x02,0x00,0x10,0x00,0x06,0x00,0x18,0x00,0x0c,0x00,0x0c,0x00};
