#define noname_width 16
#define noname_height 9
static char noname_bits[] = {
 0xfc,0x00,0xde,0xfc,0xcc,0x8c,0xcc,0xac,0x6c,0x3c,0x3c,0xe4,0x06,0x46,0x06,
 0x7f,0x0f,0x00};
