#define noname_width 14
#define noname_height 13
static char noname_bits[] = {
 0x38,0x00,0x2c,0x00,0x0c,0x00,0x1c,0x00,0xdc,0x1f,0xb6,0x31,0xb3,0x31,0x93,
 0x31,0x93,0x31,0x8e,0x1f,0x80,0x01,0x80,0x01,0xc0,0x03};
