#define noname_width 12
#define noname_height 11
static char noname_bits[] = {
 0x00,0x08,0x00,0x0c,0x00,0x0c,0x00,0x06,0x00,0x06,0xbc,0x02,0xa6,0x00,0xe3,
 0x00,0x63,0x00,0x63,0x00,0xfe,0x00};
