#define noname_width 450
#define noname_height 17
static char noname_bits[] = {
 0x00,0x00,0x00,0x00,0x00,0x00,0x00,0x00,0x00,0x00,0x00,0x00,0x00,0x00,0x00,
 0x00,0x00,0x00,0x00,0x00,0x00,0x00,0x00,0x00,0x00,0xfe,0xff,0xff,0xff,0x00,
 0x00,0x00,0x00,0x00,0x00,0x00,0x00,0x00,0x00,0x00,0x00,0x00,0x00,0x00,0x00,
 0x00,0x00,0x00,0x00,0x00,0x00,0x00,0x00,0x00,0x00,0x00,0x00,0x00,0x00,0x00,
 0x00,0x00,0x00,0x00,0x00,0x00,0x00,0x00,0x00,0x00,0x00,0x00,0x00,0x00,0x00,
 0x00,0x00,0x00,0x00,0x00,0x00,0x00,0x06,0x00,0x00,0x00,0x00,0x00,0x00,0x00,
 0x00,0x00,0x00,0x00,0x00,0x00,0x00,0x00,0x00,0x00,0x00,0x00,0x00,0x00,0x00,
 0x00,0x00,0x00,0x00,0x00,0x00,0x20,0x40,0x00,0x80,0xf7,0x1e,0x00,0x00,0x00,
 0x00,0xc0,0x00,0x01,0x47,0xc0,0x80,0xf7,0x1e,0x00,0x00,0x00,0x80,0x01,0x0c,
 0x19,0x44,0x00,0x00,0xbf,0xf7,0x00,0x00,0x00,0x00,0x00,0x00,0x00,0x00,0x00,
 0x00,0x00,0x00,0x00,0x00,0x00,0x00,0x00,0x00,0x00,0x00,0x00,0x00,0x00,0x00,
 0x00,0x00,0x00,0x10,0x81,0x00,0x00,0x61,0x0c,0x00,0x00,0x00,0x00,0x60,0x03,
 0xbf,0xcd,0x6f,0x03,0x61,0x0c,0x00,0x00,0x00,0xc0,0x06,0x36,0x0f,0xc6,0x0f,
 0x00,0x0b,0x63,0x00,0x00,0x00,0x00,0x00,0x00,0x00,0x00,0x00,0x00,0x00,0x00,
 0x00,0x00,0x00,0x00,0x00,0x00,0x00,0x00,0x00,0x00,0x00,0x00,0x00,0x00,0x00,
 0x18,0xbf,0x01,0x00,0x71,0x04,0x00,0x00,0x00,0x00,0x20,0x83,0x91,0x68,0x24,
 0x03,0x71,0x04,0x00,0x00,0x10,0x40,0x06,0x33,0x01,0x66,0x04,0x80,0x89,0x23,
 0x00,0x00,0x00,0x00,0x00,0x00,0x00,0x00,0x00,0x00,0x00,0x00,0x00,0x00,0x00,
 0x00,0x00,0x00,0x00,0x00,0x00,0x00,0x00,0x00,0x00,0x00,0x00,0x8c,0x11,0x03,
 0x00,0x71,0x02,0x00,0x00,0x00,0x00,0x30,0x82,0x88,0x2d,0x32,0x02,0x71,0x02,
 0x00,0x00,0x10,0x60,0x04,0x23,0x01,0x27,0x02,0x80,0x89,0x13,0x00,0x00,0x00,
 0x00,0x00,0x00,0x00,0x00,0x00,0x00,0x00,0x00,0x00,0x00,0x00,0x00,0x00,0x00,
 0x00,0x00,0x00,0x00,0x00,0x00,0x00,0x00,0x00,0x8c,0x08,0x03,0x00,0x79,0x03,
 0x00,0x00,0x80,0xff,0x30,0x02,0x8c,0x07,0x33,0x02,0x79,0x03,0x00,0x00,0x10,
 0x60,0x04,0x23,0x8f,0x05,0x03,0xc0,0xc8,0x1b,0x00,0x00,0x00,0x00,0x00,0x00,
 0x00,0x00,0x00,0x00,0x00,0x00,0x00,0x00,0x00,0x00,0x00,0x00,0x00,0x00,0x00,
 0x00,0x00,0x00,0x00,0x00,0x00,0x04,0x0c,0x02,0x00,0x6b,0x01,0x00,0x00,0xc0,
 0xff,0x30,0x02,0x84,0x0f,0x31,0x02,0x6b,0x01,0x86,0x03,0x10,0x60,0x04,0x32,
 0x99,0x04,0x01,0xc0,0x58,0x0b,0x60,0x38,0x00,0x00,0x00,0x00,0x00,0x00,0x00,
 0x00,0x00,0x00,0x00,0x00,0x00,0x00,0x00,0x00,0x00,0x00,0x00,0x00,0x00,0x00,
 0x00,0x00,0x00,0x04,0x04,0x02,0x00,0xe7,0xf9,0x30,0xff,0x01,0x00,0x30,0x02,
 0x86,0x8e,0x31,0x02,0xe7,0x01,0x04,0x83,0xff,0x61,0x04,0x3e,0xd8,0x84,0x81,
 0x60,0x38,0x0f,0x40,0x30,0x00,0x00,0x00,0x00,0x00,0x00,0x00,0x00,0x00,0x00,
 0x00,0x00,0x00,0x00,0x00,0x00,0x00,0x00,0x00,0x00,0x00,0x00,0x00,0x00,0x00,
 0x04,0x06,0x02,0x00,0xe7,0xf8,0x7d,0xff,0x01,0x00,0x30,0x02,0xc6,0x88,0x31,
 0x02,0xe7,0x00,0x04,0x03,0x10,0x60,0x04,0xb0,0xd9,0x9f,0xe1,0x60,0x38,0x07,
 0x40,0x30,0x00,0x00,0x00,0x00,0x00,0x00,0x00,0x00,0x00,0x00,0x00,0x00,0x00,
 0x00,0x00,0x00,0x00,0x00,0x00,0x00,0x00,0x00,0x00,0x00,0x00,0x04,0x06,0x02,
 0x00,0xe3,0xb0,0x7d,0xfe,0xc0,0xff,0x20,0x33,0xc6,0x88,0x21,0x03,0xe3,0x60,
 0xe4,0x03,0x10,0x40,0x66,0xb6,0x19,0x84,0xe1,0x31,0x18,0x07,0x43,0x3e,0x00,
 0x00,0x00,0x00,0x00,0x00,0x00,0x00,0x00,0x00,0x00,0x00,0x00,0x00,0x00,0x00,
 0x00,0x00,0x00,0x00,0x00,0x00,0x00,0x00,0x00,0x04,0x06,0x02,0x00,0x63,0xb0,
 0x0d,0xee,0x00,0x00,0x60,0x33,0x86,0x8d,0x61,0x03,0x63,0xf8,0xf5,0x03,0x10,
 0xc0,0x66,0x1a,0x1f,0x9f,0x81,0x31,0x18,0xc3,0x4f,0x3f,0x00,0x00,0x00,0x00,
 0x00,0x00,0x00,0x00,0x00,0x00,0x00,0x00,0x00,0x00,0x00,0x00,0x00,0x00,0x00,
 0x00,0x00,0x00,0x00,0x00,0x00,0x0c,0x06,0x03,0x00,0x21,0xb0,0x4d,0x6c,0x00,
 0x00,0xc0,0x01,0x06,0x87,0xc1,0x01,0x21,0x98,0x35,0x03,0x10,0x80,0x03,0x0c,
 0x06,0x80,0x81,0x1b,0x08,0xc1,0x4c,0x33,0x00,0x00,0x00,0x00,0x00,0x00,0x00,
 0x00,0x00,0x00,0x00,0x00,0x00,0x00,0x00,0x00,0x00,0x00,0x00,0x00,0x00,0x00,
 0x00,0x00,0x00,0x0c,0x06,0x03,0x00,0x00,0xf8,0x7b,0x6c,0x00,0x00,0x00,0x00,
 0x00,0x00,0x00,0x00,0x00,0x98,0x35,0x03,0x10,0x00,0x00,0x00,0x00,0x00,0x00,
 0x1b,0x00,0xc0,0x4c,0x33,0x00,0x00,0x00,0x00,0x00,0x00,0x00,0x00,0x00,0x00,
 0x00,0x00,0x00,0x00,0x00,0x00,0x00,0x00,0x00,0x00,0x00,0x00,0x00,0x00,0x00,
 0x08,0x00,0x01,0x00,0x00,0x00,0x00,0x00,0x00,0x00,0x00,0x00,0x00,0x00,0x00,
 0x00,0x00,0x98,0x35,0x03,0x00,0x00,0x00,0x00,0x00,0x00,0x00,0x0f,0x00,0xc0,
 0x4c,0x33,0x00,0x00,0x00,0x00,0x00,0x00,0x00,0x00,0x00,0x00,0x00,0x00,0x00,
 0x00,0x00,0x00,0x00,0x00,0x00,0x00,0x00,0x00,0x00,0x00,0x00,0x18,0x80,0x01,
 0x00,0x00,0x00,0x00,0x00,0x00,0x00,0x00,0x00,0x00,0x00,0x00,0x00,0x00,0xf0,
 0xee,0x07,0x00,0x00,0x00,0x00,0x00,0x00,0x00,0x0e,0x00,0x80,0xe7,0x7e,0x00,
 0x00,0x00,0x00,0x00,0x00,0x00,0x00,0x00,0x00,0x00,0x00,0x00,0x00,0x00,0x00,
 0x00,0x00,0x00,0x00,0x00,0x00,0x00,0x00,0x00,0x30,0xc0,0x00,0x00,0x00,0x00,
 0x00,0x00,0x00,0x00,0x00,0x00,0x00,0x00,0x00,0x00,0x00,0x00,0x00,0x00,0x00,
 0x00,0x00,0x00,0x00,0x00,0x00,0x06,0x00,0x00,0x00,0x00,0x00,0x00,0x00,0x00,
 0x00,0x00,0x00,0x00,0x00,0x00,0x00,0x00,0x00,0x00,0x00,0x00,0x00,0x00,0x00,
 0x00,0x00,0x00,0x00,0x00,0x00,0x00,0x00,0x00};
