#define noname_width 92
#define noname_height 16
static char noname_bits[] = {
 0x00,0x00,0x00,0x00,0x00,0x00,0x00,0x00,0x00,0x00,0x38,0x00,0x08,0x00,0x00,
 0x00,0x00,0x00,0x00,0x00,0x00,0x00,0x6c,0x01,0x04,0x00,0x00,0xe0,0xf8,0x0f,
 0x00,0x00,0x00,0xfe,0x6f,0x02,0x06,0x00,0x00,0xc0,0xd8,0x0c,0x00,0x00,0x00,
 0x36,0x63,0x06,0x03,0x00,0x10,0x60,0xcc,0x08,0x00,0x02,0x00,0x33,0x32,0x0c,
 0x03,0x00,0x10,0x60,0xc4,0x08,0x00,0x02,0x00,0x31,0x5a,0x0c,0xc1,0x03,0x10,
 0xe0,0x41,0x00,0x00,0x02,0xf0,0x10,0x7c,0x08,0x61,0x03,0x10,0x60,0x63,0x00,
 0x00,0x02,0xd8,0x18,0x00,0x08,0x31,0x83,0xff,0x31,0x63,0x00,0xf0,0x3f,0x0c,
 0x18,0x00,0x08,0x31,0x03,0x10,0x30,0x61,0x70,0x00,0x02,0x0c,0x18,0x00,0x08,
 0x31,0x05,0x10,0xb0,0x21,0x78,0x00,0x02,0xcc,0x08,0x1c,0x08,0xe3,0x07,0x10,
 0xe0,0xfc,0x68,0x00,0x02,0x78,0x3f,0x1e,0x0c,0x03,0x00,0x10,0x00,0x00,0x6c,
 0x00,0x02,0x00,0x00,0x1a,0x0c,0x02,0x00,0x10,0x00,0x00,0x78,0x00,0x02,0x00,
 0x00,0x1b,0x04,0x06,0x00,0x00,0x00,0x00,0x00,0x00,0x00,0x00,0x00,0x1e,0x06,
 0x0c,0x00,0x00,0x00,0x00,0x00,0x00,0x00,0x00,0x00,0x00,0x03};
