#define noname_width 450
#define noname_height 65
static char noname_bits[] = {
 0x00,0x00,0x00,0x00,0x00,0x00,0x00,0x00,0x00,0x00,0x00,0x00,0x00,0x00,0x00,
 0x00,0x00,0x00,0x00,0x00,0x00,0x00,0x00,0x00,0x00,0x00,0x00,0x00,0x00,0x00,
 0x00,0x80,0x03,0x00,0x00,0x00,0x00,0x00,0x00,0x00,0x00,0x00,0x00,0x00,0x00,
 0x00,0x00,0x00,0x00,0x00,0x00,0x00,0x00,0x00,0x00,0x00,0x00,0x00,0x00,0x00,
 0x00,0x00,0x00,0x00,0x00,0x00,0x00,0x00,0x00,0x00,0x00,0x00,0x00,0x00,0x00,
 0x00,0x00,0x00,0x00,0x00,0x00,0x00,0x00,0x00,0x00,0x00,0x00,0x00,0xc0,0x06,
 0x00,0x00,0x00,0x00,0x00,0x00,0x00,0x00,0x00,0x00,0x01,0x00,0x00,0x00,0x00,
 0x00,0x00,0x00,0x00,0x00,0x00,0x00,0x00,0x00,0x00,0x00,0x00,0x00,0x00,0x00,
 0x00,0x00,0x00,0x00,0x00,0x00,0x00,0x00,0x00,0x00,0x00,0x00,0x00,0x00,0x00,
 0x00,0x00,0x00,0x03,0x10,0x1c,0x00,0x00,0x08,0x06,0xc0,0x06,0x38,0x00,0x80,
 0xf7,0x1e,0x00,0x00,0x08,0x00,0x00,0x01,0x00,0x00,0x00,0x00,0x00,0x00,0x00,
 0x00,0x00,0x00,0x00,0x00,0x00,0x00,0x00,0x00,0x00,0x00,0x00,0x00,0x00,0x00,
 0x00,0x00,0x00,0x00,0x00,0x00,0x00,0x00,0x00,0x00,0x00,0x00,0x00,0x00,0x80,
 0x0d,0x1c,0x36,0x00,0x00,0x0e,0x1b,0x80,0x07,0x3c,0x00,0x00,0x61,0x0c,0x00,
 0x06,0x0e,0x00,0x80,0x01,0x00,0x00,0x00,0x00,0x00,0x00,0x00,0x00,0x00,0x00,
 0x00,0x00,0x00,0x00,0x00,0x00,0x00,0x00,0x00,0x00,0x00,0x00,0x00,0x00,0x00,
 0x00,0x00,0x00,0x00,0x00,0x00,0x00,0x00,0x00,0x00,0x00,0xc0,0x0d,0x10,0x22,
 0x00,0x00,0x08,0x99,0x1f,0x06,0x0c,0x00,0x00,0x71,0x04,0x80,0x03,0x08,0x00,
 0x80,0x01,0x00,0x00,0x00,0x00,0x00,0x00,0x00,0x00,0x00,0x00,0x00,0x00,0x00,
 0x00,0x00,0x00,0x00,0x00,0x00,0x00,0x00,0x00,0x00,0x00,0x00,0x00,0x00,0x00,
 0x00,0x00,0x00,0x00,0x00,0x00,0x00,0x00,0xc0,0x09,0x10,0x36,0x10,0x06,0x88,
 0x11,0xc0,0x04,0x0c,0x00,0x00,0x71,0x02,0xe0,0x00,0x08,0x00,0x80,0x00,0x00,
 0x00,0x00,0x00,0x00,0x00,0x00,0x00,0x00,0x00,0x00,0x00,0x00,0x00,0x00,0x00,
 0x00,0x00,0x00,0x00,0x00,0x00,0x00,0x00,0x00,0x00,0x00,0x00,0x00,0x00,0x00,
 0x00,0x00,0x00,0x00,0x00,0x00,0x0c,0x10,0x1e,0x30,0x03,0x88,0x11,0xc0,0x07,
 0xde,0xf7,0x01,0x79,0x03,0x38,0x00,0x88,0xff,0xc1,0x7c,0x00,0x00,0x00,0x00,
 0x00,0x00,0x00,0x00,0x00,0x00,0x00,0x00,0x00,0x00,0x00,0x00,0x00,0x00,0x00,
 0x00,0x00,0x00,0x00,0x00,0x00,0x00,0x00,0x00,0x00,0x00,0x00,0x00,0x00,0x00,
 0x00,0x00,0x00,0x0c,0x10,0x3e,0xe0,0x01,0x88,0x11,0x00,0x00,0x6c,0xe4,0x01,
 0x6b,0x01,0x0c,0x00,0x08,0x33,0x43,0x4c,0x00,0x00,0x00,0x00,0x00,0x00,0x00,
 0x00,0x00,0x00,0x00,0x00,0x00,0x00,0x00,0x00,0x00,0x00,0x00,0x00,0x00,0x00,
 0x00,0x00,0x00,0x00,0x00,0x00,0x00,0x00,0x00,0x00,0x00,0x00,0x00,0x00,0x00,
 0x06,0x10,0x3a,0xc0,0x00,0x88,0x11,0x00,0x00,0x6c,0x6c,0x00,0xe7,0x01,0x38,
 0x00,0x08,0x33,0x43,0x3c,0x00,0x00,0x00,0x00,0x00,0x00,0x00,0x00,0x00,0x00,
 0x00,0x00,0x00,0x00,0x00,0x00,0x00,0x00,0x00,0x00,0x00,0x00,0x00,0x00,0x00,
 0x00,0x00,0x00,0x00,0x00,0x00,0x00,0x00,0x00,0x00,0x00,0x00,0x0b,0x10,0x23,
 0xe0,0x01,0x88,0x11,0x00,0x00,0x6c,0x6c,0x00,0xe7,0x00,0xe0,0x00,0x08,0x33,
 0x63,0x7c,0x00,0x00,0x00,0x00,0x00,0x00,0x00,0x00,0x00,0x00,0x00,0x00,0x00,
 0x00,0x00,0x00,0x00,0x00,0x00,0x00,0x00,0x00,0x00,0x00,0x00,0x00,0x00,0x00,
 0x00,0x00,0x00,0x00,0x00,0x00,0x00,0x00,0x80,0xc9,0x10,0x23,0x30,0x03,0x08,
 0x19,0x00,0x00,0x6c,0x64,0x00,0xe3,0x00,0x80,0x03,0x08,0x33,0x23,0x44,0x00,
 0x00,0x00,0x00,0x00,0x00,0x00,0x00,0x00,0x00,0x00,0x00,0x00,0x00,0x00,0x00,
 0x00,0x00,0x00,0x00,0x00,0x00,0x00,0x00,0x00,0x00,0x00,0x00,0x00,0x00,0x00,
 0x00,0x00,0x00,0x00,0x00,0xc0,0xcf,0x7c,0x36,0x10,0x06,0x3e,0x1b,0x00,0x00,
 0xde,0xf7,0x00,0x63,0x00,0x00,0x06,0xbe,0xff,0x37,0x7c,0x00,0x00,0x00,0x00,
 0x00,0x00,0x00,0x00,0x00,0x00,0x00,0x00,0x00,0x00,0x00,0x00,0x00,0x00,0x00,
 0x00,0x00,0x00,0x00,0x00,0x00,0x00,0x00,0x00,0x00,0x00,0x00,0x00,0x00,0x00,
 0x00,0x00,0x00,0x00,0x00,0x1c,0x00,0x00,0x00,0x0e,0x00,0x00,0x00,0x00,0x00,
 0x21,0x00,0x00,0x00,0x00,0x00,0x30,0x00,0x00,0x00,0x00,0x00,0x00,0x00,0x00,
 0x00,0x00,0x00,0x00,0x00,0x00,0x00,0x00,0x00,0x00,0x00,0x00,0x00,0x00,0x00,
 0x00,0x00,0x00,0x00,0x00,0x00,0x00,0x00,0x00,0x00,0x00,0x00,0x00,0x00,0x00,
 0x00,0x00,0x00,0x00,0x00,0x00,0x00,0x00,0x00,0x00,0x00,0x00,0x00,0x00,0x00,
 0x00,0x00,0x00,0x10,0x00,0x00,0x00,0x00,0x00,0x00,0x00,0x00,0x00,0x00,0x00,
 0x00,0x00,0x00,0x00,0x00,0x00,0x00,0x00,0x00,0x00,0x00,0x00,0x00,0x00,0x00,
 0x00,0x00,0x00,0x00,0x00,0x00,0x00,0x00,0x00,0x00,0x00,0x00,0x00,0x00,0x00,
 0x00,0x00,0x00,0x00,0x00,0x00,0x00,0x00,0x00,0x00,0x00,0xfc,0x07,0x00,0x00,
 0x18,0x00,0x00,0x00,0x00,0x00,0x00,0x00,0x00,0x00,0x00,0x00,0x00,0x00,0x00,
 0x00,0x00,0x00,0x00,0x00,0x00,0x00,0x00,0x00,0x00,0x00,0x00,0x00,0x00,0x00,
 0x00,0x00,0x00,0x00,0x00,0x00,0x00,0x00,0x00,0x00,0x00,0x00,0x00,0x00,0x00,
 0x00,0x00,0x00,0x00,0x00,0x00,0x00,0x00,0x00,0x00,0x00,0x00,0x18,0x00,0x00,
 0x00,0x00,0x00,0x00,0x00,0x00,0x00,0x00,0x00,0x00,0x00,0x00,0x00,0x00,0x00,
 0x00,0x00,0x00,0x00,0x00,0x00,0x00,0x00,0x00,0x00,0x00,0x00,0x00,0x00,0x00,
 0x00,0x00,0x00,0x00,0x00,0x00,0x00,0x00,0x00,0x00,0x00,0x00,0x00,0x00,0x00,
 0x00,0x00,0x00,0x00,0x00,0x00,0x00,0x00,0x1c,0x00,0x00,0x00,0x00,0x00,0x00,
 0x00,0x00,0x00,0x00,0x00,0x00,0x00,0x00,0x00,0x00,0x00,0x00,0x00,0x00,0x00,
 0x00,0x00,0x00,0x00,0x00,0x00,0x00,0x00,0x00,0x00,0x00,0x00,0x00,0x00,0x00,
 0x00,0x00,0x00,0x04,0x00,0x00,0x00,0x00,0x00,0x00,0x00,0x00,0x08,0x00,0x10,
 0x00,0x00,0x00,0x00,0x00,0x36,0x00,0x00,0x00,0x00,0x00,0x00,0x00,0x00,0x00,
 0x00,0x00,0x00,0x00,0x08,0x00,0x00,0x00,0x00,0x00,0x00,0x00,0x00,0x00,0x00,
 0x00,0x00,0x00,0x00,0x00,0x00,0x00,0x00,0x00,0x00,0x00,0x00,0x00,0x00,0x00,
 0xc2,0x00,0x0c,0x03,0x00,0x00,0x01,0x32,0x0c,0xc8,0x7b,0x2f,0x00,0x00,0x20,
 0x18,0x00,0x36,0xe0,0x00,0x00,0x08,0x00,0x00,0x78,0xef,0x01,0x00,0xe0,0x00,
 0x00,0x08,0x00,0x00,0x00,0x00,0x00,0x00,0x00,0x00,0x00,0x00,0x00,0x00,0x00,
 0x00,0x00,0x00,0x00,0x00,0x00,0x00,0x00,0x00,0x00,0x00,0x00,0x63,0x03,0x9e,
 0x0d,0x00,0xc0,0x01,0x1e,0x1e,0x8c,0x30,0x66,0x00,0x00,0x38,0x6c,0x00,0x3c,
 0xf0,0x00,0x00,0x0e,0x00,0x00,0x10,0xc6,0x00,0x00,0xb0,0x01,0x00,0x0c,0x00,
 0x00,0x00,0x00,0x00,0x00,0x00,0x00,0x00,0x00,0x00,0x00,0x00,0x00,0x00,0x00,
 0x00,0x00,0x00,0x00,0x00,0x00,0x00,0x00,0x80,0x21,0x03,0xdb,0x0d,0x10,0x00,
 0x01,0x02,0x1b,0x8c,0x38,0xc2,0x00,0x00,0x20,0x64,0x7e,0x30,0x30,0x00,0x00,
 0x08,0x00,0x18,0x10,0x47,0x00,0x60,0xb0,0x01,0x00,0x0c,0x00,0x00,0x00,0x00,
 0x00,0x00,0x00,0x00,0x00,0x00,0x00,0x00,0x00,0x00,0x00,0x00,0x00,0x00,0x00,
 0x00,0x00,0x00,0x00,0x00,0x80,0x31,0x02,0xc1,0x09,0x10,0x00,0x01,0x02,0x01,
 0x84,0x38,0xc1,0x40,0x18,0x20,0x46,0x00,0x26,0x30,0x00,0x00,0x08,0x00,0x0e,
 0x10,0x27,0x00,0x38,0xb0,0x01,0x00,0x04,0x00,0x00,0x00,0x00,0x00,0x00,0x00,
 0x00,0x00,0x00,0x00,0x00,0x00,0x00,0x00,0x00,0x00,0x00,0x00,0x00,0x00,0x00,
 0x00,0x00,0x80,0x30,0x82,0x0f,0x0c,0x10,0x00,0x01,0x9e,0x0f,0x86,0xbc,0x81,
 0xc0,0x0c,0x20,0x46,0x00,0x3e,0x78,0xbe,0x0f,0x08,0x80,0x03,0x90,0x37,0x00,
 0x0e,0xc0,0xfc,0x0f,0xe6,0x03,0x00,0x00,0x00,0x00,0x00,0x00,0x00,0x00,0x00,
 0x00,0x00,0x00,0x00,0x00,0x00,0x00,0x00,0x00,0x00,0x00,0x00,0x00,0x00,0x80,
 0x30,0x82,0x19,0x0c,0x10,0x00,0x01,0xb2,0x19,0x82,0xb5,0x80,0x80,0x07,0x20,
 0x46,0x00,0x00,0x30,0x23,0x0f,0x08,0xe0,0x00,0xb0,0x16,0x80,0x03,0xe0,0x99,
 0x19,0x62,0x02,0x00,0x00,0x00,0x00,0x00,0x00,0x00,0x00,0x00,0x00,0x00,0x00,
 0x00,0x00,0x00,0x00,0x00,0x00,0x00,0x00,0x00,0x00,0x00,0x80,0x30,0x82,0x11,
 0x86,0xff,0x01,0x01,0xb0,0x11,0x82,0xf3,0x80,0x00,0x03,0x20,0x46,0x00,0x00,
 0x30,0x63,0x03,0x08,0x30,0x00,0x70,0x1e,0xc0,0x00,0x80,0x99,0x19,0xe2,0x01,
 0x00,0x00,0x00,0x00,0x00,0x00,0x00,0x00,0x00,0x00,0x00,0x00,0x00,0x00,0x00,
 0x00,0x00,0x00,0x00,0x00,0x00,0x00,0x00,0x80,0x30,0x82,0x11,0x0b,0x10,0x00,
 0x01,0xb3,0x11,0x83,0x73,0x80,0x80,0x07,0x20,0x46,0x00,0x00,0x30,0x63,0x03,
 0x08,0xf0,0x00,0x70,0x0e,0xc0,0x03,0xb8,0x99,0x19,0xe3,0x03,0x00,0x00,0x00,
 0x00,0x00,0x00,0x00,0x00,0x00,0x00,0x00,0x00,0x00,0x00,0x00,0x00,0x00,0x00,
 0x00,0x00,0x00,0x00,0x00,0x80,0x20,0x33,0x99,0x09,0x10,0x00,0x61,0x33,0x19,
 0x81,0x71,0x80,0xc0,0x0c,0x20,0x64,0x00,0x00,0x30,0x23,0x03,0x08,0xc0,0x03,
 0x30,0x0e,0x00,0x0f,0xb8,0x99,0x19,0x21,0x02,0x00,0x00,0x00,0x00,0x00,0x00,
 0x00,0x00,0x00,0x00,0x00,0x00,0x00,0x00,0x80,0x3f,0x00,0x00,0x00,0x00,0x00,
 0x00,0x00,0x80,0x61,0x33,0xdb,0x0f,0x10,0xc0,0x67,0x3e,0x9b,0x81,0x31,0xc0,
 0x40,0x18,0xf8,0x6c,0x00,0x00,0x78,0xbe,0x07,0x3e,0x00,0x0f,0x30,0x06,0x00,
 0x3c,0xb0,0xfd,0xbf,0xe1,0x03,0x00,0x00,0x00,0x00,0x00,0x00,0x00,0x00,0x00,
 0x00,0x00,0x00,0x00,0x00,0xc0,0x38,0x00,0x00,0x00,0x00,0x00,0x00,0x00,0x80,
 0xc1,0x01,0x0e,0x00,0x10,0x00,0x00,0x0c,0x8e,0x81,0x10,0xc0,0x00,0x00,0x00,
 0x38,0x00,0x00,0x00,0x00,0x00,0x00,0x00,0x1c,0x10,0x02,0x00,0x70,0xe0,0x00,
 0x80,0x01,0x00,0x00,0x00,0x00,0x00,0x00,0x00,0x00,0x00,0x00,0x00,0x00,0x00,
 0x00,0x00,0x60,0x10,0x00,0x00,0x00,0x00,0x00,0x00,0x00,0x00,0x01,0x00,0x00,
 0x00,0x10,0x00,0x00,0x00,0x80,0x00,0x00,0x40,0x00,0x00,0x00,0x00,0x00,0x00,
 0x00,0x00,0x00,0x00,0x00,0x00,0x00,0x00,0x00,0x00,0x00,0x00,0x80,0x00,0x00,
 0x00,0x00,0x00,0x00,0x00,0x00,0x00,0x00,0x00,0x00,0x00,0x00,0x00,0x00,0x30,
 0x10,0x00,0x00,0x00,0x00,0x00,0x00,0x00,0x00,0x03,0x00,0x00,0x00,0x00,0x00,
 0x00,0x00,0xc0,0x00,0x00,0x60,0x00,0x00,0x00,0x00,0x00,0x00,0x00,0x00,0x00,
 0x00,0x00,0x00,0x00,0x00,0x00,0x00,0x00,0x00,0xc0,0x00,0x00,0x00,0x00,0x00,
 0x00,0x00,0x00,0x00,0x00,0x00,0x00,0x00,0x00,0x00,0x00,0x30,0x00,0x00,0x00,
 0x00,0x00,0xff,0x01,0x00,0x00,0x06,0x00,0x00,0x00,0x00,0x00,0x00,0x00,0xc0,
 0x00,0x00,0x30,0x00,0x00,0x00,0x00,0x00,0x00,0x00,0x00,0x00,0x00,0x00,0x00,
 0x00,0x00,0x00,0x00,0x00,0x00,0xc0,0x00,0x00,0x00,0x00,0x00,0x00,0x00,0x00,
 0x00,0x00,0x00,0x00,0x00,0x00,0x00,0x00,0x38,0x80,0x0f,0xe6,0x00,0x80,0xff,
 0x01,0x00,0x00,0x00,0x00,0x00,0x00,0x00,0x00,0x00,0x00,0x00,0x00,0x00,0x00,
 0x00,0x00,0x00,0x00,0x00,0x00,0x00,0x00,0x00,0x00,0x00,0x00,0x00,0x00,0x00,
 0x00,0x00,0x00,0x00,0x00,0x00,0x00,0x00,0x00,0x00,0x00,0x00,0x00,0x00,0x00,
 0x00,0x00,0x00,0x00,0x00,0x18,0x88,0x19,0x4e,0x00,0x00,0x00,0x00,0x00,0x00,
 0x00,0x00,0x00,0x00,0x00,0x00,0x00,0x80,0x03,0x00,0x00,0x00,0x00,0x00,0x00,
 0x00,0x00,0x00,0x00,0x00,0x00,0x00,0x00,0x00,0x00,0x00,0x00,0x00,0x00,0x00,
 0x00,0x00,0x00,0x00,0x00,0x00,0x00,0x00,0x00,0x00,0x00,0x00,0x00,0x00,0x00,
 0x00,0x00,0x18,0x88,0x11,0x4e,0x00,0x00,0x00,0x00,0x00,0x00,0x00,0x00,0x00,
 0x00,0x00,0x00,0x00,0xc0,0x06,0x00,0x00,0x00,0x00,0x00,0x00,0x00,0x00,0x00,
 0x00,0x00,0x00,0x00,0x00,0x01,0x00,0x00,0x00,0x00,0x00,0x00,0x00,0x00,0x00,
 0x00,0x00,0x00,0x00,0x00,0x00,0x00,0x00,0x00,0x00,0x00,0x00,0x00,0x00,0x30,
 0x8c,0x19,0x7a,0x00,0x80,0xff,0x01,0x00,0x00,0x02,0x10,0x10,0x00,0x00,0x08,
 0x06,0xc0,0x06,0x38,0x00,0x00,0x07,0x00,0x00,0xde,0x7b,0x00,0x00,0x10,0x0c,
 0x00,0x00,0x01,0x00,0x00,0x00,0x00,0x00,0x00,0x00,0x00,0x00,0x00,0x00,0x00,
 0x00,0x00,0x00,0x00,0x00,0x00,0x00,0x00,0x00,0x00,0x00,0x70,0x87,0x18,0x3a,
 0x00,0x00,0x00,0x00,0x00,0x80,0x03,0x1c,0x18,0x00,0x00,0x0e,0x1b,0x80,0x07,
 0x3c,0x00,0x80,0x0d,0x00,0x06,0x84,0x31,0x00,0x00,0x1c,0x36,0x00,0x80,0x01,
 0x00,0x00,0x00,0x00,0x00,0x00,0x00,0x00,0x00,0x00,0x00,0x00,0x00,0x00,0x00,
 0x00,0x00,0x00,0x00,0x00,0x00,0x00,0x00,0xc0,0xc1,0x0c,0x31,0x00,0x00,0x00,
 0x00,0x00,0x00,0x02,0x10,0x18,0x00,0x00,0x08,0x99,0x1f,0x06,0x0c,0x00,0x80,
 0x0d,0x80,0x03,0xc4,0x11,0x00,0x0c,0x10,0x32,0x00,0x80,0x01,0x00,0x00,0x00,
 0x00,0x00,0x00,0x00,0x00,0x00,0x00,0x00,0x00,0x00,0x00,0x00,0x00,0x00,0x00,
 0x00,0x00,0x00,0x00,0x00,0x00,0xe0,0x8f,0x33,0x00,0x00,0x00,0x00,0x00,0x00,
 0x02,0x10,0x1c,0x10,0x06,0x88,0x11,0xc0,0x04,0x0c,0x00,0x80,0x0d,0xe0,0x00,
 0xc4,0x09,0x00,0x07,0x10,0x23,0x00,0x80,0x00,0x00,0x00,0x00,0x00,0x00,0x00,
 0x00,0x00,0x00,0x00,0x00,0x00,0x00,0x00,0x00,0x00,0x00,0x00,0x00,0x00,0x00,
 0x00,0x00,0x00,0x00,0x00,0x00,0x00,0x00,0x00,0x00,0x00,0x00,0x02,0x10,0x16,
 0x30,0x03,0x88,0x11,0xc0,0x07,0xde,0xf7,0x01,0x06,0x38,0x00,0xe4,0x0d,0xc0,
 0x01,0x10,0xa3,0xff,0xc1,0x7c,0x00,0x00,0x00,0x00,0x00,0x00,0x00,0x00,0x00,
 0x00,0x00,0x00,0x00,0x00,0x00,0x00,0x00,0x00,0x00,0x00,0x00,0x00,0x00,0x00,
 0x00,0x00,0x00,0x00,0x00,0x00,0x00,0x00,0x00,0x02,0x10,0x12,0xe0,0x01,0x88,
 0x11,0x00,0x00,0x6c,0xe4,0x01,0x0f,0x0c,0x00,0xac,0x05,0x70,0x00,0x10,0x23,
 0x33,0x43,0x4c,0x00,0x00,0x00,0x00,0x00,0x00,0x00,0x00,0x00,0x00,0x00,0x00,
 0x00,0x00,0x00,0x00,0x00,0x00,0x00,0x00,0x00,0x00,0x00,0x00,0x00,0x00,0x00,
 0x00,0x00,0x00,0x00,0x00,0x00,0x02,0x10,0x13,0xc0,0x00,0x88,0x11,0x00,0x00,
 0x6c,0x6c,0x00,0x0c,0x38,0x00,0x9c,0x07,0x18,0x00,0x10,0x23,0x33,0x43,0x3c,
 0x00,0x00,0x00,0x00,0x00,0x00,0x00,0x00,0x00,0x00,0x00,0x00,0x00,0x00,0x00,
 0x00,0x00,0x00,0x00,0x00,0x00,0x00,0x00,0x00,0x00,0x00,0x00,0x00,0x00,0x00,
 0x00,0x00,0x00,0x02,0x10,0x7f,0xe0,0x01,0x88,0x11,0x00,0x00,0x6c,0x6c,0xc0,
 0x0d,0xe0,0x00,0x9c,0x03,0x78,0x00,0x10,0x23,0x33,0x63,0x7c,0x00,0x00,0x00,
 0x00,0x00,0x00,0x00,0x00,0x00,0x00,0x00,0x00,0x00,0x00,0x00,0x00,0x00,0x00,
 0x00,0x00,0x00,0x00,0x00,0x00,0x00,0x00,0x00,0x00,0x00,0x00,0x00,0x00,0x00,
 0xc2,0x10,0x10,0x30,0x03,0x08,0x19,0x00,0x00,0x6c,0x64,0xc0,0x0d,0x80,0x03,
 0x8c,0x03,0xe0,0x01,0x10,0x32,0x33,0x23,0x44,0x00,0x00,0x00,0x00,0x00,0x00,
 0x00,0x00,0x00,0x00,0x00,0x00,0x00,0x00,0x00,0x00,0x00,0x00,0x00,0x00,0x00,
 0x00,0x00,0x00,0x00,0x00,0x00,0x00,0x00,0x00,0x00,0x00,0x80,0xcf,0x7c,0x7c,
 0x10,0x06,0x3e,0x1b,0x00,0x00,0xde,0xf7,0x80,0x0d,0x00,0x06,0x8c,0x01,0x80,
 0x07,0x7c,0xb6,0xff,0x37,0x7c,0x00,0x00,0x00,0x00,0x00,0x00,0x00,0x00,0x00,
 0x00,0x00,0x00,0x00,0x00,0x00,0x00,0x00,0x00,0x00,0x00,0x00,0x00,0x00,0x00,
 0x00,0x00,0x00,0x00,0x00,0x00,0x00,0x00,0x00,0x00,0x00,0x00,0x00,0x00,0x00,
 0x0e,0x00,0x00,0x00,0x00,0x00,0x07,0x00,0x00,0x84,0x00,0x00,0x0e,0x00,0x1c,
 0x00,0x30,0x00,0x00,0x00,0x00,0x00,0x00,0x00,0x00,0x00,0x00,0x00,0x00,0x00,
 0x00,0x00,0x00,0x00,0x00,0x00,0x00,0x00,0x00,0x00,0x00,0x00,0x00,0x00,0x00,
 0x00,0x00,0x00,0x00,0x00,0x00,0x00,0x00,0x00,0x00,0x00,0x00,0x00,0x00,0x00,
 0x00,0x00,0x00,0x00,0x00,0x00,0x00,0x00,0x00,0x00,0x00,0x00,0x00,0x10,0x00,
 0x00,0x00,0x00,0x00,0x00,0x00,0x00,0x00,0x00,0x00,0x00,0x00,0x00,0x00,0x00,
 0x00,0x00,0x00,0x00,0x00,0x00,0x00,0x00,0x00,0x00,0x00,0x00,0x00,0x00,0x00,
 0x00,0x00,0x00,0x00,0x00,0x00,0x00,0x00,0x00,0x00,0x00,0x00,0x00,0x00,0x00,
 0x00,0xfc,0x07,0x00,0x00,0x00,0x00,0x00,0x00,0x00,0x18,0x00,0x00,0x00,0x00,
 0x00,0x00,0x00,0x00,0x00,0x00,0x00,0x00,0x00,0x00,0x00,0x00,0x00,0x00,0x00,
 0x00,0x00,0x00,0x00,0x00,0x00,0x00,0x00,0x00,0x00,0x00,0x00,0x00,0x00,0x00,
 0x00,0x00,0x00,0x00,0x00,0x00,0x00,0x00,0x00,0x00,0x00,0x00,0x00,0x00,0x00,
 0x00,0x00,0x00,0x00,0x00,0x00,0x00,0x18,0x00,0x00,0x00,0x00,0x00,0x00,0x00,
 0x00,0x00,0x00,0x00,0x00,0x00,0x00,0x00,0x00,0x00,0x00,0x00,0x00,0x00,0x00,
 0x00,0x00,0x00,0x00,0x00,0x00,0x00,0x00,0x00,0x00,0x00,0x00,0x00,0x00,0x00,
 0x00,0x00,0x00,0x00,0x00,0x00,0x00,0x00,0x00,0x00,0x00,0x00,0x00,0x00,0x1c,
 0x00,0x00,0x00,0x00,0x00,0x00,0x00,0x00,0x00,0x00,0x00,0x00,0x00,0x00,0x00,
 0x00,0x00,0x00,0x00,0x00,0x00,0x00,0x00,0x00,0x00,0x00,0x00,0x00,0x00,0x00,
 0x00,0x00,0x00,0x00,0x00,0x00,0x00,0x00,0x00,0x04,0x00,0x00,0x00,0x00,0x00,
 0x00,0x00,0x00,0x00,0x00,0x10,0x00,0x00,0x00,0x00,0x00,0x36,0x00,0x00,0x00,
 0x00,0x00,0x00,0x00,0x00,0x00,0x00,0x00,0x02,0x00,0x00,0x00,0x00,0x00,0x00,
 0x00,0x00,0x00,0x00,0x00,0x00,0x00,0x00,0x00,0x00,0x00,0x00,0x00,0x00,0x00,
 0x00,0x00,0x00,0x00,0x00,0x00,0xc2,0x00,0x08,0x03,0x00,0x80,0x01,0x0c,0x8c,
 0xcc,0x7b,0x2f,0x00,0x00,0x20,0x18,0x00,0x36,0xe0,0x00,0x00,0xde,0x7b,0x00,
 0x00,0x20,0x18,0x00,0x00,0x02,0x00,0x00,0x00,0x00,0x00,0x00,0x00,0x00,0x00,
 0x00,0x00,0x00,0x00,0x00,0x00,0x00,0x00,0x00,0x00,0x00,0x00,0x00,0x00,0x00,
 0x00,0x00,0x00,0x63,0x03,0x8c,0x0d,0x00,0xc0,0x06,0x36,0x9e,0x87,0x30,0x66,
 0x00,0x00,0x38,0x6c,0x00,0x3c,0xf0,0x00,0x00,0x84,0x31,0x30,0x00,0x38,0x6c,
 0x00,0x00,0x03,0x00,0x00,0x00,0x00,0x00,0x00,0x00,0x00,0x00,0x00,0x00,0x00,
 0x00,0x00,0x00,0x00,0x00,0x00,0x00,0x00,0x00,0x00,0x00,0x00,0x00,0x00,0x80,
 0x21,0x03,0xcc,0x0c,0x10,0x40,0x06,0x32,0x9b,0x80,0x38,0xc2,0x00,0x00,0x20,
 0x64,0x7e,0x30,0x30,0x00,0x00,0xc4,0x11,0xf0,0x00,0x20,0x64,0x00,0x00,0x03,
 0x00,0x00,0x00,0x00,0x00,0x00,0x00,0x00,0x00,0x00,0x00,0x00,0x00,0x00,0x00,
 0x00,0x00,0x00,0x00,0x00,0x00,0x00,0x00,0x00,0x00,0x00,0x80,0x31,0x02,0xce,
 0x08,0x10,0x60,0x04,0x23,0x81,0x80,0x38,0xc1,0x40,0x18,0x20,0x46,0x00,0x26,
 0x30,0x00,0x00,0xc4,0x09,0xc0,0x03,0x20,0x46,0x00,0x00,0x01,0x00,0x00,0x00,
 0x00,0x00,0x00,0x00,0x00,0x00,0x00,0x00,0x00,0x00,0x00,0x00,0x00,0x00,0x00,
 0x00,0x00,0x00,0x00,0x00,0x00,0x00,0x00,0x80,0x30,0x02,0xcb,0x08,0x10,0x60,
 0x04,0xa3,0x8f,0x87,0xbc,0x81,0xc0,0x0c,0x20,0x46,0x00,0x3e,0x78,0xbe,0x0f,
 0xe4,0x0d,0x00,0x0f,0x20,0x46,0xff,0x83,0xf9,0x00,0x00,0x00,0x00,0x00,0x00,
 0x00,0x00,0x00,0x00,0x00,0x00,0x00,0x00,0x00,0x00,0x00,0x00,0x00,0x00,0x00,
 0x00,0x00,0x00,0x00,0x00,0x80,0x30,0x02,0x89,0x0c,0x10,0x60,0x04,0xa3,0x99,
 0x8c,0xb5,0x80,0x80,0x07,0x20,0x46,0x00,0x00,0x30,0x23,0x0f,0xac,0x05,0x00,
 0x1c,0x20,0x46,0x66,0x86,0x98,0x00,0x00,0x00,0x00,0x00,0x00,0x00,0x00,0x00,
 0x00,0x00,0x00,0x00,0x00,0x00,0x00,0x00,0x00,0x00,0x00,0x00,0x00,0x00,0x00,
 0x00,0x00,0x80,0x30,0x82,0x89,0x8f,0xff,0x61,0x04,0xa3,0x11,0x8c,0xf3,0x80,
 0x00,0x03,0x20,0x46,0x00,0x00,0x30,0x63,0x03,0x9c,0x07,0x00,0x0f,0x20,0x46,
 0x66,0x86,0x78,0x00,0x00,0x00,0x00,0x00,0x00,0x00,0x00,0x00,0x00,0x00,0x00,
 0x00,0x00,0x00,0x00,0x00,0x00,0x00,0x00,0x00,0x00,0x00,0x00,0x00,0x00,0x80,
 0x30,0x82,0x3f,0x0c,0x10,0x60,0x04,0xa3,0xd1,0x8c,0x73,0x80,0x80,0x07,0x20,
 0x46,0x00,0x00,0x30,0x63,0x03,0x9c,0x03,0xc0,0x03,0x20,0x46,0x66,0xc6,0xf8,
 0x00,0x00,0x00,0x00,0x00,0x00,0x00,0x00,0x00,0x00,0x00,0x00,0x00,0x00,0x00,
 0x00,0x00,0x00,0x00,0x00,0x00,0x00,0x00,0x00,0x00,0x00,0x80,0x20,0x33,0x88,
 0x0d,0x10,0x40,0x66,0x32,0xd9,0x8c,0x71,0x80,0xc0,0x0c,0x20,0x64,0x00,0x00,
 0x30,0x23,0x03,0x8c,0x03,0xf0,0x00,0x20,0x64,0x66,0x46,0x88,0x06,0x00,0x00,
 0x00,0x00,0x00,0x00,0x00,0x00,0x00,0x00,0x00,0x00,0x00,0x00,0x00,0x00,0x00,
 0x00,0x00,0x00,0x00,0x00,0x00,0x00,0x00,0x80,0x61,0x33,0xbe,0x06,0x10,0xc0,
 0x66,0x36,0x9b,0x8f,0x31,0xc0,0x40,0x18,0xf8,0x6c,0x00,0x00,0x78,0xbe,0x07,
 0x8c,0x01,0x30,0x00,0xf8,0x6c,0xff,0x6f,0xf8,0x06,0x00,0x00,0x00,0x00,0x00,
 0x00,0x00,0x00,0x00,0x00,0x00,0x00,0x00,0x00,0x00,0x00,0x00,0x00,0x00,0x00,
 0x00,0x00,0x00,0x00,0x00,0x80,0xc1,0x01,0x00,0x03,0x10,0x80,0x03,0x1c,0x0e,
 0x83,0x10,0xc0,0x00,0x00,0x00,0x38,0x00,0x00,0x00,0x00,0x00,0x84,0x00,0x00,
 0x00,0x00,0x38,0x00,0x60,0x00,0x00,0x00,0x00,0x00,0x00,0x00,0x00,0x00,0x00,
 0x00,0x00,0x00,0x00,0x00,0x00,0x00,0x00,0x00,0x00,0x00,0x00,0x00,0x00,0x00,
 0x00,0x00,0x00,0x01,0x00,0x00,0x00,0x10,0x00,0x00,0x00,0x00,0x00,0x00,0x40,
 0x00,0x00,0x00,0x00,0x00,0x00,0x00,0x00,0x00,0x00,0x00,0x00,0x00,0x00,0x00,
 0x00,0x20,0x00,0x00,0x00,0x00,0x00,0x00,0x00,0x00,0x00,0x00,0x00,0x00,0x00,
 0x00,0x00,0x00,0x00,0x00,0x00,0x00,0x00,0x00,0x00,0x00,0x00,0x00,0x00,0x00,
 0x03,0x00,0x00,0x00,0x00,0x00,0x00,0x00,0x00,0x00,0x00,0x60,0x00,0x00,0x00,
 0x00,0x00,0x00,0x00,0x00,0x00,0x00,0x00,0xf0,0x1f,0x00,0x00,0x00,0x30,0x00,
 0x00,0x00,0x00,0x00,0x00,0x00,0x00,0x00,0x00,0x00,0x00,0x00,0x00,0x00,0x00,
 0x00,0x00,0x00,0x00,0x00,0x00,0x00,0x00,0x00,0x00,0x00,0x00,0x06,0x00,0x00,
 0x00,0x00,0x00,0x00,0x00,0x00,0x00,0x00,0x30,0x00,0x00,0x00,0x00,0x00,0x00,
 0x00,0x00,0x00,0x00,0x00,0x00,0x00,0x00,0x00,0x00,0x30,0x00,0x00,0x00,0x00};
