#define noname_width 17
#define noname_height 14
static char noname_bits[] = {
 0xf8,0x11,0x00,0x30,0x7f,0x00,0x18,0x3b,0x00,0x18,0x7f,0x00,0x98,0x13,0x00,
 0xf8,0x00,0x00,0x8c,0x00,0x00,0x8c,0xf0,0x01,0xcc,0x94,0x00,0xdf,0x93,0x00,
 0x80,0xf3,0x00,0x00,0xc0,0x00,0x00,0xc8,0x00,0x00,0x7c,0x00};
