#define noname_width 27
#define noname_height 18
static char noname_bits[] = {
 0xff,0xff,0xff,0x07,0x00,0x00,0x00,0x00,0x00,0x00,0x00,0x00,0x00,0xf8,0xff,
 0x03,0x00,0x0c,0x00,0x00,0x00,0x0c,0x00,0x00,0x00,0xf6,0xde,0x03,0x00,0x26,
 0x8c,0x01,0x00,0x23,0x8e,0x00,0x00,0x23,0x4e,0x00,0x86,0x21,0x6f,0x00,0x8f,
 0x61,0x2d,0x00,0xcc,0xe0,0x3c,0x00,0xcc,0xe0,0x1c,0x00,0x78,0x60,0x1c,0x00,
 0x78,0x60,0x0c,0x00,0x30,0x20,0x04,0x00,0x30,0x00,0x00,0x00};
