#define noname_width 45
#define noname_height 11
static char noname_bits[] = {
 0xf0,0x00,0x00,0xf0,0x1f,0x0d,0xe0,0x00,0x00,0xc0,0xb3,0x0b,0xe0,0x80,0x0f,
 0xe0,0xb1,0x09,0xe0,0xc0,0x00,0xe0,0x31,0x1d,0xfe,0x60,0x00,0xe0,0xb9,0x1d,
 0xe6,0x20,0x00,0xe0,0x0f,0x00,0xe7,0xe0,0x0f,0xf0,0x08,0x00,0xe7,0x20,0x00,
 0xf0,0x08,0x00,0xe6,0x60,0x00,0xf0,0x4c,0x00,0xfe,0xe1,0x00,0xfc,0x3d,0x00,
 0x00,0xc0,0x0f,0x00,0x38,0x00};
