#define noname_width 21
#define noname_height 16
static char noname_bits[] = {
 0x00,0xc0,0x1f,0x08,0x42,0x16,0x04,0x44,0x16,0x06,0x0c,0x03,0x03,0x18,0x03,
 0x03,0x18,0x03,0x01,0xd0,0x07,0x01,0x10,0x00,0x01,0x10,0x00,0x01,0x10,0x00,
 0x01,0x10,0x00,0x03,0x18,0x00,0x03,0x18,0x00,0x02,0x08,0x00,0x06,0x0c,0x00,
 0x0c,0x06,0x00};
