#define noname_width 14
#define noname_height 17
static char noname_bits[] = {
 0xff,0x3f,0x00,0x00,0x90,0x00,0x08,0x01,0x0c,0x03,0x06,0x06,0x06,0x06,0x02,
 0x04,0x02,0x04,0x02,0x04,0x02,0x04,0x02,0x04,0x06,0x06,0x06,0x06,0x04,0x02,
 0x0c,0x03,0x98,0x01};
