#define noname_width 135
#define noname_height 26
static char noname_bits[] = {
 0x00,0x00,0x00,0x00,0x00,0x00,0x00,0x00,0x00,0x00,0x00,0x00,0xfe,0xff,0xff,
 0xff,0x7f,0x00,0x00,0x00,0x00,0x00,0x00,0x00,0x00,0x00,0x00,0x00,0x00,0x06,
 0x00,0x00,0x00,0x00,0x00,0x00,0x00,0x00,0x00,0x00,0x00,0x00,0x00,0x00,0x00,
 0x00,0x02,0x00,0x00,0x00,0x00,0x00,0x00,0x00,0x00,0x00,0x00,0x00,0x00,0x00,
 0x00,0x00,0x00,0x03,0x00,0x00,0x00,0x00,0x00,0x00,0x00,0x00,0x00,0x00,0x00,
 0x00,0x00,0x00,0x00,0x00,0x03,0xc0,0x01,0x00,0x00,0x00,0x00,0x00,0x00,0x00,
 0x00,0x00,0x00,0x00,0x00,0x00,0x00,0x41,0x60,0x03,0x00,0x06,0xf8,0xe1,0xe0,
 0xe0,0xe3,0x1f,0x00,0x00,0x00,0x00,0x00,0x80,0x61,0x60,0x03,0x00,0x06,0x30,
 0xc3,0x70,0x10,0xc3,0x18,0x00,0x00,0x00,0x00,0x00,0x80,0x21,0x00,0x03,0x00,
 0x04,0x18,0xe3,0x70,0x18,0x63,0x08,0x00,0x00,0x00,0x00,0x00,0x80,0x30,0x80,
 0x01,0x00,0x0c,0x18,0xe3,0x38,0x18,0x61,0x0a,0x00,0x00,0x00,0x00,0x00,0xc0,
 0x30,0xc0,0x02,0x00,0x0c,0x98,0xa3,0x38,0x78,0x60,0x01,0x00,0x00,0xc0,0x7f,
 0x00,0xc0,0x10,0xee,0x03,0x00,0x08,0xf8,0xa0,0x34,0xf0,0xe0,0x01,0x86,0x01,
 0xe0,0x7f,0x00,0x40,0x18,0x03,0x00,0x00,0x18,0x8c,0xb0,0x37,0x80,0x31,0x09,
 0x04,0x00,0x00,0x00,0x00,0x60,0x98,0x07,0x00,0x00,0x18,0x8c,0x90,0x13,0x84,
 0x31,0xcc,0x9d,0x3d,0x00,0x00,0xc0,0x60,0x98,0x01,0x86,0x01,0x18,0xcc,0x94,
 0x19,0x84,0x30,0xe4,0x3d,0x79,0xe0,0x7f,0xe0,0x20,0x90,0x01,0x04,0x00,0x08,
 0xdf,0xbf,0x3d,0xce,0xfc,0xe7,0x25,0xc9,0x00,0x00,0xe0,0x31,0x10,0xcf,0x9d,
 0x3d,0x08,0x80,0x03,0x00,0x3a,0x00,0xa0,0x25,0xc9,0x00,0x00,0x80,0x31,0x30,
 0xe0,0x3d,0x79,0x0c,0x00,0x00,0x00,0x00,0x00,0xe0,0xff,0x7b,0x00,0x00,0x80,
 0x11,0x20,0xe0,0x25,0xc9,0x04,0x00,0x00,0x00,0x00,0x00,0x00,0x00,0x08,0x00,
 0x00,0x80,0x19,0x20,0xa0,0x25,0xc9,0x04,0x00,0x00,0x00,0x00,0x00,0x00,0x00,
 0x1c,0x00,0x00,0x00,0x1b,0x60,0xe0,0xff,0x7b,0x06,0x00,0x00,0x00,0x00,0x00,
 0x00,0x00,0x00,0x00,0x00,0x00,0x0b,0x00,0x00,0x00,0x08,0x00,0x00,0x00,0x00,
 0x00,0x00,0x00,0x00,0x00,0x00,0x00,0x00,0x0f,0x00,0x00,0x00,0x1c,0x00,0x00,
 0x00,0x00,0x00,0x00,0x00,0x00,0x00,0x00,0x00,0x00,0x0f,0x00,0x00,0x00,0x00,
 0x00,0x00,0x00,0x00,0x00,0x00,0x00,0x00,0x00,0x00,0x00,0x00,0x06,0x00,0x00,
 0x00,0x00,0x00,0x00,0x00,0x00,0x00,0x00,0x00,0x00,0x00,0x00,0x00,0x00,0x06,
 0x00,0x00,0x00,0x00,0x00,0x00,0x00,0x00,0x00,0x00,0x00,0x00,0x00,0x00,0x00,
 0x00,0x06,0x00,0x00,0x00,0x00,0x00};
