#define noname_width 18
#define noname_height 14
static char noname_bits[] = {
 0xf0,0x21,0x00,0x18,0xfb,0x00,0x0c,0x73,0x00,0x06,0xfb,0x00,0x06,0x23,0x00,
 0x07,0x03,0x00,0x03,0x03,0x00,0x83,0xe1,0x03,0xfe,0x21,0x01,0xee,0x21,0x01,
 0x78,0xe1,0x01,0xe0,0x81,0x01,0xe0,0x90,0x01,0x00,0xf8,0x00};
