#define noname_width 36
#define noname_height 14
static char noname_bits[] = {
 0xf8,0x01,0x00,0x00,0x00,0x30,0x03,0x00,0x00,0x00,0x18,0x03,0x00,0x00,0x00,
 0x18,0x03,0x00,0x00,0x00,0x98,0x03,0x00,0x00,0x00,0xf8,0x00,0x03,0x00,0x00,
 0x8c,0x00,0x02,0x00,0x00,0x8c,0x00,0x02,0x00,0x00,0xcc,0x74,0x62,0x9c,0x07,
 0xdf,0x7f,0xfa,0xbe,0x0f,0x80,0x4f,0xfa,0x3c,0x03,0x00,0x0c,0x1a,0x3e,0x03,
 0x00,0x4c,0x9a,0x76,0x03,0x00,0x78,0xf7,0xfe,0x07};
