#define noname_width 112
#define noname_height 16
static char noname_bits[] = {
 0x00,0x00,0x00,0x00,0x00,0x00,0x00,0x00,0x00,0x00,0x02,0x00,0x00,0x00,0xf8,
 0x03,0x00,0x00,0x00,0x00,0x7c,0x00,0x00,0x00,0x02,0x00,0x00,0xa4,0x30,0x03,
 0x00,0x00,0x00,0x00,0xc6,0x00,0x00,0x00,0x03,0x00,0x00,0xbe,0x18,0x02,0x00,
 0x00,0x00,0x00,0xc3,0x00,0x00,0x00,0x03,0x00,0x00,0xb6,0x98,0x02,0x00,0x00,
 0x00,0x80,0xc1,0x00,0x00,0x00,0x01,0x00,0x00,0xd4,0x58,0x00,0xc0,0x7f,0x00,
 0x80,0xc1,0x00,0x00,0x80,0xc1,0x03,0xe0,0x7d,0x78,0xfe,0xe0,0x7f,0x00,0xc0,
 0xc1,0x00,0x80,0x81,0x60,0x03,0xb0,0x01,0x4c,0xb2,0x00,0x00,0xe0,0xff,0xc0,
 0x00,0x80,0x81,0x30,0x03,0x18,0x00,0x0c,0xb2,0x00,0x00,0x00,0xc0,0x60,0x3e,
 0xcc,0xc3,0x30,0x4b,0x19,0x00,0x0c,0x18,0xe0,0x7f,0x00,0x80,0x7f,0x7e,0xdf,
 0x43,0xb0,0x7d,0x99,0x1d,0x1f,0x18,0x00,0x00,0x00,0x80,0x7b,0x6c,0x9f,0x61,
 0xf0,0x6c,0xf1,0x3e,0x00,0x18,0x00,0x00,0x00,0x00,0x5e,0x6c,0x83,0x63,0x18,
 0xa8,0x01,0x26,0x00,0x3e,0x00,0x00,0x00,0x00,0x78,0x6c,0x93,0x23,0x18,0xf8,
 0x00,0x34,0x00,0x00,0x00,0x00,0x00,0x00,0x38,0xfe,0x9e,0x33,0x18,0x00,0x00,
 0x1e,0x00,0x00,0x00,0x00,0x00,0x00,0x00,0x00,0x00,0x30,0x00,0x00,0x00,0x06,
 0x00,0x00,0x00,0x00,0x00,0x00,0x00,0x00,0x00,0x00,0x00,0x00,0x00,0x07};
