#define noname_width 450
#define noname_height 15
static char noname_bits[] = {
 0x00,0x00,0x00,0x00,0x00,0x00,0x00,0x00,0x00,0xe0,0x10,0x00,0x00,0x00,0x00,
 0x40,0x00,0x00,0x00,0x00,0x00,0x00,0x00,0x00,0x07,0x02,0x00,0x00,0x00,0x00,
 0x00,0x00,0x00,0x00,0x00,0x00,0x00,0x00,0x00,0x00,0x00,0x00,0x00,0x00,0x00,
 0x00,0x00,0x00,0x00,0x00,0x00,0x00,0x00,0x80,0x00,0x40,0x00,0x00,0x00,0x00,
 0x80,0x1f,0x00,0x00,0x00,0x00,0xe0,0x08,0x01,0x00,0x00,0x10,0x80,0x80,0x0f,
 0x00,0x00,0x00,0x3f,0x00,0x00,0x07,0x62,0x00,0x00,0x00,0x00,0x00,0x00,0x00,
 0x00,0x00,0x00,0x00,0x00,0x00,0x00,0x00,0x00,0x00,0x00,0x00,0x00,0x00,0x00,
 0x00,0x00,0x00,0x00,0x00,0x40,0x1c,0x86,0x00,0x00,0x00,0x00,0x00,0x33,0x00,
 0x00,0x00,0x00,0x20,0xcc,0x01,0x00,0x00,0x18,0x80,0xc1,0x18,0x00,0x00,0x00,
 0x66,0x00,0x00,0x06,0xb3,0x01,0x00,0x00,0x00,0x00,0x00,0x00,0x00,0x00,0x00,
 0x00,0x00,0x00,0x00,0x00,0x00,0x00,0x00,0x00,0x00,0x00,0x00,0x00,0x00,0x00,
 0x00,0x00,0x60,0x36,0x9b,0x01,0x00,0x00,0x00,0x80,0x31,0x00,0x00,0x00,0x00,
 0x20,0x06,0x01,0x00,0x00,0x1c,0x00,0x63,0x18,0x00,0x00,0x00,0x63,0x00,0x00,
 0x06,0xbb,0x01,0x00,0x00,0x00,0x00,0x00,0x00,0x00,0x00,0x00,0x00,0x00,0x00,
 0x00,0x00,0x00,0x00,0x00,0x00,0x00,0x00,0x00,0x00,0x00,0x00,0x00,0x00,0x30,
 0x36,0x19,0x03,0x00,0x00,0x00,0x80,0x31,0x00,0x00,0x00,0x00,0x20,0x06,0x01,
 0x00,0x00,0x14,0x00,0x33,0x18,0x00,0x00,0x00,0x63,0x00,0x00,0x06,0x39,0x01,
 0x00,0x00,0x00,0x00,0x00,0x00,0x00,0x00,0x00,0x00,0x00,0x00,0x00,0x00,0x00,
 0x00,0x00,0x00,0x00,0x00,0x00,0x00,0x00,0x00,0x00,0x00,0x30,0xb6,0x11,0x03,
 0x00,0x00,0x00,0x80,0x39,0x00,0x00,0xc0,0x7f,0x20,0x02,0x01,0x00,0x00,0x16,
 0x00,0x32,0x18,0x00,0x00,0x00,0x73,0x00,0x00,0x86,0x81,0x01,0x00,0x00,0x00,
 0x00,0x00,0x00,0x00,0x00,0x00,0x00,0x00,0x00,0x00,0x00,0x00,0x00,0x00,0x00,
 0x00,0x00,0x00,0x00,0x00,0x00,0x00,0x00,0x10,0x98,0x11,0x02,0x00,0x00,0x00,
 0x80,0x0f,0xdc,0xf8,0xe1,0x7f,0x20,0x02,0x01,0x00,0x00,0x12,0x00,0x3a,0x18,
 0x03,0x00,0x00,0x1f,0xb8,0x01,0x86,0x80,0x01,0x00,0x00,0x00,0x00,0x00,0x00,
 0x00,0x00,0x00,0x00,0x00,0x00,0x00,0x00,0x00,0x00,0x00,0x00,0x00,0x00,0x00,
 0x00,0x00,0x00,0x00,0x00,0x10,0xbc,0x11,0x02,0x00,0x00,0x00,0xc0,0x08,0xd8,
 0xfc,0x01,0x00,0x20,0x02,0x01,0xff,0x01,0x3f,0x00,0x1a,0x98,0x06,0xfe,0x83,
 0x11,0xb0,0x01,0x86,0xc0,0x00,0x00,0x00,0x00,0x00,0x00,0x00,0x00,0x00,0x00,
 0x00,0x00,0x00,0x00,0x00,0x00,0x00,0x00,0x00,0x00,0x00,0x00,0x00,0x00,0x00,
 0x00,0x00,0x10,0xb0,0x11,0x02,0x00,0x00,0x00,0xc0,0x08,0x18,0x6c,0x00,0x00,
 0x20,0x02,0x01,0x00,0x80,0x31,0x0e,0x1a,0xcc,0x04,0x00,0x80,0x11,0x30,0x00,
 0xc6,0x60,0x01,0x00,0x00,0x00,0x00,0x00,0x00,0x00,0x00,0x00,0x00,0x00,0x00,
 0x00,0x00,0x00,0x00,0x00,0x00,0x00,0x00,0x00,0x00,0x00,0x00,0x00,0x00,0x10,
 0xb7,0x11,0x02,0x00,0x00,0x00,0xc0,0x4c,0xdf,0xfe,0xe0,0x7f,0x20,0x02,0x01,
 0x00,0x80,0x30,0x0f,0xf2,0xcf,0x04,0x00,0x80,0x99,0xbe,0x3d,0x46,0x30,0x01,
 0x00,0x00,0x00,0x00,0x00,0x00,0x00,0x00,0x00,0x00,0x00,0x00,0x00,0x00,0x00,
 0x00,0x00,0x00,0x00,0x00,0x00,0x00,0x00,0x00,0x00,0x00,0x10,0x37,0x19,0x02,
 0x00,0x00,0x00,0xf0,0xbd,0xdf,0xfe,0x00,0x00,0x20,0xc6,0x07,0x00,0xe0,0x79,
 0x0d,0x73,0xcf,0x04,0x00,0xe0,0x7b,0xbf,0x7d,0x66,0xf8,0x01,0x00,0x00,0x00,
 0x00,0x00,0x00,0x00,0x00,0x00,0x00,0x00,0x00,0x00,0x00,0x00,0x00,0x00,0x00,
 0x00,0x00,0x00,0x00,0x00,0x00,0x00,0x00,0x30,0x36,0x1b,0x03,0x00,0x00,0x00,
 0x00,0xb8,0x99,0x6c,0x00,0x00,0x20,0x06,0x00,0x00,0x00,0x80,0x0d,0xc3,0xcb,
 0x06,0x00,0x00,0x70,0x33,0x19,0x66,0x00,0x00,0x00,0x00,0x00,0x00,0x00,0x00,
 0x00,0x00,0x00,0x00,0x00,0x00,0x00,0x00,0x00,0x00,0x00,0x00,0x00,0x00,0x00,
 0x00,0x00,0x00,0x00,0x00,0x30,0x1c,0x0e,0x03,0x00,0x00,0x00,0x00,0x80,0x99,
 0x6c,0x00,0x00,0x20,0x04,0x00,0x00,0x00,0x00,0x0f,0x01,0x8f,0x07,0x00,0x00,
 0x00,0x33,0x19,0x26,0x00,0x00,0x00,0x00,0x00,0x00,0x00,0x00,0x00,0x00,0x00,
 0x00,0x00,0x00,0x00,0x00,0x00,0x00,0x00,0x00,0x00,0x00,0x00,0x00,0x00,0x00,
 0x00,0x00,0x20,0x00,0x00,0x01,0x00,0x00,0x00,0x00,0x80,0x99,0x6c,0x00,0x00,
 0xe0,0x0c,0x00,0x00,0x00,0x00,0x80,0x01,0x07,0x00,0x00,0x00,0x00,0x33,0x19,
 0x37,0x00,0x00,0x00,0x00,0x00,0x00,0x00,0x00,0x00,0x00,0x00,0x00,0x00,0x00,
 0x00,0x00,0x00,0x00,0x00,0x00,0x00,0x00,0x00,0x00,0x00,0x00,0x00,0x00,0x60,
 0x00,0x80,0x01,0x00,0x00,0x00,0x00,0x00,0xff,0xef,0x00,0x00,0xe0,0x18,0x00,
 0x00,0x00,0x00,0xc0,0x00,0x00,0x00,0x00,0x00,0x00,0xfe,0x3f,0x37,0x00,0x00,
 0x00,0x00,0x00,0x00,0x00,0x00,0x00,0x00,0x00,0x00,0x00,0x00,0x00,0x00,0x00,
 0x00,0x00,0x00,0x00,0x00,0x00,0x00,0x00,0x00,0x00,0x00,0xc0,0x00,0xc0,0x00};
