#define noname_width 11
#define noname_height 8
static char noname_bits[] = {
 0x3c,0x00,0x36,0x00,0x33,0x00,0x33,0x06,0x53,0x07,0x7e,0x07,0x80,0x07,0x80,
 0x07};
