#define noname_width 46
#define noname_height 15
static char noname_bits[] = {
 0x00,0x00,0x00,0x01,0x00,0x00,0x78,0xf0,0x01,0xe1,0xf9,0x0f,0x4c,0x18,0x83,
 0x31,0xd9,0x0c,0xcc,0x0c,0x83,0x31,0xcf,0x08,0xf8,0x06,0x83,0xe0,0xc7,0x08,
 0xec,0x06,0xc3,0xb0,0x43,0x00,0xc6,0x07,0x43,0x18,0x63,0x00,0x63,0x03,0x43,
 0x8c,0x61,0x00,0x63,0x83,0x61,0x8c,0x61,0x30,0x23,0xfe,0x21,0x8c,0x20,0x38,
 0x3e,0xee,0x31,0xf8,0xfc,0x38,0x0c,0x78,0x31,0x30,0x00,0x3c,0x00,0xe0,0x11,
 0x00,0x00,0x3c,0x00,0xe0,0x18,0x00,0x00,0x00,0x00,0x00,0x18,0x00,0x00,0x00};
