#define noname_width 481
#define noname_height 16
static char noname_bits[] = {
 0x00,0x00,0x20,0x00,0x00,0x00,0xc0,0x1f,0x00,0x00,0x20,0x00,0x00,0x00,0x01,
 0x00,0x7f,0x00,0x00,0x00,0x01,0x00,0x00,0x00,0x00,0xe0,0x0f,0x00,0x00,0x00,
 0x00,0x7f,0x00,0x00,0x00,0x00,0x00,0x01,0x00,0x00,0x00,0x00,0x00,0x00,0x00,
 0x00,0x00,0x00,0x00,0x00,0x00,0x00,0x00,0x00,0x00,0x00,0x00,0x00,0x00,0x00,
 0x00,0x00,0x00,0x30,0x00,0x00,0x00,0x40,0x16,0x00,0x00,0x30,0x00,0x00,0x80,
 0x01,0x00,0x59,0x00,0x00,0x80,0x01,0x00,0x00,0x00,0x00,0x20,0x0b,0x00,0x00,
 0x00,0x00,0x59,0x00,0x00,0x00,0x00,0x80,0x01,0x00,0x00,0x00,0x00,0x00,0x00,
 0x00,0x00,0x00,0x00,0x00,0x00,0x00,0x00,0x00,0x00,0x00,0x00,0x00,0x40,0x00,
 0x20,0x00,0xff,0x01,0x20,0x00,0x00,0x80,0x41,0x96,0x7f,0x00,0x20,0xc0,0x00,
 0x00,0x01,0x06,0x59,0xfe,0x01,0x00,0x01,0x00,0xc0,0x7f,0xc0,0x20,0x0b,0x18,
 0xfc,0x07,0x06,0x59,0x00,0x00,0xfc,0x03,0x00,0x01,0x00,0x00,0x00,0x00,0x00,
 0x00,0x00,0x00,0x00,0x00,0x00,0x00,0x00,0x00,0x00,0x00,0x00,0x00,0x00,0x20,
 0x19,0x44,0x00,0xff,0x01,0x20,0x00,0x00,0x80,0x01,0x83,0xff,0x00,0x20,0xc0,
 0x00,0x00,0x01,0x06,0x0c,0xfe,0x03,0x00,0x01,0x00,0xc0,0x7f,0xc0,0x80,0x01,
 0x18,0xfc,0x07,0x06,0x0c,0x00,0x00,0xfc,0x07,0x00,0x01,0x00,0x00,0x00,0x00,
 0x00,0x00,0x00,0x00,0x00,0x00,0x00,0x00,0x00,0x00,0x00,0x00,0x00,0x00,0x00,
 0x30,0x0f,0xc6,0x00,0x0c,0xf9,0x21,0x00,0x02,0xc0,0x01,0x03,0xc6,0xf1,0x23,
 0xe0,0xc0,0x0f,0x01,0x07,0x0c,0x18,0xc7,0x0f,0x01,0x00,0x00,0x43,0xe0,0x80,
 0x01,0x1c,0x30,0x04,0x07,0x0c,0x00,0x02,0x30,0x8e,0x1f,0x01,0x00,0x00,0x00,
 0x00,0x00,0x00,0x00,0x00,0x00,0x00,0x00,0x00,0x00,0x00,0x00,0x00,0x00,0x00,
 0x00,0x18,0x01,0x86,0x01,0x6c,0x01,0x20,0x00,0x02,0xc0,0x03,0x03,0xc6,0x01,
 0x20,0xe0,0x01,0x00,0x01,0x0f,0x0c,0x18,0x07,0x00,0x01,0xff,0x03,0x5b,0xe0,
 0x81,0x01,0x3c,0xb0,0x05,0x0f,0x0c,0x00,0x02,0x30,0x0e,0x00,0x01,0x00,0x00,
 0x00,0x00,0x00,0x00,0x00,0x00,0x00,0x00,0x00,0x00,0x00,0x00,0x00,0x00,0x00,
 0x00,0x00,0x18,0x01,0x87,0x01,0x7c,0x00,0xf0,0x00,0x02,0xe0,0xc3,0x07,0xe6,
 0x01,0xf0,0xf0,0x01,0x80,0x87,0x0f,0x1f,0x98,0x07,0x80,0x07,0x00,0x00,0x1f,
 0xf0,0xe1,0x03,0x3e,0xf0,0x81,0x0f,0x1f,0x00,0x02,0x30,0x0f,0x80,0x07,0x00,
 0x00,0x00,0x00,0x00,0x00,0x00,0x00,0x00,0x00,0x00,0x00,0x00,0x00,0x00,0x00,
 0x00,0x00,0x00,0x08,0x8f,0x05,0x01,0x7c,0x00,0x00,0x00,0x02,0x60,0x07,0x00,
 0xfe,0x00,0x00,0xb0,0x03,0x00,0x80,0x1d,0x00,0xf8,0x03,0x00,0x00,0x00,0x00,
 0x1f,0xb0,0x03,0x00,0x76,0xf0,0x81,0x1d,0x00,0x00,0x02,0xf0,0x07,0x00,0x00,
 0x00,0x00,0x00,0x00,0x00,0x00,0x00,0x00,0x00,0x00,0x00,0x00,0x00,0x00,0x00,
 0x00,0x00,0x00,0x00,0x08,0x99,0x04,0x01,0x6c,0x02,0x00,0xf0,0x3f,0xe0,0x07,
 0x00,0xe6,0x00,0x00,0xf0,0x03,0x00,0x80,0x1f,0x00,0x98,0x03,0x00,0x00,0xff,
 0x03,0x9b,0xf0,0x03,0x00,0x7e,0xb0,0x89,0x1f,0x00,0xf0,0x3f,0x30,0x07,0x00,
 0x00,0x00,0x00,0x00,0x00,0x00,0x00,0x00,0x00,0x00,0x00,0x00,0x00,0x00,0x00,
 0x00,0x00,0x00,0x00,0x00,0x08,0xd8,0x04,0x01,0x0c,0x03,0x00,0x00,0x02,0xf0,
 0x07,0x00,0xc6,0x00,0x00,0xf8,0x03,0x00,0xc0,0x1f,0x00,0x18,0x03,0x00,0x00,
 0x00,0x00,0xc3,0xf8,0x03,0x00,0x7f,0x30,0xcc,0x1f,0x00,0x00,0x02,0x30,0x06,
 0x00,0x00,0x00,0x00,0x00,0x00,0x00,0x00,0x00,0x00,0x00,0x00,0x00,0x00,0x00,
 0x00,0x00,0x00,0x00,0x00,0x00,0x88,0xd9,0x1f,0x01,0x0c,0x03,0x00,0x00,0x02,
 0x10,0x0e,0x00,0xc6,0x04,0x00,0x08,0x07,0x00,0x40,0x38,0x00,0x18,0x13,0x00,
 0x00,0x00,0x00,0xc3,0x08,0x07,0x00,0xe1,0x30,0x4c,0x38,0x00,0x00,0x02,0x30,
 0x26,0x00,0x00,0x00,0x00,0x00,0x00,0x00,0x00,0x00,0x00,0x00,0x00,0x00,0x00,
 0x00,0x00,0x00,0x00,0x00,0x00,0x00,0x88,0x19,0x04,0x01,0xff,0x01,0x00,0x00,
 0x02,0x3c,0x1f,0x80,0xdf,0x07,0x00,0x9e,0x0f,0x00,0xf0,0x7c,0x00,0x7e,0x1f,
 0x00,0x00,0xff,0xc3,0x7f,0x9e,0x0f,0xc0,0xf3,0xfd,0xf7,0x7c,0x00,0x00,0x02,
 0xfc,0x3e,0x00,0x00,0x00,0x00,0x00,0x00,0x00,0x00,0x00,0x00,0x00,0x00,0x00,
 0x00,0x00,0x00,0x00,0x00,0x00,0x00,0x00,0x18,0x1f,0x9f,0x01,0x00,0x00,0x00,
 0x00,0x02,0x00,0x00,0x00,0x00,0x00,0x00,0x00,0x00,0x00,0x00,0x00,0x00,0x00,
 0x00,0x00,0x00,0x00,0x00,0x00,0x00,0x00,0x00,0x00,0x00,0x00,0x00,0x00,0x00,
 0x02,0x00,0x00,0x00,0x00,0x00,0x00,0x00,0x00,0x00,0x00,0x00,0x00,0x00,0x00,
 0x00,0x00,0x00,0x00,0x00,0x00,0x00,0x00,0x00,0x18,0x06,0x80,0x01,0x00,0x00,
 0x00,0x00,0x02,0x00,0x00,0x00,0x00,0x00,0x00,0x00,0x00,0x00,0x00,0x00,0x00,
 0x00,0x00,0x00,0x00,0x00,0x00,0x00,0x00,0x00,0x00,0x00,0x00,0x00,0x00,0x00,
 0x00,0x02,0x00,0x00,0x00,0x00,0x00,0x00,0x00,0x00,0x00,0x00,0x00,0x00,0x00,
 0x00,0x00,0x00,0x00,0x00,0x00,0x00,0x00,0x00,0x00,0x10,0x00,0x80,0x00,0x00,
 0x00,0x00,0x00,0x00,0x00,0x00,0x00,0x00,0x00,0x00,0x00,0x00,0x00,0x00,0x00,
 0x00,0x00,0x00,0x00,0x00,0x00,0x00,0x00,0x00,0x00,0x00,0x00,0x00,0x00,0x00,
 0x00,0x00,0x00,0x00,0x00,0x00,0x00,0x00,0x00,0x00,0x00,0x00,0x00,0x00,0x00,
 0x00,0x00,0x00,0x00,0x00,0x00,0x00,0x00,0x00,0x00,0x00,0x30,0x00,0xc0,0x00,
 0x00,0x00,0x00,0x00,0x00,0x00,0x00,0x00,0x00,0x00,0x00,0x00,0x00,0x00,0x00,
 0x00,0x00,0x00,0x00,0x00,0x00,0x00,0x00,0x00,0x00,0x00,0x00,0x00,0x00,0x00,
 0x00,0x00,0x00,0x00,0x00,0x00,0x00,0x00,0x00,0x00,0x00,0x00,0x00,0x00,0x00,
 0x00,0x00,0x00,0x00,0x00,0x00,0x00,0x00,0x00,0x00,0x00,0x00,0x60,0x00,0x60,
 0x00};
