#define noname_width 111
#define noname_height 15
static char noname_bits[] = {
 0x00,0x00,0x00,0x00,0x00,0x00,0x04,0x00,0x04,0x20,0x00,0x00,0x00,0x00,0xf0,
 0x07,0x00,0x00,0x00,0x38,0xc2,0x1f,0x84,0x47,0x80,0x3f,0x00,0x00,0x18,0x07,
 0x00,0x00,0x00,0x3c,0xc3,0x1c,0x06,0xc3,0xc0,0x38,0x00,0x00,0x0c,0x02,0x00,
 0x00,0x00,0x8c,0x61,0x0c,0x86,0x81,0x61,0x10,0x00,0x00,0x06,0x02,0x00,0x00,
 0x00,0x8c,0x21,0x06,0x82,0x81,0x31,0x10,0x00,0x00,0x06,0x00,0x00,0xfe,0x03,
 0x9f,0x00,0x03,0x83,0x01,0x31,0x00,0x00,0x00,0x07,0xf0,0x01,0xff,0x03,0x86,
 0x80,0x01,0x81,0x01,0x39,0x80,0x0f,0x73,0x03,0x31,0x03,0x00,0x00,0x86,0xc0,
 0x0c,0xc1,0x10,0x19,0x88,0x19,0x27,0x03,0x31,0x02,0x00,0x00,0x86,0x60,0x84,
 0xc1,0x18,0x19,0x88,0x11,0x27,0x86,0x31,0x03,0xff,0x03,0x86,0x70,0x86,0xc0,
 0x08,0x31,0x8c,0x19,0x3d,0xee,0x10,0x03,0x00,0x00,0x82,0xf9,0xc7,0xf0,0x8f,
 0x71,0x87,0x18,0x1d,0x38,0x98,0x01,0x00,0x00,0x83,0x01,0xc0,0x00,0x80,0xc1,
 0xc1,0x8c,0x18,0x00,0xfc,0x01,0x00,0xc0,0x03,0x01,0x40,0x00,0x80,0x00,0xe0,
 0xcf,0x19,0x00,0x00,0x00,0x00,0xc0,0x01,0x03,0x60,0x00,0xc0,0x00,0x00,0x00,
 0x00,0x00,0x00,0x00,0x00,0x00,0x00,0x06,0x60,0x00,0x60,0x00,0x00,0x00,0x00};
