#define noname_width 484
#define noname_height 36
static char noname_bits[] = {
 0x00,0x00,0x00,0x00,0x01,0x00,0x00,0x00,0x00,0x00,0x00,0x00,0x00,0x00,0x00,
 0x00,0x00,0x00,0x00,0x08,0x00,0x00,0x00,0x00,0x00,0x00,0x00,0x00,0x00,0x00,
 0x00,0x00,0x00,0x00,0x00,0x00,0x00,0x00,0x00,0x00,0x00,0x00,0x00,0x00,0x00,
 0x00,0x00,0x00,0x00,0x00,0x00,0x00,0x00,0x00,0x00,0x00,0x00,0x00,0x00,0x00,
 0x00,0xf0,0x01,0x00,0x80,0x00,0x00,0x00,0x00,0x00,0x00,0x00,0x00,0x00,0x00,
 0x00,0x00,0x00,0x00,0x00,0x10,0x00,0x00,0x00,0x00,0x00,0x00,0x00,0x00,0x00,
 0x00,0x00,0x00,0x00,0x00,0x00,0x00,0x00,0x00,0x00,0x00,0x00,0x00,0x00,0x00,
 0x00,0x00,0x00,0x00,0x00,0x00,0x00,0x00,0x00,0x00,0x00,0x00,0x00,0x00,0x00,
 0x00,0x00,0x18,0x03,0x00,0xc0,0x00,0x00,0x00,0x00,0x00,0x00,0x00,0x00,0x00,
 0x00,0x00,0x00,0x00,0x00,0x00,0x30,0x00,0x00,0x00,0x00,0x00,0x00,0x00,0x00,
 0x00,0x00,0x00,0x00,0x00,0x00,0x00,0x00,0x00,0x00,0x00,0x00,0x00,0x00,0x00,
 0x00,0x00,0x00,0x00,0x00,0x00,0x00,0x00,0x00,0x00,0x00,0x00,0x00,0x00,0x00,
 0x00,0x00,0x00,0x0c,0x03,0x00,0x60,0x00,0x00,0x00,0x00,0x00,0x00,0x00,0x00,
 0x00,0x00,0x00,0x00,0x00,0x00,0x00,0x60,0x00,0x00,0x00,0x00,0x00,0x00,0x00,
 0x00,0x00,0x00,0x00,0x00,0x00,0x00,0x00,0x00,0x00,0x00,0x00,0x00,0x00,0x00,
 0x00,0x00,0x00,0x00,0x00,0x00,0x00,0x00,0x00,0x00,0x00,0x00,0x00,0x00,0x00,
 0x00,0x00,0x00,0x00,0x06,0x03,0x00,0x60,0x00,0x00,0x00,0x00,0x00,0x00,0x00,
 0x00,0x00,0x00,0x00,0x00,0x00,0x00,0x00,0x60,0x00,0x00,0x00,0x00,0x00,0x00,
 0x00,0x00,0x00,0x00,0x00,0x00,0x00,0x00,0x00,0x00,0x00,0x00,0x00,0x00,0x00,
 0x00,0x00,0x00,0x00,0x00,0x00,0x00,0x00,0x00,0x00,0x00,0x00,0x00,0x00,0x00,
 0x00,0x00,0x00,0x00,0x00,0x06,0x03,0x00,0x20,0xfc,0x00,0x00,0xe0,0x07,0x00,
 0x3f,0x00,0xf8,0x01,0x00,0x3f,0x00,0xe0,0x07,0x40,0xe0,0x3f,0x00,0x00,0x00,
 0x00,0x00,0x00,0x00,0x00,0x00,0x00,0x00,0x00,0x00,0x00,0x00,0x00,0x00,0x00,
 0x00,0x00,0x00,0x00,0x00,0x00,0x00,0x00,0x00,0x00,0x00,0x00,0x00,0x00,0x00,
 0x00,0x00,0x00,0x00,0x00,0x00,0x07,0x03,0x00,0x20,0xde,0x7f,0x00,0xf0,0x06,
 0x80,0x37,0x00,0xbc,0x01,0x80,0x37,0x0f,0xf0,0xe6,0x43,0xf0,0x3f,0x00,0x00,
 0x00,0x00,0x00,0x00,0x00,0x00,0x00,0x00,0x00,0x00,0x00,0x00,0x00,0x00,0x00,
 0x00,0x00,0x00,0x00,0x00,0x00,0x00,0x00,0x00,0x00,0x00,0x00,0x00,0x00,0x00,
 0x00,0x00,0x00,0x00,0x00,0x00,0x00,0x03,0x03,0x00,0x22,0xcc,0x59,0x00,0x60,
 0x06,0x00,0x33,0x00,0x98,0x01,0x00,0x33,0x03,0x60,0x26,0x41,0x00,0x00,0x00,
 0x00,0x00,0x00,0x00,0x00,0x00,0x00,0x00,0x00,0x00,0x00,0x00,0x00,0x00,0x00,
 0x00,0x00,0x00,0x00,0x00,0x00,0x00,0x00,0x00,0x00,0x00,0x00,0x00,0x00,0x00,
 0x00,0x00,0x00,0x00,0x00,0x00,0x00,0x00,0x83,0xd1,0xb0,0x27,0xcc,0x59,0x0e,
 0x60,0x66,0x00,0x33,0x03,0x98,0x45,0x00,0x33,0x03,0x60,0x26,0x41,0x00,0x00,
 0x00,0x00,0x00,0x00,0x00,0x00,0x00,0x00,0x00,0x00,0x00,0x00,0x00,0x00,0x00,
 0x00,0x00,0x00,0x00,0x00,0x00,0x00,0x00,0x00,0x00,0x00,0x00,0x00,0x00,0x00,
 0x00,0x00,0x00,0x00,0x00,0x00,0x00,0x00,0x00,0xfe,0xb9,0x78,0x23,0x6c,0x0c,
 0x9f,0x61,0xf3,0x0c,0x9b,0x67,0xd8,0x6e,0x0c,0x1b,0x83,0x61,0xe3,0x41,0xf0,
 0x3f,0x00,0x00,0x00,0x00,0x00,0x00,0x00,0x00,0x00,0x00,0x00,0x00,0x00,0x00,
 0x00,0x00,0x00,0x00,0x00,0x00,0x00,0x00,0x00,0x00,0x00,0x00,0x00,0x00,0x00,
 0x00,0x00,0x00,0x00,0x00,0x00,0x00,0x00,0x00,0x00,0xee,0x99,0x38,0x61,0x3c,
 0x0c,0x83,0xe1,0x11,0x0c,0x8f,0x63,0x78,0x28,0x0c,0x0f,0x91,0xe1,0x81,0x61,
 0x00,0x00,0x00,0x00,0x00,0x00,0x00,0x00,0x00,0x00,0x00,0x00,0x00,0x00,0x00,
 0x00,0x00,0x00,0x00,0x00,0x00,0x00,0x00,0x00,0x00,0x00,0x00,0x00,0x00,0x00,
 0x00,0x00,0x00,0x00,0x00,0x00,0x00,0x00,0x00,0x00,0x00,0x78,0xd1,0x4d,0x63,
 0x06,0x0c,0x02,0x31,0x98,0x88,0xc1,0x44,0x0c,0x18,0x88,0x81,0x19,0x31,0x90,
 0x61,0x00,0x00,0x00,0x00,0x00,0x00,0x00,0x00,0x00,0x00,0x00,0x00,0x00,0x00,
 0x00,0x00,0x00,0x00,0x00,0x00,0x00,0x00,0x00,0x00,0x00,0x00,0x00,0x00,0x00,
 0x00,0x00,0x00,0x00,0x00,0x00,0x00,0x00,0x00,0x00,0x00,0x00,0xe0,0xd9,0x39,
 0x43,0x06,0x1f,0x03,0x31,0x70,0x88,0x81,0x43,0x0c,0x18,0x88,0xc1,0x0f,0x31,
 0xf8,0x20,0x00,0x00,0x00,0x00,0x00,0x00,0x00,0x00,0x00,0x00,0x00,0x00,0x00,
 0x00,0x00,0x00,0x00,0x00,0x00,0x00,0x00,0x00,0x00,0x00,0x00,0x00,0x00,0x00,
 0x00,0x00,0x00,0x00,0x00,0x00,0x00,0x00,0x00,0x00,0x00,0x00,0x00,0xe0,0x00,
 0x00,0xc0,0x0f,0x00,0x80,0x78,0x00,0xc4,0x03,0x20,0x1e,0x34,0xc4,0x03,0x80,
 0x78,0x00,0x30,0x00,0x00,0x00,0x00,0x00,0x00,0x00,0x00,0x00,0x00,0x00,0x00,
 0x00,0x00,0x00,0x00,0x00,0x00,0x00,0x00,0x00,0x00,0x00,0x00,0x00,0x00,0x00,
 0x00,0x00,0x00,0x00,0x00,0x00,0x00,0x00,0x00,0x00,0x00,0x00,0x00,0x00,0x00,
 0x00,0x00,0x80,0x01,0x00,0x00,0x00,0x00,0x00,0x00,0x00,0x00,0x76,0x00,0x00,
 0x00,0x00,0x00,0x18,0x00,0x00,0x00,0x00,0x00,0x00,0x00,0x00,0x00,0x00,0x00,
 0x00,0x00,0x00,0x00,0x00,0x00,0x00,0x00,0x00,0x00,0x00,0x00,0x00,0x00,0x00,
 0x00,0x00,0x00,0x00,0x00,0x00,0x00,0x00,0x00,0x00,0x00,0x00,0x00,0x00,0x00,
 0x00,0x00,0x00,0x00,0x00,0x00,0x00,0x00,0x00,0x00,0x00,0x00,0x00,0x00,0x00,
 0x00,0x00,0x00,0x00,0x00,0x00,0x00,0x00,0x00,0x00,0x00,0x00,0x00,0x00,0x00,
 0x00,0x00,0x00,0x00,0x00,0x00,0x00,0x00,0x00,0x00,0x00,0x00,0x00,0x00,0x00,
 0x00,0x00,0x00,0x00,0x00,0x00,0x00,0x00,0x00,0x00,0x00,0x00,0x00,0x00,0x00,
 0x00,0x00,0x00,0x00,0x00,0x00,0x00,0x00,0x00,0x00,0x00,0x00,0x00,0x00,0x00,
 0x00,0x00,0x00,0x00,0x00,0x00,0x00,0x00,0x00,0x00,0x00,0x00,0x00,0x00,0x00,
 0x00,0x00,0x00,0x00,0x00,0x00,0x00,0x00,0x00,0x00,0x00,0x00,0x00,0x00,0x00,
 0x00,0x00,0x00,0x00,0x00,0x00,0x00,0x00,0x00,0x00,0x00,0x00,0x00,0x00,0x00,
 0x00,0x00,0x00,0x00,0x00,0x00,0x00,0x00,0x00,0x00,0x00,0x00,0x00,0x00,0x00,
 0x00,0x00,0x00,0x00,0x00,0x00,0x00,0x00,0x00,0x00,0x00,0x00,0x00,0x00,0x00,
 0x00,0x00,0x00,0x00,0x00,0x00,0x00,0x00,0x00,0x00,0x00,0x00,0x00,0x00,0x00,
 0x00,0x00,0x00,0x00,0x00,0x00,0x00,0x00,0x00,0x00,0x00,0x00,0x00,0x00,0x00,
 0x00,0x00,0x00,0x00,0x00,0x00,0x00,0x00,0x00,0x00,0x00,0x00,0x00,0x00,0x00,
 0x00,0x00,0x00,0x00,0x00,0x00,0x00,0x00,0x00,0x00,0x00,0x00,0x00,0x00,0x00,
 0x00,0x00,0x00,0x00,0x00,0x00,0x00,0x00,0x00,0x00,0x00,0x00,0x00,0x00,0x00,
 0x00,0x00,0x00,0x00,0x00,0x00,0x00,0x00,0x00,0x00,0x00,0x00,0x00,0x00,0x00,
 0x00,0x00,0x00,0x00,0x00,0x00,0x00,0x00,0x00,0x00,0x00,0x00,0x00,0x00,0x00,
 0x00,0x00,0x00,0x00,0x00,0x00,0x00,0x00,0x00,0x00,0x00,0x00,0x00,0x00,0x00,
 0x00,0x00,0x00,0x00,0x00,0x00,0x00,0x00,0x00,0x00,0x00,0x00,0x00,0x00,0x00,
 0x00,0x00,0x00,0x00,0x00,0x00,0x00,0x00,0x00,0x00,0x00,0x00,0x00,0x00,0x00,
 0x00,0x00,0x00,0x00,0x00,0x00,0x00,0x00,0x00,0x00,0x00,0x00,0x00,0x00,0x00,
 0x00,0x00,0x00,0x00,0x00,0x00,0x00,0x00,0x00,0x00,0x00,0x00,0x00,0x00,0x00,
 0x00,0x00,0x00,0x00,0x00,0x00,0x00,0x00,0x00,0x00,0x00,0x00,0x00,0x00,0x00,
 0x00,0x00,0x00,0x00,0x00,0x00,0x00,0x00,0x00,0x00,0x00,0x00,0x00,0x00,0x00,
 0x00,0x00,0x00,0x00,0x00,0x00,0x00,0x00,0x00,0x00,0x10,0x00,0x00,0x00,0x00,
 0x20,0x00,0x00,0x00,0x00,0x00,0x04,0x00,0x00,0x00,0x20,0x00,0x00,0x00,0x00,
 0x00,0x08,0x00,0x10,0x00,0x00,0x00,0x00,0x00,0x02,0x00,0x02,0x00,0x00,0x00,
 0x00,0x00,0x00,0x00,0x00,0x00,0x00,0x00,0x00,0x00,0x00,0x00,0x00,0x00,0x00,
 0x00,0x00,0x00,0x00,0x02,0x00,0x01,0x00,0x00,0x7e,0x00,0x08,0x00,0x00,0x00,
 0x00,0x40,0x00,0x00,0x80,0x1f,0x00,0x02,0x00,0x00,0x00,0x40,0x00,0x00,0x00,
 0x1f,0x00,0x04,0x00,0x20,0x00,0x00,0xc0,0x07,0x00,0x01,0x00,0x04,0x00,0x00,
 0x00,0x00,0x00,0x00,0x00,0x00,0x00,0x00,0x00,0x00,0x00,0x00,0x00,0x00,0x00,
 0x00,0x00,0x00,0x00,0x00,0x09,0x10,0x02,0x00,0x00,0xcc,0x00,0x0c,0x00,0x00,
 0x00,0x00,0xc0,0x00,0x00,0x00,0x33,0x00,0x03,0x00,0x00,0x00,0xc0,0x00,0x00,
 0x80,0x31,0x00,0x06,0x00,0x60,0x00,0x00,0x60,0x0c,0x80,0x01,0x00,0x0c,0x00,
 0x00,0x00,0x00,0x00,0x00,0x00,0x00,0x00,0x00,0x00,0x00,0x00,0x00,0x00,0x00,
 0x00,0x00,0x00,0x00,0x00,0x80,0xf9,0x1d,0x06,0x00,0x00,0xc6,0x00,0x06,0x00,
 0x00,0x00,0x00,0x80,0x01,0x00,0x80,0x31,0x80,0x01,0x00,0x00,0x00,0x80,0x01,
 0x00,0xc0,0x30,0x00,0x03,0x00,0xc0,0x00,0x00,0x30,0x0c,0xc0,0x00,0x00,0x18,
 0x00,0x00,0x00,0x00,0x00,0x00,0x00,0x00,0x00,0x00,0x00,0x00,0x00,0x00,0x00,
 0x00,0x00,0x00,0x00,0x00,0x00,0xc0,0x8c,0x10,0x0c,0x00,0x00,0xc6,0x00,0x06,
 0x00,0x00,0x00,0x00,0x80,0x01,0x00,0x80,0x31,0x80,0x01,0x00,0x00,0x00,0x80,
 0x01,0x00,0x60,0x30,0x00,0x03,0x00,0xc0,0x00,0x00,0x18,0x0c,0xc0,0x00,0x00,
 0x18,0x00,0x00,0x00,0x00,0x00,0x00,0x00,0x00,0x00,0x00,0x00,0x00,0x00,0x00,
 0x00,0x00,0x00,0x00,0x00,0x00,0x00,0xc0,0x44,0x10,0x0c,0x00,0x00,0xe6,0x00,
 0xc2,0x0f,0x00,0x00,0xfc,0x00,0x01,0x00,0x80,0x39,0x80,0xe0,0x07,0x00,0x3f,
 0x00,0x01,0x00,0x60,0x30,0x00,0xe1,0x07,0x80,0x00,0x00,0x18,0x0c,0x40,0xf8,
 0x01,0x10,0x00,0x00,0x00,0x00,0x00,0x00,0x00,0x00,0x00,0x00,0x00,0x00,0x00,
 0x00,0x00,0x00,0x00,0x00,0x00,0x00,0x00,0x40,0x60,0x10,0x08,0x00,0x00,0x3e,
 0x7c,0xe2,0xfd,0x07,0x00,0xde,0x00,0x01,0x00,0x80,0x0f,0x8f,0xf0,0x06,0x80,
 0x37,0x00,0x01,0x00,0x70,0x30,0x1e,0xf1,0xe6,0x81,0x00,0x00,0x1c,0x8c,0x4f,
 0xbc,0xf9,0x10,0x00,0x00,0x00,0x00,0x00,0x00,0x00,0x00,0x00,0x00,0x00,0x00,
 0x00,0x00,0x00,0x00,0x00,0x00,0x00,0x00,0x00,0x40,0x20,0x10,0x08,0x00,0x00,
 0x23,0x24,0xc2,0x9c,0x05,0x00,0xcc,0x00,0x81,0xff,0xc0,0x08,0x83,0x60,0x06,
 0x00,0x33,0x00,0x81,0xff,0x30,0x30,0x06,0x61,0x66,0x80,0xe0,0x3f,0x0c,0x8c,
 0x44,0x98,0x49,0x10,0x00,0x00,0x00,0x00,0x00,0x00,0x00,0x00,0x00,0x00,0x00,
 0x00,0x00,0x00,0x00,0x00,0x00,0x00,0x00,0x00,0x00,0x40,0x30,0x10,0x08,0x00,
 0x00,0x23,0x24,0xc2,0x9c,0xe5,0x00,0xcc,0x0c,0x01,0x00,0xc0,0x08,0x83,0x60,
 0x66,0x00,0xb3,0x08,0x01,0x00,0x30,0x18,0x06,0x61,0x66,0x80,0x00,0x00,0x0c,
 0x86,0x44,0x98,0x49,0x10,0x00,0x00,0x00,0x00,0x00,0x00,0x00,0x00,0x00,0x00,
 0x00,0x00,0x00,0x00,0x00,0x00,0x00,0x00,0x00,0x00,0x00,0x40,0x30,0x10,0x08,
 0x00,0x00,0x33,0x3d,0xc2,0xc6,0xf0,0x31,0x6c,0x1e,0x01,0x00,0xc0,0x4c,0x83,
 0x60,0xf3,0x0c,0xdb,0x0d,0x01,0x00,0xe0,0x1f,0x06,0x61,0x63,0x80,0x00,0x00,
 0xf8,0x87,0x47,0xd8,0x78,0x10,0x0c,0x00,0x00,0x00,0x00,0x00,0x00,0x00,0x00,
 0x00,0x00,0x00,0x00,0x00,0x00,0x00,0x00,0x00,0x00,0x00,0x00,0x40,0x30,0x10,
 0x08,0x00,0xc0,0xf7,0x30,0xc6,0xc3,0x30,0x30,0x3c,0x82,0x01,0x00,0xf0,0x3d,
 0x91,0xe1,0x71,0x0c,0x0f,0x85,0x01,0x00,0xe0,0x1e,0x22,0xe3,0x21,0xc2,0x00,
 0x00,0xb8,0x07,0xc6,0x78,0x60,0x18,0x0c,0x00,0x00,0x00,0x00,0x00,0x00,0x00,
 0x00,0x00,0x00,0x00,0x00,0x00,0x00,0x00,0x00,0x00,0x00,0x00,0x00,0xc0,0x30,
 0x7c,0x0c,0x00,0x00,0xe0,0x32,0x66,0xc0,0x20,0x20,0x06,0x93,0x01,0x00,0x00,
 0xb8,0x99,0x31,0x98,0x88,0x01,0x83,0x01,0x00,0x80,0x17,0x33,0x33,0x30,0xc3,
 0x00,0x00,0xe0,0x45,0xc6,0x0c,0x64,0x18,0x00,0x00,0x00,0x00,0x00,0x00,0x00,
 0x00,0x00,0x00,0x00,0x00,0x00,0x00,0x00,0x00,0x00,0x00,0x00,0x00,0x00,0xc0,
 0x30,0x00,0x0c,0x00,0x00,0x00,0x1f,0x64,0xf0,0x31,0x20,0x06,0x8e,0x00,0x00,
 0x00,0xc0,0x0f,0x31,0x70,0x88,0x01,0x83,0x00,0x00,0x00,0x9e,0x1f,0x32,0xf8,
 0x41,0x00,0x00,0x80,0xe7,0x83,0x0c,0x3e,0x08,0x00,0x00,0x00,0x00,0x00,0x00,
 0x00,0x00,0x00,0x00,0x00,0x00,0x00,0x00,0x00,0x00,0x00,0x00,0x00,0x00,0x00,
 0x80,0x00,0x00,0x04,0x00,0x00,0x00,0x00,0xfc,0x00,0x00,0x10,0x0f,0xc0,0x00,
 0x00,0x00,0x00,0x00,0x7b,0x00,0xc4,0x83,0xc6,0x00,0x00,0x00,0x0e,0x00,0x7e,
 0x00,0x60,0x00,0x00,0x80,0x03,0x80,0x1f,0x00,0x0c,0x00,0x00,0x00,0x00,0x00,
 0x00,0x00,0x00,0x00,0x00,0x00,0x00,0x00,0x00,0x00,0x00,0x00,0x00,0x00,0x00,
 0x00,0x80,0x01,0x00,0x06,0x00,0x00,0x00,0x00,0x18,0x00,0x00,0x00,0x00,0x60,
 0x00,0x00,0x00,0x00,0x00,0x06,0x00,0x00,0xc0,0x6e,0x00,0x00,0x00,0x00,0x00,
 0x0c,0x00,0x30,0x00,0x00,0x00,0x00,0x00,0x03,0x00,0x06,0x00,0x00,0x00,0x00,
 0x00,0x00,0x00,0x00,0x00,0x00,0x00,0x00,0x00,0x00,0x00,0x00,0x00,0x00,0x00,
 0x00,0x00,0x00,0x03,0x00,0x03};
